<svg width="527" height="527" viewBox="0 0 527 527" fill="none" xmlns="http://www.w3.org/2000/svg">
<path d="M456.879 145.173C456.879 144.287 456.763 141.937 456.763 140.957C456.763 136.667 458.291 134.727 462.286 134.633C464.172 134.517 465.279 133.399 465.279 131.818C465.28 131.433 465.201 131.051 465.049 130.697C464.897 130.343 464.673 130.024 464.393 129.759C464.113 129.494 463.781 129.29 463.419 129.158C463.056 129.027 462.671 128.971 462.286 128.994C458.291 128.825 456.763 126.886 456.763 122.596C456.763 121.595 456.879 119.244 456.879 118.38C456.879 112.688 454.476 109.041 445.369 107.049C444.742 106.879 444.073 106.956 443.5 107.263C442.928 107.571 442.495 108.087 442.291 108.704C442.087 109.321 442.128 109.993 442.404 110.581C442.681 111.169 443.172 111.629 443.777 111.866C449.48 113.626 450.302 115.45 450.302 119.444C450.302 120.614 450.186 122.606 450.186 123.787C450.186 128.372 452.42 130.606 456.299 131.839C452.357 133.125 450.186 135.307 450.186 139.881C450.186 141.125 450.302 143.043 450.302 144.234C450.302 148.229 449.48 150.053 443.777 151.813C443.172 152.05 442.681 152.51 442.404 153.098C442.128 153.686 442.087 154.358 442.291 154.975C442.495 155.592 442.928 156.108 443.5 156.416C444.073 156.723 444.742 156.8 445.369 156.63C454.476 154.574 456.879 150.927 456.879 145.173Z" fill="#5BA4A4"/>
<path d="M422.455 118.317C422.455 119.202 422.571 121.552 422.571 122.533C422.571 126.875 420.99 128.762 416.995 128.93C416.61 128.907 416.225 128.962 415.862 129.093C415.5 129.224 415.168 129.428 414.887 129.692C414.607 129.957 414.383 130.275 414.23 130.629C414.077 130.983 413.998 131.364 413.998 131.75C413.998 132.135 414.077 132.517 414.23 132.871C414.383 133.224 414.607 133.543 414.887 133.807C415.168 134.071 415.5 134.275 415.862 134.406C416.225 134.537 416.61 134.593 416.995 134.569C420.99 134.685 422.571 136.625 422.571 140.893C422.571 141.895 422.455 144.245 422.455 145.109C422.455 150.864 424.869 154.511 433.965 156.503C434.341 156.627 434.741 156.658 435.132 156.594C435.523 156.531 435.892 156.374 436.21 156.137C436.527 155.9 436.783 155.591 436.955 155.234C437.128 154.878 437.212 154.485 437.2 154.089C437.218 153.557 437.06 153.034 436.752 152.6C436.443 152.166 436.001 151.845 435.493 151.686C429.854 149.926 429.032 148.103 429.032 144.108C429.032 142.927 429.148 140.946 429.148 139.755C429.148 135.181 426.924 132.946 423.045 131.713C426.977 130.417 429.148 128.245 429.148 123.66C429.148 122.427 429.032 120.498 429.032 119.318C429.032 115.323 429.854 113.5 435.493 111.74C436.102 111.514 436.601 111.062 436.887 110.478C437.172 109.894 437.221 109.222 437.025 108.603C436.828 107.983 436.401 107.463 435.831 107.15C435.261 106.838 434.593 106.756 433.965 106.923C424.869 108.978 422.455 112.625 422.455 118.317Z" fill="#5BA4A4"/>
<path d="M303.785 112.148C304.109 112.471 304.365 112.854 304.54 113.277C304.715 113.699 304.806 114.152 304.806 114.609C304.806 115.066 304.715 115.519 304.54 115.941C304.365 116.363 304.109 116.747 303.785 117.07C303.136 117.695 302.273 118.05 301.371 118.061C300.439 118.063 299.542 117.709 298.863 117.07L283.496 101.502C283.424 101.475 283.361 101.43 283.313 101.371C283.265 101.311 283.233 101.24 283.222 101.165C283.17 101.122 283.114 101.087 283.053 101.06C282.977 100.921 282.924 100.772 282.895 100.617C282.851 100.599 282.812 100.571 282.783 100.534C282.753 100.497 282.734 100.453 282.726 100.406C282.674 100.29 282.674 100.132 282.621 100.079C282.568 100.027 282.505 99.8581 282.505 99.8054V99.4154C282.505 99.31 282.505 99.2573 282.505 99.0887C282.505 98.92 282.505 98.8673 282.505 98.8146V98.4457C282.505 98.3403 282.621 98.2771 282.621 98.2244C282.621 98.1717 282.621 97.9503 282.726 97.7922C282.832 97.6341 282.726 97.729 282.726 97.6763C282.726 97.6236 282.895 97.2969 283 97.1915C283 97.1762 283.003 97.1612 283.009 97.1471C283.015 97.133 283.023 97.1202 283.034 97.1095C283.045 97.0987 283.058 97.0902 283.072 97.0843C283.086 97.0785 283.101 97.0755 283.116 97.0755C283.19 96.9223 283.302 96.7914 283.443 96.6961L298.81 81.1074C299.476 80.4789 300.356 80.1287 301.271 80.1287C302.187 80.1287 303.067 80.4789 303.732 81.1074C304.056 81.4305 304.313 81.8141 304.488 82.2364C304.663 82.6587 304.753 83.1114 304.753 83.5685C304.753 84.0257 304.663 84.4783 304.488 84.9006C304.313 85.3229 304.056 85.7066 303.732 86.0296L290.768 99.0992L303.785 112.148Z" fill="#5BA4A4"/>
<path d="M337.295 92.2891C337.044 91.9069 336.871 91.4789 336.786 91.0298C336.701 90.5806 336.705 90.1191 336.798 89.6716C336.892 89.224 337.072 88.7993 337.33 88.4216C337.588 88.044 337.917 87.7208 338.3 87.4706C339.063 86.9909 339.98 86.8202 340.865 86.9934C341.778 87.1812 342.584 87.7115 343.118 88.4753L354.984 106.852C355.049 106.893 355.101 106.95 355.136 107.018C355.171 107.086 355.188 107.162 355.184 107.238C355.225 107.29 355.273 107.337 355.327 107.376C355.373 107.527 355.395 107.684 355.392 107.841C355.431 107.868 355.463 107.903 355.484 107.946C355.506 107.988 355.516 108.035 355.514 108.082C355.542 108.206 355.509 108.361 355.55 108.423C355.591 108.486 355.619 108.664 355.608 108.715L355.528 109.097C355.507 109.2 355.496 109.252 355.462 109.417C355.427 109.582 355.416 109.634 355.406 109.685L355.33 110.046C355.309 110.15 355.182 110.188 355.172 110.239C355.161 110.291 355.116 110.508 354.98 110.641C354.845 110.774 354.967 110.703 354.957 110.755C354.946 110.806 354.714 111.092 354.589 111.173C354.586 111.188 354.58 111.202 354.572 111.215C354.563 111.227 354.552 111.238 354.539 111.247C354.527 111.255 354.512 111.261 354.497 111.263C354.482 111.266 354.467 111.266 354.452 111.263C354.349 111.398 354.212 111.503 354.055 111.568L335.829 123.691C335.049 124.171 334.116 124.334 333.22 124.147C332.324 123.96 331.533 123.438 331.01 122.687C330.76 122.304 330.587 121.876 330.502 121.427C330.416 120.978 330.421 120.517 330.514 120.069C330.607 119.622 330.788 119.197 331.046 118.819C331.303 118.441 331.633 118.118 332.015 117.868L347.374 107.72L337.295 92.2891Z" fill="#5BA4A4"/>
<path d="M309.915 114.93L323.311 83.0465C323.468 82.6806 323.696 82.3493 323.981 82.0716C324.267 81.794 324.604 81.5754 324.975 81.4286C325.345 81.2817 325.74 81.2093 326.139 81.2157C326.537 81.222 326.93 81.3069 327.295 81.4655C327.652 81.6181 327.975 81.8397 328.245 82.1176C328.516 82.3954 328.729 82.7241 328.872 83.0846C329.015 83.4451 329.085 83.8304 329.079 84.2182C329.072 84.606 328.989 84.9887 328.834 85.3442L315.438 117.28C315.198 117.821 314.807 118.28 314.311 118.602C313.815 118.924 313.236 119.095 312.644 119.093C312.282 119.091 311.924 119.015 311.59 118.872C311.215 118.732 310.872 118.517 310.582 118.24C310.292 117.963 310.062 117.63 309.905 117.261C309.748 116.892 309.668 116.495 309.67 116.095C309.672 115.694 309.755 115.298 309.915 114.93V114.93Z" fill="#5BA4A4"/>
<path d="M89.8113 310.466L75.7299 310.182L68.7946 310.055C66.4863 310.055 64.1992 310.055 61.9014 310.002L62.3652 310.466L62.4284 298.683L61.9014 299.199L75.888 299.136C80.5362 299.136 85.1843 299.02 89.843 298.967L89.5478 298.683C89.5478 300.611 89.6427 302.551 89.6954 304.511L89.8113 310.466ZM89.8113 310.466L89.9589 304.638C89.9589 302.667 90.0749 300.675 90.0959 298.683V298.398H89.8113C85.1527 298.345 80.5045 298.229 75.8564 298.229L61.9014 298.166H61.3744V298.704V310.487V310.93H61.8487C64.1991 310.93 66.5601 310.93 68.9 310.877L75.9196 310.751L89.8113 310.466Z" fill="#C5C5C5"/>
<path d="M74.244 325.338L60.1625 325.054L53.2272 324.927C50.919 324.927 48.6318 324.927 46.3341 324.927L46.7978 325.391L46.8505 313.597L46.3341 314.124L60.289 314.06C64.9372 314.06 69.5853 313.944 74.244 313.892L73.9489 313.597C73.9489 315.536 74.0437 317.475 74.0859 319.436L74.244 325.338ZM74.244 325.338L74.3915 319.51C74.3915 317.539 74.5075 315.546 74.5286 313.554V313.27H74.244C69.5853 313.27 64.9372 313.101 60.289 313.101L46.3762 313.038H45.8387V313.565L45.8914 325.359V325.834H46.3762C48.7267 325.834 51.0771 325.834 53.4275 325.781L60.4471 325.654L74.244 325.338Z" fill="#C5C5C5"/>
<path d="M105.4 325.338L91.3186 325.054L84.3832 324.927C82.0855 324.927 79.7878 324.927 77.4901 324.927L77.9538 325.391L77.996 313.544L77.469 314.071L91.424 314.008C96.0721 314.008 100.731 313.892 105.379 313.839L105.094 313.544C105.094 315.483 105.179 317.423 105.231 319.383L105.4 325.338ZM105.4 325.338L105.548 319.51C105.6 317.539 105.663 315.546 105.685 313.554V313.27H105.4C100.752 313.27 96.0932 313.101 91.4451 313.101L77.469 313.038H76.942V313.565V325.338V325.812H77.4058C79.7562 325.812 82.1171 325.812 84.457 325.76L91.4767 325.633L105.4 325.338Z" fill="#C5C5C5"/>
<path d="M465.099 325.338L451.028 325.054L444.092 324.927C441.784 324.927 439.486 324.927 437.189 324.927L437.663 325.391L437.716 313.597L437.189 314.124L451.112 314.008C455.771 314.008 460.419 313.892 465.067 313.839L464.782 313.544C464.782 315.483 464.877 317.423 464.919 319.383L465.099 325.338ZM465.099 325.338L465.257 319.51C465.257 317.539 465.373 315.546 465.394 313.554V313.27H465.099C460.451 313.27 455.802 313.101 451.144 313.101L437.189 313.038H436.662V313.565L436.725 325.359V325.834H437.189C439.539 325.834 441.9 325.834 444.251 325.781L451.27 325.686L465.099 325.338Z" fill="#C5C5C5"/>
<path d="M437.737 429.052H438.791V296.775L466.964 258.325V186.126H465.91V257.977L437.737 296.427V429.052Z" fill="#C5C5C5"/>
<path d="M466.437 186.695C467.038 186.697 467.626 186.521 468.127 186.189C468.627 185.856 469.018 185.383 469.249 184.828C469.481 184.274 469.542 183.663 469.426 183.074C469.31 182.484 469.022 181.942 468.598 181.517C468.174 181.091 467.633 180.801 467.044 180.683C466.455 180.565 465.844 180.625 465.289 180.854C464.733 181.084 464.259 181.473 463.925 181.972C463.591 182.471 463.412 183.059 463.412 183.66C463.412 184.463 463.731 185.233 464.298 185.802C464.865 186.371 465.634 186.692 466.437 186.695V186.695ZM466.437 181.689C466.83 181.686 467.215 181.801 467.542 182.018C467.87 182.235 468.125 182.544 468.277 182.907C468.428 183.269 468.468 183.669 468.392 184.054C468.316 184.439 468.127 184.793 467.849 185.071C467.571 185.349 467.217 185.538 466.832 185.614C466.446 185.69 466.047 185.65 465.685 185.499C465.322 185.347 465.013 185.092 464.796 184.764C464.579 184.437 464.464 184.052 464.466 183.66C464.469 183.138 464.678 182.638 465.047 182.269C465.416 181.9 465.915 181.691 466.437 181.689V181.689Z" fill="#C5C5C5"/>
<path d="M444.999 429.052H446.053V301.423L474.226 262.962V212.465H473.172V262.625L444.999 301.075V429.052Z" fill="#C5C5C5"/>
<path d="M473.699 213.045C474.3 213.045 474.887 212.867 475.386 212.533C475.885 212.2 476.274 211.726 476.504 211.171C476.734 210.616 476.794 210.006 476.677 209.417C476.559 208.828 476.27 208.288 475.846 207.863C475.421 207.439 474.88 207.149 474.292 207.032C473.703 206.915 473.092 206.975 472.538 207.205C471.983 207.435 471.509 207.824 471.175 208.323C470.842 208.822 470.664 209.409 470.664 210.01C470.664 210.815 470.984 211.587 471.553 212.156C472.122 212.725 472.894 213.045 473.699 213.045ZM473.699 208.039C474.092 208.039 474.475 208.155 474.801 208.373C475.127 208.591 475.381 208.902 475.531 209.264C475.681 209.627 475.719 210.026 475.642 210.411C475.565 210.795 475.375 211.148 475.097 211.425C474.819 211.702 474.464 211.89 474.079 211.965C473.694 212.04 473.296 211.999 472.934 211.848C472.572 211.696 472.263 211.44 472.047 211.113C471.83 210.786 471.716 210.402 471.718 210.01C471.718 209.75 471.769 209.493 471.869 209.253C471.969 209.013 472.115 208.795 472.299 208.612C472.483 208.429 472.701 208.284 472.942 208.186C473.182 208.087 473.44 208.037 473.699 208.039Z" fill="#C5C5C5"/>
<path d="M430.749 253.656H431.803V429.052H430.749V253.656Z" fill="#C5C5C5"/>
<path d="M431.276 254.183C431.876 254.183 432.463 254.005 432.962 253.671C433.461 253.337 433.85 252.863 434.08 252.309C434.31 251.754 434.37 251.144 434.253 250.555C434.136 249.966 433.847 249.425 433.422 249.001C432.998 248.576 432.457 248.287 431.868 248.17C431.279 248.053 430.669 248.113 430.114 248.343C429.559 248.572 429.085 248.961 428.752 249.461C428.418 249.96 428.24 250.547 428.24 251.147C428.24 251.952 428.56 252.724 429.129 253.294C429.699 253.863 430.471 254.183 431.276 254.183V254.183ZM431.276 249.176C431.668 249.176 432.052 249.293 432.378 249.511C432.704 249.729 432.958 250.039 433.107 250.402C433.257 250.764 433.296 251.163 433.218 251.548C433.141 251.933 432.951 252.286 432.673 252.563C432.395 252.839 432.041 253.027 431.656 253.102C431.271 253.178 430.872 253.137 430.51 252.985C430.148 252.834 429.84 252.578 429.623 252.251C429.407 251.924 429.292 251.539 429.294 251.147C429.294 250.887 429.346 250.63 429.445 250.39C429.545 250.151 429.691 249.933 429.875 249.75C430.059 249.566 430.278 249.422 430.518 249.323C430.759 249.225 431.016 249.175 431.276 249.176V249.176Z" fill="#C5C5C5"/>
<path d="M424.014 429.052H425.068V339.778L425.005 339.662L405.938 303.7V239.153H404.884V303.963L404.947 304.079L424.014 340.041V429.052Z" fill="#C5C5C5"/>
<path d="M405.421 239.68C406.022 239.68 406.609 239.502 407.108 239.168C407.607 238.834 407.996 238.36 408.226 237.806C408.455 237.251 408.516 236.641 408.398 236.052C408.281 235.463 407.992 234.922 407.568 234.498C407.143 234.073 406.602 233.784 406.013 233.667C405.425 233.55 404.814 233.61 404.26 233.84C403.705 234.069 403.231 234.458 402.897 234.958C402.564 235.457 402.386 236.044 402.386 236.644C402.386 237.449 402.706 238.221 403.275 238.79C403.844 239.36 404.616 239.68 405.421 239.68V239.68ZM405.421 234.673C405.814 234.673 406.197 234.79 406.523 235.008C406.849 235.226 407.103 235.536 407.253 235.899C407.403 236.261 407.441 236.66 407.364 237.045C407.287 237.43 407.097 237.783 406.819 238.059C406.54 238.336 406.186 238.524 405.801 238.599C405.416 238.675 405.018 238.634 404.656 238.482C404.294 238.331 403.985 238.075 403.769 237.748C403.552 237.421 403.438 237.036 403.44 236.644C403.44 236.384 403.491 236.127 403.591 235.887C403.69 235.648 403.837 235.43 404.021 235.247C404.205 235.063 404.423 234.918 404.664 234.82C404.904 234.722 405.162 234.672 405.421 234.673Z" fill="#C5C5C5"/>
<path d="M417.321 429.052H418.375V343.625L418.312 343.499L395.83 303.742V261.276H394.776V304.016L394.839 304.142L417.321 343.899V429.052Z" fill="#C5C5C5"/>
<path d="M395.25 261.803C395.851 261.803 396.438 261.625 396.938 261.291C397.437 260.957 397.826 260.482 398.056 259.927C398.285 259.371 398.345 258.761 398.227 258.171C398.109 257.582 397.818 257.042 397.393 256.617C396.967 256.193 396.425 255.905 395.836 255.789C395.246 255.673 394.636 255.735 394.081 255.966C393.527 256.198 393.053 256.588 392.721 257.089C392.389 257.589 392.213 258.177 392.215 258.778C392.217 259.581 392.538 260.351 393.107 260.918C393.676 261.485 394.447 261.803 395.25 261.803ZM395.25 256.797C395.642 256.797 396.025 256.913 396.351 257.131C396.677 257.348 396.931 257.658 397.081 258.02C397.231 258.382 397.27 258.78 397.194 259.165C397.117 259.549 396.928 259.902 396.651 260.179C396.374 260.456 396.021 260.645 395.637 260.722C395.252 260.798 394.854 260.759 394.492 260.609C394.13 260.459 393.82 260.205 393.603 259.879C393.385 259.553 393.269 259.17 393.269 258.778C393.269 258.253 393.477 257.749 393.849 257.377C394.221 257.005 394.725 256.797 395.25 256.797V256.797Z" fill="#C5C5C5"/>
<path d="M88.2094 429.052H89.2634V359.667L89.158 359.53L61.09 321.217V280.986H60.036V321.565L60.1414 321.702L88.2094 360.015V429.052Z" fill="#C5C5C5"/>
<path d="M60.5629 281.555C61.1632 281.555 61.7501 281.377 62.2493 281.043C62.7485 280.71 63.1376 280.236 63.3673 279.681C63.5971 279.127 63.6572 278.516 63.5401 277.927C63.4229 277.339 63.1338 276.798 62.7093 276.373C62.2848 275.949 61.7439 275.659 61.1551 275.542C60.5662 275.425 59.9559 275.485 59.4012 275.715C58.8466 275.945 58.3725 276.334 58.0389 276.833C57.7054 277.332 57.5273 277.919 57.5273 278.52C57.5273 279.325 57.8471 280.097 58.4164 280.666C58.9857 281.235 59.7578 281.555 60.5629 281.555V281.555ZM60.5629 276.549C60.9552 276.549 61.3387 276.665 61.6648 276.883C61.9909 277.101 62.2449 277.412 62.3945 277.774C62.5442 278.137 62.5828 278.536 62.5055 278.921C62.4282 279.305 62.2384 279.658 61.9603 279.935C61.6821 280.212 61.328 280.4 60.9429 280.475C60.5579 280.55 60.1591 280.509 59.7973 280.358C59.4354 280.206 59.1266 279.951 58.9102 279.623C58.6937 279.296 58.5792 278.912 58.5813 278.52C58.5813 278.26 58.6327 278.003 58.7324 277.763C58.8321 277.523 58.9782 277.305 59.1624 277.122C59.3465 276.939 59.565 276.794 59.8054 276.696C60.0457 276.597 60.3031 276.547 60.5629 276.549Z" fill="#C5C5C5"/>
<path d="M80.9577 429.052H82.0117V364.315L53.8278 325.865V307.325H52.7738V326.202L52.8792 326.35L80.9577 364.663V429.052Z" fill="#C5C5C5"/>
<path d="M53.301 307.894C53.8992 307.894 54.4841 307.717 54.9815 307.385C55.479 307.052 55.8667 306.58 56.0957 306.027C56.3246 305.474 56.3845 304.866 56.2678 304.279C56.1511 303.693 55.863 303.154 55.4399 302.731C55.0169 302.307 54.4779 302.019 53.8911 301.903C53.3043 301.786 52.6961 301.846 52.1433 302.075C51.5906 302.304 51.1182 302.691 50.7858 303.189C50.4534 303.686 50.276 304.271 50.276 304.87C50.2788 305.671 50.5983 306.439 51.165 307.005C51.7317 307.572 52.4995 307.892 53.301 307.894ZM53.301 302.899C53.6908 302.899 54.0718 303.014 54.396 303.231C54.7201 303.447 54.9727 303.755 55.1219 304.115C55.2711 304.475 55.3101 304.872 55.2341 305.254C55.158 305.636 54.9703 305.988 54.6947 306.263C54.419 306.539 54.0678 306.727 53.6855 306.803C53.3031 306.879 52.9068 306.84 52.5467 306.69C52.1865 306.541 51.8787 306.289 51.6621 305.965C51.4455 305.64 51.33 305.259 51.33 304.87C51.3327 304.348 51.5413 303.848 51.9103 303.479C52.2793 303.11 52.7791 302.901 53.301 302.899V302.899Z" fill="#C5C5C5"/>
<path d="M95.1975 316.896H96.2515V429.052H95.1975V316.896Z" fill="#C5C5C5"/>
<path d="M95.7244 317.423C96.3253 317.425 96.9132 317.248 97.4138 316.916C97.9143 316.584 98.305 316.111 98.5364 315.556C98.7678 315.002 98.8294 314.391 98.7135 313.801C98.5975 313.212 98.3092 312.67 97.8851 312.244C97.461 311.819 96.9202 311.529 96.3311 311.411C95.7419 311.293 95.1311 311.352 94.5758 311.582C94.0205 311.811 93.5458 312.2 93.2118 312.7C92.8778 313.199 92.6995 313.786 92.6995 314.387C92.6995 315.19 93.0178 315.961 93.5848 316.53C94.1518 317.099 94.9212 317.42 95.7244 317.423V317.423ZM95.7244 312.416C96.1172 312.414 96.5018 312.529 96.8293 312.746C97.1567 312.963 97.4123 313.272 97.5636 313.634C97.7149 313.997 97.755 314.396 97.6789 314.782C97.6028 315.167 97.4139 315.521 97.1361 315.799C96.8583 316.077 96.5043 316.265 96.119 316.342C95.7336 316.418 95.3343 316.378 94.9718 316.226C94.6093 316.075 94.2999 315.819 94.083 315.492C93.8661 315.164 93.7514 314.78 93.7535 314.387C93.7562 313.865 93.9648 313.366 94.3338 312.996C94.7028 312.627 95.2026 312.419 95.7244 312.416V312.416Z" fill="#C5C5C5"/>
<path d="M101.932 429.052H102.986V371.662L122.116 335.583V270.773H121.062V335.32L101.932 371.398V429.052Z" fill="#C5C5C5"/>
<path d="M121.589 271.3C122.19 271.3 122.777 271.122 123.276 270.788C123.775 270.455 124.164 269.98 124.394 269.426C124.624 268.871 124.684 268.261 124.567 267.672C124.45 267.083 124.16 266.542 123.736 266.118C123.311 265.693 122.771 265.404 122.182 265.287C121.593 265.17 120.983 265.23 120.428 265.46C119.873 265.689 119.399 266.078 119.066 266.578C118.732 267.077 118.554 267.664 118.554 268.264C118.554 269.069 118.874 269.841 119.443 270.411C120.012 270.98 120.784 271.3 121.589 271.3V271.3ZM121.589 266.293C121.982 266.293 122.365 266.41 122.691 266.628C123.018 266.846 123.271 267.156 123.421 267.519C123.571 267.881 123.609 268.28 123.532 268.665C123.455 269.05 123.265 269.403 122.987 269.68C122.709 269.956 122.355 270.144 121.97 270.219C121.584 270.295 121.186 270.254 120.824 270.102C120.462 269.951 120.153 269.695 119.937 269.368C119.72 269.041 119.606 268.656 119.608 268.264C119.608 268.004 119.659 267.747 119.759 267.507C119.859 267.268 120.005 267.05 120.189 266.867C120.373 266.684 120.592 266.539 120.832 266.44C121.072 266.342 121.33 266.292 121.589 266.293V266.293Z" fill="#C5C5C5"/>
<path d="M108.625 429.052H109.679V375.519L132.224 335.636V292.896H131.17V335.362L108.625 375.245V429.052Z" fill="#C5C5C5"/>
<path d="M131.697 293.423C132.299 293.425 132.887 293.249 133.388 292.916C133.889 292.583 134.279 292.109 134.51 291.554C134.741 290.999 134.802 290.388 134.686 289.798C134.569 289.208 134.279 288.666 133.854 288.241C133.429 287.816 132.887 287.527 132.298 287.41C131.708 287.293 131.096 287.354 130.541 287.585C129.986 287.816 129.512 288.207 129.18 288.708C128.847 289.208 128.67 289.797 128.672 290.398C128.675 291.199 128.995 291.967 129.561 292.534C130.128 293.101 130.896 293.42 131.697 293.423ZM131.697 288.417C132.09 288.414 132.474 288.529 132.801 288.745C133.128 288.962 133.384 289.271 133.536 289.632C133.687 289.994 133.728 290.393 133.653 290.778C133.577 291.163 133.389 291.517 133.113 291.795C132.836 292.074 132.483 292.263 132.098 292.341C131.714 292.418 131.315 292.379 130.952 292.23C130.589 292.08 130.279 291.826 130.061 291.5C129.843 291.174 129.726 290.79 129.726 290.398C129.726 289.874 129.934 289.372 130.303 289.001C130.672 288.629 131.174 288.419 131.697 288.417V288.417Z" fill="#C5C5C5"/>
<path d="M263.5 466.637C146.182 466.637 51.0768 459.059 51.0768 449.71C51.0768 440.362 146.182 432.783 263.5 432.783C380.818 432.783 475.923 440.362 475.923 449.71C475.923 459.059 380.818 466.637 263.5 466.637Z" fill="#C5C5C5"/>
<path d="M469.61 429.22H341.949L367.403 281.154H462.864L469.61 429.22Z" fill="#DBDBDB"/>
<path d="M469.61 429.22H458.416L452.134 281.154H462.864L469.61 429.22Z" fill="#A6A6A6"/>
<path d="M484.06 429.8L428.915 429.537L373.78 429.442L263.5 429.273L153.22 429.442L98.0852 429.537L42.9399 429.8L98.0852 430.053L153.22 430.148L263.5 430.317L373.78 430.148L428.915 430.053L484.06 429.8Z" fill="#263238"/>
<path d="M245.561 427.903H253.128V432.846H245.561V427.903Z" fill="#455A64"/>
<path d="M235.737 427.576H243.305V432.519H235.737V427.576Z" fill="#455A64"/>
<path d="M225.925 427.249H233.492V432.193H225.925V427.249Z" fill="#455A64"/>
<path d="M216.101 426.923H223.669V431.866H216.101V426.923Z" fill="#455A64"/>
<path d="M206.289 426.596H213.856V431.539H206.289V426.596Z" fill="#455A64"/>
<path d="M196.465 426.269H204.033V431.213H196.465V426.269Z" fill="#455A64"/>
<path d="M186.653 425.943H194.22V430.886H186.653V425.943Z" fill="#455A64"/>
<path d="M176.829 425.616H184.397V430.559H176.829V425.616Z" fill="#455A64"/>
<path d="M167.017 425.289H174.584V430.232H167.017V425.289Z" fill="#455A64"/>
<path d="M165.162 435.681H254.984V429.674L165.162 427.165V435.681Z" fill="#37474F"/>
<path d="M77.4899 411.966H225.767L202.189 301.57H53.9119L77.4899 411.966Z" fill="#455A64"/>
<path d="M72.0092 411.966H220.286L196.708 301.57H48.4206L72.0092 411.966Z" fill="#37474F"/>
<path d="M122.527 359.077C122.98 361.591 124.282 363.873 126.216 365.543C128.15 367.212 130.598 368.166 133.152 368.247C134.304 368.283 135.451 368.058 136.504 367.588C137.557 367.118 138.49 366.415 139.233 365.532C139.975 364.65 140.508 363.61 140.791 362.492C141.074 361.374 141.1 360.206 140.867 359.077C140.412 356.563 139.11 354.282 137.176 352.613C135.243 350.944 132.795 349.989 130.243 349.907C129.09 349.87 127.944 350.096 126.89 350.566C125.837 351.036 124.904 351.739 124.162 352.621C123.419 353.504 122.886 354.543 122.603 355.661C122.32 356.779 122.294 357.947 122.527 359.077Z" fill="#263238"/>
<path d="M141.141 322.608L144.714 339.367H147.95L144.377 322.608H141.141Z" fill="#263238"/>
<path d="M134.237 322.608L137.81 339.367H141.057L137.484 322.608H134.237Z" fill="#263238"/>
<path d="M127.344 322.608L130.917 339.367H134.153L130.58 322.608H127.344Z" fill="#263238"/>
<path d="M120.44 322.608L124.013 339.367H127.26L123.687 322.608H120.44Z" fill="#263238"/>
<path d="M113.547 322.608L117.12 339.367H120.356L116.783 322.608H113.547Z" fill="#263238"/>
<path d="M106.644 322.608L110.217 339.367H113.463L109.89 322.608H106.644Z" fill="#263238"/>
<path d="M116.056 440.793H188.982V435.133L116.056 432.772V440.793Z" fill="#455A64"/>
<path d="M96.2195 440.783H135.376L158.964 378.934H119.808L96.2195 440.783Z" fill="#455A64"/>
<path d="M89.7796 440.783H128.936L152.514 378.934H113.358L89.7796 440.783Z" fill="#263238"/>
<path d="M238.436 442.301H313.628C320.047 442.301 310.761 424.035 287.341 417.005C263.921 409.974 231.047 435.45 238.436 442.301Z" fill="#37474F"/>
<path d="M267.937 442.301C267.865 440.221 267.511 438.161 266.883 436.177C266.274 434.174 265.425 432.252 264.354 430.454C263.279 428.645 261.935 427.01 260.37 425.605C258.819 424.207 257.035 423.09 255.1 422.306C255.911 422.96 256.828 423.423 257.566 424.14L258.725 425.12L259.779 426.174C261.177 427.63 262.401 429.243 263.426 430.981C264.466 432.716 265.358 434.535 266.093 436.419C266.845 438.334 267.461 440.299 267.937 442.301V442.301Z" fill="#263238"/>
<path d="M259.031 424.92C254.576 426.385 250.358 428.491 246.509 431.17C244.554 432.515 242.782 434.11 241.239 435.913C240.483 436.833 239.829 437.834 239.29 438.896C238.773 439.962 238.473 441.119 238.404 442.301C238.663 441.177 239.116 440.107 239.743 439.139C240.349 438.171 241.056 437.27 241.851 436.451C243.461 434.812 245.226 433.333 247.121 432.035C248.986 430.685 250.957 429.484 252.939 428.293C253.93 427.703 254.941 427.134 255.964 426.575C256.986 426.016 257.998 425.468 259.031 424.92Z" fill="#263238"/>
<path d="M369.006 212.181C372.589 205.235 385.427 190.816 400.72 198.531C422.528 209.546 413.632 254.984 421.316 272.016C435.228 302.877 429.062 327.942 410.902 327.225C390.539 326.413 377.575 300.769 390.486 256.544C398.57 228.887 394.122 214.384 388.378 213.72C382.634 213.056 377.659 219.2 377.659 219.2L369.006 212.181Z" fill="#263238"/>
<path d="M370.544 209.62C372.632 206.501 375.088 203.645 377.859 201.114C380.661 198.502 383.979 196.506 387.598 195.254C391.33 193.995 395.363 193.94 399.129 195.095C402.86 196.243 406.259 198.275 409.036 201.019C411.725 203.819 413.784 207.161 415.076 210.821C416.334 214.406 417.179 218.122 417.595 221.899C418.297 229.363 418.159 236.883 417.184 244.317C417.331 236.898 416.926 229.479 415.972 222.12C415.412 218.522 414.487 214.99 413.21 211.58C411.974 208.205 410.042 205.127 407.54 202.547C405.01 200.023 401.918 198.134 398.517 197.035C395.138 195.915 391.497 195.856 388.083 196.866C384.595 197.92 381.348 199.646 378.523 201.946C377.045 203.071 375.637 204.286 374.307 205.583C373.032 206.848 371.767 208.218 370.544 209.62Z" fill="#263238"/>
<path d="M394.565 241.197C393.595 245.666 392.13 250.009 390.834 254.393C389.537 258.778 388.136 263.11 386.923 267.495C385.711 271.879 384.647 276.285 383.888 280.743C383.07 285.172 382.686 289.669 382.739 294.171C382.735 298.62 383.572 303.029 385.205 307.167C387.007 311.245 389.504 314.979 392.583 318.203C395.661 321.46 399.463 323.944 403.682 325.454C405.801 326.222 408.013 326.704 410.259 326.888C411.389 326.972 412.523 326.972 413.653 326.888C414.791 326.865 415.92 326.677 417.005 326.329C414.841 327.138 412.535 327.496 410.227 327.383C407.904 327.332 405.597 326.978 403.366 326.329C401.126 325.672 398.976 324.737 396.968 323.546C394.966 322.332 393.106 320.897 391.424 319.267C389.742 317.639 388.221 315.853 386.881 313.934L385.912 312.479L384.995 310.983C384.384 309.966 383.842 308.909 383.371 307.821C381.591 303.471 380.66 298.819 380.631 294.119C380.505 284.77 382.644 275.674 385.353 266.936C386.713 262.551 388.262 258.241 389.854 253.961C391.445 249.682 393.142 245.582 394.565 241.197Z" fill="#263238"/>
<path d="M367.656 211.938C367.962 209.83 369.965 207.364 371.398 207.227C372.831 207.09 382.201 213.224 382.613 215.986C383.024 218.747 378.112 220.202 378.112 220.202L367.656 211.938Z" fill="#5BA4A4"/>
<path d="M366.739 310.034C335.657 328.848 291.958 348.147 276.686 345.29C264.312 342.993 217.978 309.307 215.67 307.346C209.967 302.53 237.161 259.495 244.043 263.553C252.718 268.654 285.792 300.78 289.555 300.791C293.476 300.791 321.46 297.049 353.564 292.359C375.751 289.207 386.028 298.398 366.739 310.034Z" fill="#AD6359"/>
<path d="M293.539 297.513L329.523 331.673C329.523 331.673 353.427 321.069 371.398 308.284C389.369 295.499 370.829 287.594 341.159 290.704C311.489 293.813 293.539 297.513 293.539 297.513Z" fill="#5BA4A4"/>
<path d="M338.102 327.604L338.576 327.372C338.576 327.299 338.576 327.235 338.576 327.162C338.697 324.279 339.269 321.434 340.273 318.73C340.784 317.405 341.67 316.258 342.824 315.431C343.414 315.055 344.074 314.8 344.763 314.682C345.464 314.611 346.168 314.586 346.871 314.608C349.751 314.753 352.593 315.324 355.303 316.305C356.052 316.569 356.8 316.853 357.538 317.159L357.949 316.917C357.116 316.569 356.284 316.242 355.44 315.937C352.682 314.934 349.791 314.345 346.861 314.187C346.122 314.163 345.382 314.191 344.647 314.271C343.898 314.392 343.181 314.665 342.539 315.072C341.311 315.944 340.366 317.157 339.82 318.561C338.785 321.306 338.194 324.199 338.071 327.13L338.102 327.604ZM313.47 294.161L313.628 294.593C314.946 298.103 316.601 301.634 319.467 304.079C320.911 305.276 322.666 306.037 324.527 306.271C326.399 306.436 328.28 306.071 329.955 305.217C333.359 303.594 336.152 300.938 338.808 298.271C341.464 295.605 343.836 292.886 346.387 290.229H346.576C344.015 292.938 341.549 295.742 338.935 298.43C336.395 301.268 333.39 303.652 330.05 305.481C328.34 306.384 326.399 306.754 324.477 306.544C322.556 306.333 320.741 305.552 319.267 304.3C316.337 301.771 314.672 298.198 313.323 294.688C313.259 294.519 313.196 294.361 313.143 294.192L313.47 294.161ZM332.442 330.313C330.566 331.198 329.491 331.673 329.491 331.673C330.461 331.177 331.472 330.745 332.474 330.313H332.442Z" fill="white"/>
<path d="M338.429 325.412C331.167 317.518 323.346 310.118 315.399 302.899C313.158 300.854 310.863 298.862 308.516 296.922C308.503 296.914 308.487 296.91 308.471 296.911C308.455 296.913 308.44 296.919 308.428 296.93C308.416 296.941 308.408 296.955 308.405 296.971C308.402 296.987 308.404 297.003 308.411 297.017C312.121 300.875 315.989 304.595 319.836 308.327C323.683 312.058 327.573 315.789 331.536 319.425C333.77 321.481 335.994 323.536 338.281 325.549C338.334 325.686 338.524 325.507 338.429 325.412Z" fill="#263238"/>
<path opacity="0.1" d="M314.566 317.475L329.523 331.673C329.523 331.673 353.427 321.07 371.398 308.284C378.713 303.078 379.978 298.683 376.91 295.521L314.566 317.475Z" fill="black"/>
<path d="M316.98 429.41H437.273C437.273 429.41 411.144 328.5 386.966 300.084C386.428 299.431 385.912 298.82 385.3 298.24C385.184 298.103 385.089 298.008 384.973 297.892C383.103 295.89 380.921 294.203 378.512 292.896C378.091 292.664 377.669 292.453 377.227 292.253C367.909 287.974 358.075 291.526 350.971 297.597C348.716 299.526 323.22 332.706 320.964 345.354C319.014 356.516 326.561 368.542 326.561 368.542L316.98 429.41Z" fill="#5BA4A4"/>
<path d="M344.658 364.189C349.764 364.683 354.826 365.553 359.804 366.792C362.281 367.446 364.705 368.215 367.129 369.037C368.341 369.438 369.554 369.806 370.776 370.175C372.044 370.589 373.357 370.848 374.687 370.945C374.705 370.951 374.721 370.963 374.733 370.979C374.744 370.996 374.75 371.015 374.75 371.034C374.75 371.054 374.744 371.073 374.733 371.089C374.721 371.105 374.705 371.118 374.687 371.124C373.425 371.182 372.16 371.15 370.903 371.029C369.69 370.869 368.49 370.629 367.309 370.312C364.8 369.669 362.313 368.911 359.804 368.204C354.745 366.855 349.696 365.506 344.542 364.526C344.31 364.568 344.374 364.168 344.658 364.189Z" fill="#263238"/>
<path d="M331.905 368.626C336.132 368.22 340.38 368.051 344.626 368.12C346.734 368.12 348.842 368.331 350.95 368.552C351.952 368.668 352.964 368.784 353.965 368.921C354.966 369.058 356.157 369.374 357.264 369.511C357.38 369.511 357.38 369.701 357.264 369.691C356.21 369.596 355.156 369.691 354.102 369.638L350.94 369.532C348.832 369.459 346.724 369.416 344.616 369.322C340.4 369.142 336.184 369.005 331.915 368.974C331.662 368.974 331.683 368.647 331.905 368.626Z" fill="#263238"/>
<g opacity="0.1">
<path opacity="0.1" d="M356.147 352.036C355.787 352.235 355.515 352.563 355.386 352.954C355.257 353.345 355.28 353.77 355.451 354.144C355.557 354.294 355.696 354.418 355.856 354.507C356.017 354.597 356.195 354.649 356.379 354.66C356.819 354.7 357.258 354.584 357.622 354.334L366.645 348.178C366.718 348.178 366.76 348.115 366.813 348.052H366.897C366.95 347.994 366.996 347.93 367.035 347.862C367.079 347.849 367.117 347.819 367.14 347.778C367.14 347.778 367.203 347.662 367.235 347.641C367.266 347.62 367.309 347.546 367.319 347.525L367.372 347.356C367.403 347.315 367.428 347.268 367.446 347.219C367.44 347.181 367.44 347.142 367.446 347.103L367.498 346.935C367.498 346.882 367.498 346.861 367.498 346.829C367.498 346.798 367.498 346.713 367.498 346.64C367.498 346.566 367.498 346.64 367.498 346.64C367.505 346.566 367.505 346.492 367.498 346.418C367.498 346.418 367.498 346.366 367.498 346.366C367.488 346.297 367.454 346.234 367.403 346.186L362.808 338.808C362.539 338.501 362.162 338.31 361.755 338.275C361.349 338.239 360.944 338.362 360.626 338.619C360.266 338.818 359.994 339.146 359.865 339.536C359.736 339.927 359.76 340.352 359.931 340.727L363.82 346.914L356.147 352.036Z" fill="black"/>
<path opacity="0.1" d="M349.717 352.215L348.305 337.86C348.279 337.691 348.214 337.53 348.116 337.39C348.018 337.25 347.89 337.135 347.74 337.052C347.59 336.97 347.424 336.923 347.253 336.915C347.083 336.907 346.912 336.938 346.756 337.006C346.399 337.102 346.084 337.316 345.863 337.612C345.641 337.908 345.525 338.27 345.533 338.64L346.945 353.016C346.981 353.255 347.098 353.475 347.277 353.638C347.455 353.801 347.684 353.898 347.926 353.912C348.092 353.947 348.265 353.947 348.432 353.912C348.811 353.826 349.148 353.608 349.384 353.298C349.619 352.988 349.737 352.604 349.717 352.215V352.215Z" fill="black"/>
<path opacity="0.1" d="M331.441 344.848C331.472 344.912 331.511 344.972 331.557 345.027L336.152 352.405C336.264 352.557 336.408 352.684 336.574 352.775C336.739 352.866 336.923 352.919 337.112 352.932C337.545 352.96 337.976 352.841 338.334 352.595C338.696 352.397 338.969 352.07 339.099 351.678C339.228 351.287 339.203 350.861 339.03 350.487L335.141 344.3L342.74 339.146C343.1 338.946 343.372 338.619 343.501 338.228C343.63 337.837 343.606 337.412 343.436 337.038C343.167 336.73 342.789 336.539 342.383 336.504C341.976 336.468 341.572 336.592 341.254 336.848L332.242 343.003C332.164 343.045 332.089 343.094 332.021 343.151C332.021 343.151 332.021 343.151 332.021 343.151C331.951 343.215 331.888 343.286 331.831 343.362C331.831 343.362 331.831 343.362 331.831 343.362C331.788 343.436 331.738 343.506 331.683 343.572C331.683 343.572 331.683 343.572 331.683 343.636L331.631 343.804L331.567 343.92C331.567 343.92 331.567 344.015 331.567 344.036V344.226C331.567 344.226 331.567 344.226 331.567 344.279C331.572 344.352 331.572 344.426 331.567 344.5C331.567 344.5 331.567 344.5 331.567 344.574L331.441 344.848Z" fill="black"/>
</g>
<path d="M323.989 384.836C324.156 384.938 324.328 385.03 324.506 385.111L325.56 385.574C325.897 385.722 326.255 385.817 326.614 385.943C327.301 386.171 328.006 386.344 328.722 386.46C330.198 386.666 331.7 386.569 333.138 386.175C333.849 385.937 334.516 385.581 335.109 385.121C335.683 384.637 336.183 384.073 336.595 383.445C337.399 382.202 338 380.84 338.376 379.408C339.104 376.574 339.524 373.669 339.63 370.745C339.63 370.239 339.63 369.691 339.63 369.227C339.63 369.037 339.63 368.847 339.63 368.658C339.778 363.525 339.525 358.402 339.251 353.29C338.935 347.483 338.513 341.696 338.387 335.878C338.387 333.328 338.324 330.766 338.471 328.226C338.471 328.11 338.471 327.994 338.471 327.878C338.471 327.762 338.471 327.425 338.471 327.193C338.591 324.311 339.164 321.466 340.168 318.761C340.679 317.436 341.565 316.29 342.719 315.462C343.309 315.086 343.968 314.832 344.658 314.714C345.358 314.642 346.063 314.618 346.766 314.64C349.645 314.784 352.487 315.356 355.198 316.337C357.042 316.998 358.85 317.754 360.616 318.603L361.027 318.793C364.347 320.395 367.551 322.25 370.723 324.137C375.719 327.109 380.631 330.229 385.796 332.927C387.556 333.833 389.337 334.698 391.161 335.457L391.371 335.551C392.158 335.875 392.959 336.18 393.774 336.468C396.522 337.482 399.408 338.069 402.333 338.208C403.944 338.241 405.551 338.027 407.097 337.575C407.097 337.501 407.097 337.438 407.013 337.375C405.49 337.799 403.913 337.995 402.333 337.955C399.449 337.799 396.606 337.206 393.901 336.194C393.11 335.91 392.32 335.604 391.54 335.288L391.319 335.193C389.495 334.424 387.714 333.57 385.964 332.653C380.831 329.955 375.93 326.824 370.934 323.831C367.846 321.997 364.716 320.174 361.448 318.561L361.048 318.361C359.19 317.459 357.286 316.654 355.346 315.947C352.588 314.945 349.696 314.355 346.766 314.197C346.027 314.173 345.288 314.202 344.553 314.282C343.803 314.403 343.086 314.676 342.445 315.083C341.216 315.954 340.271 317.168 339.725 318.572C338.69 321.317 338.1 324.209 337.976 327.141C337.976 327.446 337.976 327.752 337.923 328.058C337.913 328.17 337.913 328.283 337.923 328.395C337.775 330.893 337.775 333.391 337.818 335.878C337.934 341.707 338.334 347.472 338.65 353.311C338.914 358.202 339.167 363.092 339.072 367.972C339.072 368.162 339.072 368.352 339.072 368.542C339.072 369.269 339.072 369.986 338.998 370.713C338.903 373.601 338.497 376.47 337.786 379.271C337.427 380.657 336.851 381.977 336.079 383.182C335.686 383.77 335.214 384.302 334.677 384.763C334.135 385.218 333.518 385.574 332.853 385.817C331.482 386.195 330.047 386.292 328.637 386.101C327.923 385.99 327.218 385.824 326.529 385.606C326.192 385.479 325.855 385.385 325.475 385.248L324.506 384.805L323.873 384.478L323.989 384.836ZM321.059 344.911C323.392 347.251 325.598 349.714 327.668 352.289C331.757 357.338 335.478 362.66 339.262 367.972L339.736 368.647L341.138 370.629C343.731 374.286 346.355 377.954 349.138 381.474C349.211 381.569 349.285 381.674 349.369 381.769C351.203 384.078 353.101 386.323 355.124 388.462C357.675 391.245 360.52 393.744 363.609 395.914C364.37 396.465 365.161 396.972 365.98 397.432C366.782 397.938 367.635 398.338 368.468 398.77C370.106 399.66 372.003 399.951 373.833 399.592C375.639 399.128 377.297 398.21 378.65 396.926C380.037 395.658 381.285 394.244 382.37 392.71C384.538 389.621 386.455 386.365 388.104 382.971C391.487 376.204 394.365 369.195 397.337 362.239C400.211 355.221 403.469 348.366 407.097 341.707C407.466 341.064 407.845 340.431 408.235 339.799L408.457 340.347C408.13 340.874 407.814 341.401 407.508 341.949C403.901 348.597 400.667 355.441 397.822 362.45C394.828 369.395 391.941 376.404 388.536 383.182C386.863 386.595 384.924 389.873 382.739 392.984C381.629 394.537 380.357 395.968 378.945 397.253C377.534 398.587 375.802 399.535 373.917 400.004C371.998 400.377 370.008 400.071 368.289 399.139C367.435 398.707 366.571 398.296 365.77 397.79C364.969 397.284 364.147 396.799 363.367 396.251C360.267 394.046 357.406 391.524 354.829 388.726C352.827 386.618 350.929 384.341 349.116 382.043C349.032 381.949 348.958 381.843 348.885 381.748C346.081 378.196 343.457 374.507 340.853 370.818L339.715 369.206L339.251 368.531C335.436 363.092 331.662 357.633 327.478 352.468C325.461 349.952 323.312 347.545 321.038 345.259C321.006 345.143 321.027 345.027 321.059 344.911V344.911ZM378.818 421.041C383.519 415.118 388.136 409.089 393.226 403.482C398.317 397.874 403.956 392.583 410.86 389.295C412.592 388.514 414.405 387.927 416.267 387.545C417.2 387.352 418.143 387.211 419.092 387.124C420.038 387.053 420.989 387.036 421.937 387.071C422.996 387.091 424.053 387.183 425.099 387.345L425.163 387.535C424.116 387.371 423.06 387.279 422.001 387.261C421.059 387.234 420.116 387.256 419.176 387.324C418.241 387.418 417.312 387.566 416.393 387.767C414.548 388.15 412.752 388.741 411.039 389.527C404.209 392.805 398.591 398.117 393.532 403.682C388.473 409.247 383.856 415.276 379.166 421.252C376.995 423.993 374.802 426.733 372.536 429.41H372.052C374.318 426.67 376.573 423.856 378.818 421.041V421.041ZM321.017 403.756C321.744 405.695 322.45 407.624 323.125 409.563C325.539 416.214 327.868 422.896 330.619 429.41H330.092C327.362 422.949 325.043 416.33 322.629 409.743C322.029 408.098 321.417 406.444 320.806 404.799L321.017 403.756ZM332.01 414.296C332.105 413.748 332.189 413.189 332.305 412.63L332.685 410.986C332.906 409.932 333.254 408.815 333.559 407.729C334.873 403.421 336.68 399.28 338.945 395.387C341.793 390.512 345.103 385.924 348.832 381.685C348.922 381.596 349.007 381.5 349.085 381.4C351.193 378.966 353.406 376.626 355.641 374.318C361.965 367.899 368.542 361.838 374.866 355.483C378.028 352.321 381.105 349.053 384.036 345.659C384.773 344.816 385.501 343.962 386.207 343.098C386.913 342.234 387.619 341.359 388.315 340.453C389.48 338.85 390.5 337.146 391.361 335.362C391.413 335.279 391.456 335.191 391.487 335.098C391.566 334.962 391.636 334.821 391.698 334.677C393.554 330.593 394.537 326.166 394.586 321.681C394.615 317.196 393.932 312.735 392.562 308.464C392.404 307.947 392.225 307.41 392.046 306.914L392.288 307.294C392.422 307.673 392.548 308.053 392.668 308.432C394.066 312.709 394.778 317.181 394.776 321.681C394.741 326.195 393.768 330.653 391.919 334.771C391.856 334.919 391.793 335.056 391.719 335.193C391.688 335.288 391.642 335.377 391.582 335.457C390.719 337.26 389.7 338.985 388.536 340.611C387.883 341.528 387.176 342.402 386.428 343.267C385.68 344.131 385.005 344.995 384.267 345.838C381.337 349.243 378.249 352.5 375.098 355.693C368.774 362.017 362.165 368.141 355.915 374.549C353.659 376.868 351.446 379.25 349.338 381.696C349.243 381.79 349.169 381.885 349.085 381.98C345.392 386.181 342.116 390.731 339.304 395.566C337.052 399.458 335.256 403.596 333.949 407.898C333.654 408.952 333.317 410.006 333.096 411.134L332.716 412.767C332.611 413.316 332.527 413.874 332.421 414.422C331.375 419.515 332.12 424.813 334.529 429.421H334.023C331.663 424.77 330.957 419.454 332.021 414.348L332.01 414.296ZM326.066 333.138L326.645 332.853C330.397 331.061 334.223 329.47 338.081 327.952L338.545 327.762C341.886 326.445 345.248 325.17 348.579 323.852C352.247 322.387 355.894 320.88 359.435 319.151L360.774 318.477L361.195 318.255C364.131 316.771 366.916 315.006 369.511 312.985C372.661 310.62 375.264 307.604 377.142 304.142C378.061 302.416 378.728 300.566 379.124 298.651C379.47 296.885 379.569 295.079 379.419 293.286C379.571 293.37 379.719 293.461 379.862 293.56C379.974 295.289 379.865 297.024 379.535 298.725C379.12 300.681 378.432 302.568 377.49 304.332C375.579 307.835 372.937 310.887 369.743 313.28C367.188 315.234 364.461 316.952 361.596 318.413L361.185 318.624L359.593 319.425C356.031 321.164 352.373 322.661 348.705 324.116C345.322 325.454 341.907 326.729 338.524 328.068L338.06 328.247C334.245 329.744 330.471 331.304 326.772 333.075L325.823 333.528C325.907 333.517 325.992 333.37 326.066 333.222V333.138Z" fill="white"/>
<path d="M391.35 302.677C412.198 324.158 462.369 405.305 446.907 420.725C431.444 436.145 345.153 426.501 321.354 421.937C313.407 420.409 332.505 368.046 341.064 366.813C348.199 365.759 390.317 373.959 391.772 372.083C392.952 370.586 384.489 351.003 375.087 319.383C364.241 283.02 382.138 293.181 391.35 302.677Z" fill="#AD6359"/>
<path d="M300.242 359.836C282.324 360.067 277.75 362.882 262.52 355.04C252.528 349.896 244.95 354.07 251.664 363.641C262.646 379.292 285.834 383.856 294.329 383.118L300.242 359.836Z" fill="#AD6359"/>
<path d="M349.443 369.627C349.443 369.627 328.057 361.68 308.927 360.036C295.7 358.898 266.641 359.635 243.664 391.919C238.214 399.571 235.875 414.349 249.324 405.073C258.873 398.496 262.931 391.424 269.192 388.61C269.192 388.61 268.443 407.761 276.327 412.915C283.221 417.43 290.428 421.449 297.892 424.941C298.842 423.718 299.715 422.436 300.506 421.105C300.506 421.105 308.327 425.236 321.354 421.958L349.443 369.627Z" fill="#AD6359"/>
<path d="M296.174 360.963C290.556 365.074 278.804 373.991 271.721 384.626C263.858 396.43 251.895 421.305 260.675 427.018C267.115 431.234 272.512 422.116 272.512 422.116C272.512 422.116 269.74 433.436 276.38 435.955C282.43 438.243 286.193 430.96 286.193 430.96C286.193 430.96 285.687 438.116 291.937 439.202C299.463 440.498 299.315 425.289 308.053 420.019C309.971 418.839 296.174 360.963 296.174 360.963Z" fill="#AD6359"/>
<path d="M285.55 390.844C280.902 395.577 273.102 409.036 272.333 421.853C272.333 422.148 272.533 422.317 272.596 422.053C275.667 411.186 280.045 400.731 285.634 390.918C285.697 390.855 285.634 390.792 285.55 390.844Z" fill="#263238"/>
<path d="M297.228 399.129C293.634 403.629 286.224 417.848 285.887 430.875C285.887 431.16 286.108 431.318 286.172 431.054C288.68 420.049 292.428 409.363 297.344 399.203C297.347 399.188 297.345 399.173 297.339 399.159C297.334 399.146 297.324 399.134 297.311 399.126C297.299 399.118 297.284 399.114 297.269 399.115C297.254 399.115 297.24 399.12 297.228 399.129V399.129Z" fill="#263238"/>
<path d="M269.171 388.494C263.7 391.055 260.412 394.428 256.091 398.517C253.983 400.568 251.763 402.5 249.44 404.304C247.332 405.917 244.17 408.351 241.366 406.749C239.817 405.864 239.532 403.861 239.606 402.238C239.658 400.407 240.108 398.609 240.923 396.968C240.923 396.894 240.818 396.81 240.776 396.894C239.984 398.335 239.406 399.883 239.058 401.49C238.656 402.986 238.711 404.568 239.216 406.032C240.544 409.057 244.328 408.899 246.826 407.635C248.323 406.822 249.736 405.862 251.042 404.768C252.307 403.714 253.519 402.66 254.71 401.606C257.145 399.361 259.453 396.968 261.866 394.691C264.222 392.527 266.715 390.517 269.329 388.673C269.381 388.599 269.276 388.441 269.171 388.494Z" fill="#263238"/>
<path d="M260.254 410.449C261.234 406.96 267.179 392.151 269.308 388.61C269.316 388.592 269.318 388.571 269.313 388.552C269.308 388.532 269.296 388.515 269.28 388.504C269.263 388.492 269.243 388.487 269.223 388.489C269.203 388.491 269.184 388.5 269.171 388.515C265.355 393.427 259.906 405.748 258.778 409.595C257.65 413.442 256.459 418.238 257.071 422.243C257.977 428.219 262.119 428.746 263.627 428.809C265.413 428.858 267.161 428.293 268.58 427.207C270.226 425.813 271.571 424.099 272.533 422.169C272.586 422.074 272.459 421.979 272.396 422.074C270.688 424.741 267.6 427.597 264.291 427.66C263.561 427.701 262.831 427.595 262.143 427.349C261.455 427.103 260.823 426.721 260.285 426.227C259.18 424.924 258.581 423.266 258.599 421.558C258.517 417.788 259.076 414.031 260.254 410.449V410.449Z" fill="#263238"/>
<path d="M285.898 430.875C285.181 431.708 283.842 434.448 281.197 435.397C280.27 435.805 279.259 435.982 278.249 435.913C277.239 435.843 276.261 435.528 275.4 434.996C273.781 433.749 272.715 431.918 272.427 429.895C272.261 427.325 272.293 424.745 272.522 422.18C272.522 422.053 272.385 422.022 272.364 422.18C271.766 424.926 271.577 427.747 271.806 430.548C271.93 431.647 272.273 432.71 272.817 433.674C273.36 434.637 274.091 435.481 274.968 436.156C275.908 436.802 277.009 437.177 278.149 437.238C279.289 437.299 280.424 437.045 281.429 436.504C282.483 435.945 285.465 433.278 286.119 431.002C286.161 430.907 285.929 430.833 285.898 430.875Z" fill="#263238"/>
<path d="M307.283 419.028C306.452 419.785 305.71 420.634 305.07 421.558C304.353 422.485 303.679 423.455 303.015 424.425C301.711 426.415 300.617 428.534 299.747 430.749C298.841 432.962 298.082 435.386 296.322 437.073C295.496 437.926 294.422 438.498 293.252 438.706C292.083 438.914 290.878 438.748 289.808 438.232C288.684 437.641 287.798 436.681 287.299 435.513C286.694 434.254 286.336 432.891 286.245 431.497C286.245 431.475 286.236 431.453 286.221 431.437C286.205 431.422 286.183 431.413 286.161 431.413C286.139 431.413 286.117 431.422 286.101 431.437C286.086 431.453 286.077 431.475 286.077 431.497C286.047 432.75 286.139 434.003 286.351 435.239C286.633 436.357 287.204 437.382 288.006 438.211C288.853 439.007 289.903 439.554 291.041 439.792C292.179 440.03 293.361 439.95 294.456 439.56C296.88 438.717 298.43 436.567 299.473 434.29C300.632 431.792 301.518 429.199 302.793 426.754C303.468 425.468 304.121 424.172 304.901 422.939C305.681 421.705 306.714 420.546 307.441 419.176C307.494 419.07 307.389 418.944 307.283 419.028Z" fill="#263238"/>
<path d="M315.051 423.065C311.732 423.208 308.408 423.032 305.122 422.538C305.017 422.538 304.922 422.823 305.017 422.854C306.642 423.322 308.314 423.604 310.003 423.697C311.699 423.8 313.4 423.647 315.051 423.244C315.146 423.223 315.146 423.055 315.051 423.065Z" fill="#263238"/>
<path d="M434.891 390.128C429.694 386.782 424.262 383.816 418.638 381.253C413.075 378.724 407.333 376.611 401.458 374.929C398.117 373.938 394.734 373.105 391.361 372.262C391.348 372.258 391.334 372.256 391.321 372.258C391.307 372.259 391.294 372.264 391.283 372.272C391.272 372.28 391.263 372.29 391.257 372.302C391.25 372.314 391.247 372.328 391.247 372.341C391.247 372.355 391.25 372.368 391.257 372.38C391.263 372.392 391.272 372.403 391.283 372.411C391.294 372.418 391.307 372.423 391.321 372.425C391.334 372.427 391.348 372.425 391.361 372.42C397.258 374.126 403.051 376.174 408.71 378.555C414.331 380.866 419.931 383.273 425.51 385.775C428.672 387.197 431.729 388.768 434.817 390.296C434.833 390.29 434.848 390.281 434.861 390.27C434.874 390.258 434.884 390.244 434.891 390.228C434.897 390.212 434.901 390.195 434.901 390.178C434.901 390.161 434.898 390.143 434.891 390.128Z" fill="#263238"/>
<path d="M434.174 353.459L384.563 352.774C384.563 352.774 374.866 328.479 370.934 306.777C367.003 285.075 384.963 291.378 404.019 314.324C423.076 337.269 434.174 353.459 434.174 353.459Z" fill="#5BA4A4"/>
<path d="M375.72 326.614C375.72 326.772 375.804 326.93 375.857 327.088C379.177 329.101 382.507 331.083 385.954 332.885C387.714 333.791 389.495 334.656 391.319 335.414L391.53 335.509C392.317 335.833 393.118 336.138 393.933 336.426C396.68 337.44 399.566 338.027 402.491 338.165C405.336 338.226 408.146 337.524 410.628 336.131L410.881 335.994L411.682 335.509C413.736 334.138 415.549 332.435 417.047 330.471L416.973 330.366C415.582 332.153 413.93 333.72 412.072 335.014C411.697 335.283 411.307 335.53 410.902 335.752L410.786 335.826C408.266 337.274 405.397 338.003 402.491 337.934C399.607 337.778 396.764 337.185 394.059 336.173C393.269 335.889 392.478 335.583 391.698 335.267L391.477 335.172C389.653 334.403 387.872 333.549 386.123 332.632C382.602 330.756 379.134 328.69 375.72 326.614ZM407.044 341.696C408.131 339.774 409.327 337.916 410.628 336.131L410.902 335.752C411.771 334.602 412.711 333.507 413.716 332.474C414.614 331.545 415.615 330.721 416.699 330.018L416.973 330.366C415.908 331.065 414.926 331.882 414.043 332.801C413.347 333.507 412.694 334.245 412.072 335.014L411.682 335.509C410.124 337.548 408.715 339.697 407.466 341.939C405.421 345.533 403.608 349.243 401.901 353.016H401.353C403.092 349.159 404.947 345.364 407.044 341.696ZM384.036 345.712C384.773 344.869 385.501 344.015 386.207 343.151C386.913 342.287 387.619 341.412 388.315 340.505C389.48 338.903 390.5 337.199 391.361 335.414C391.414 335.332 391.456 335.244 391.487 335.151C391.566 335.015 391.636 334.874 391.698 334.729C393.554 330.645 394.537 326.219 394.586 321.734C394.615 317.249 393.932 312.787 392.562 308.516C391.551 305.314 390.275 302.201 388.747 299.21C388.794 299.234 388.837 299.266 388.873 299.304C390.39 302.255 391.659 305.325 392.668 308.485C394.066 312.762 394.778 317.234 394.776 321.734C394.741 326.248 393.768 330.706 391.92 334.824C391.856 334.972 391.793 335.109 391.719 335.246C391.689 335.341 391.642 335.43 391.582 335.509C390.719 337.313 389.7 339.037 388.536 340.663C387.883 341.58 387.177 342.455 386.428 343.319C385.68 344.184 385.005 345.048 384.267 345.891C383.74 346.503 383.213 347.103 382.676 347.704C382.676 347.609 382.602 347.514 382.56 347.409C383.045 346.85 383.54 346.281 384.036 345.712ZM377.142 304.269C378.061 302.542 378.729 300.693 379.124 298.777C379.431 297.202 379.544 295.595 379.461 293.992C379.604 294.034 379.745 294.083 379.883 294.14C379.957 295.719 379.84 297.3 379.535 298.851C379.12 300.807 378.432 302.695 377.49 304.458C376.053 307.144 374.159 309.558 371.894 311.594L371.799 311.162C373.959 309.185 375.766 306.854 377.142 304.269V304.269Z" fill="white"/>
<path d="M386.607 352.563C386.333 352.563 384.583 352.3 384.583 352.3C384.446 351.657 381.421 341.475 380.631 339.272C379.029 334.761 377.163 330.334 375.361 325.907C375.346 325.884 375.324 325.867 375.298 325.858C375.272 325.849 375.243 325.848 375.217 325.857C375.191 325.865 375.168 325.882 375.152 325.904C375.136 325.927 375.128 325.954 375.129 325.981C376.32 329.797 377.448 333.644 378.671 337.449C378.312 336.911 377.964 336.395 377.617 335.825C376.921 334.698 376.31 333.538 375.656 332.389C375.645 332.366 375.625 332.347 375.6 332.338C375.575 332.33 375.548 332.331 375.524 332.342C375.501 332.353 375.482 332.373 375.473 332.398C375.464 332.423 375.466 332.45 375.477 332.474C376.035 334.074 376.8 335.594 377.754 336.995C378.153 337.598 378.593 338.172 379.071 338.713C379.176 339.03 379.271 339.356 379.377 339.673C380.125 341.897 383.972 352.9 384.162 352.9H386.554C386.702 352.9 386.744 352.563 386.607 352.563Z" fill="#263238"/>
<path d="M425.964 344.015C415.255 343.425 404.494 343.572 393.764 343.941C390.728 344.047 387.693 344.222 384.657 344.468C384.573 344.468 384.562 344.605 384.657 344.605C390.001 344.795 395.366 344.753 400.72 344.753C406.075 344.753 411.482 344.753 416.857 344.542C419.893 344.447 422.918 344.363 425.953 344.215C425.975 344.21 425.994 344.197 426.008 344.18C426.022 344.163 426.03 344.141 426.031 344.119C426.032 344.097 426.026 344.075 426.014 344.056C426.002 344.037 425.984 344.023 425.964 344.015V344.015Z" fill="#263238"/>
<path d="M372.958 293.276C372.589 295.384 363.388 309.623 353.765 309.75C350.603 309.75 349.686 292.685 349.686 292.685L349.327 291.442L344.321 274.04L364.294 259.484L367.193 257.545C367.193 257.545 368.247 262.404 369.49 268.475C369.554 268.749 369.617 269.034 369.67 269.339C369.722 269.645 369.838 270.003 369.891 270.319C370.091 271.226 370.291 272.153 370.471 273.07C370.608 273.777 370.745 274.462 370.871 275.178C370.998 275.895 371.124 276.643 371.261 277.392C372.191 282.641 372.758 287.948 372.958 293.276V293.276Z" fill="#AD6359"/>
<path d="M369.49 268.433C368 273.501 365.425 278.185 361.943 282.158C358.461 286.131 354.156 289.299 349.327 291.442L344.321 274.04L364.294 259.484L367.193 257.545C367.193 257.545 368.247 262.362 369.49 268.433Z" fill="#263238"/>
<path d="M322.113 239.11C313.122 269.676 330.408 278.498 336.995 280.427C342.982 282.177 363.567 287.394 375.677 257.935C387.788 228.476 376.415 214.637 362.945 209.904C349.475 205.172 331.114 208.555 322.113 239.11Z" fill="#AD6359"/>
<path d="M327.984 235.105C328.712 235.181 329.444 235.22 330.176 235.221C330.943 235.374 331.74 235.271 332.442 234.926C332.641 234.774 332.784 234.56 332.848 234.318C332.913 234.076 332.896 233.819 332.801 233.588C332.539 233.16 332.169 232.809 331.729 232.571C331.288 232.332 330.793 232.214 330.292 232.228C329.274 232.108 328.249 232.371 327.415 232.966C327.232 233.113 327.097 233.31 327.024 233.532C326.951 233.755 326.945 233.994 327.005 234.22C327.065 234.446 327.19 234.651 327.363 234.808C327.537 234.965 327.752 235.068 327.984 235.105V235.105Z" fill="#263238"/>
<path d="M348.558 240.85C347.862 240.565 347.262 240.196 346.597 239.848C345.861 239.587 345.229 239.096 344.795 238.446C344.699 238.215 344.682 237.958 344.747 237.716C344.812 237.474 344.955 237.26 345.154 237.108C345.593 236.867 346.089 236.749 346.589 236.765C347.09 236.782 347.577 236.933 347.999 237.203C348.943 237.614 349.696 238.367 350.107 239.311C350.182 239.526 350.194 239.759 350.142 239.981C350.091 240.203 349.978 240.406 349.816 240.567C349.654 240.727 349.45 240.839 349.228 240.889C349.005 240.939 348.773 240.926 348.558 240.85V240.85Z" fill="#263238"/>
<path d="M342.898 247.195C342.898 247.121 343.035 247.342 343.003 247.427C342.318 249.482 341.886 251.959 343.562 253.202C343.562 253.202 343.562 253.35 343.562 253.318C341.317 252.317 341.918 249.039 342.898 247.195Z" fill="#263238"/>
<path d="M345.396 245.582C348.821 246.32 347.093 253.108 343.931 252.422C340.769 251.737 342.55 244.96 345.396 245.582Z" fill="#263238"/>
<path d="M346.639 246.267C347.135 246.805 347.546 247.627 348.242 247.88C348.937 248.133 349.854 247.616 350.56 247.079C350.634 247.015 350.676 247.079 350.655 247.184C350.35 248.491 349.506 249.693 348.062 249.534C346.618 249.376 346.134 248.006 346.134 246.615C346.134 246.362 346.439 246.056 346.639 246.267Z" fill="#263238"/>
<path d="M330.598 243.558C330.598 243.474 330.408 243.622 330.387 243.706C329.934 245.814 329.059 248.185 326.982 248.417C326.919 248.417 326.898 248.523 326.982 248.533C329.386 248.744 330.513 245.645 330.598 243.558Z" fill="#263238"/>
<path d="M329.259 240.902C325.928 239.848 323.989 246.541 327.077 247.542C330.165 248.544 332.01 241.809 329.259 240.902Z" fill="#263238"/>
<path d="M327.72 240.934C327.088 241.145 326.382 241.64 325.728 241.493C325.075 241.345 324.674 240.439 324.379 239.616C324.379 239.532 324.274 239.616 324.253 239.616C323.841 240.892 323.884 242.357 325.054 242.958C326.223 243.558 327.256 242.641 327.931 241.45C328.057 241.271 327.984 240.85 327.72 240.934Z" fill="#263238"/>
<path d="M338.281 264.965C337.67 265.355 337.017 265.935 336.237 265.84C335.447 265.664 334.703 265.323 334.055 264.839C334.042 264.832 334.028 264.829 334.014 264.831C333.999 264.832 333.986 264.837 333.975 264.846C333.963 264.855 333.955 264.867 333.951 264.881C333.946 264.894 333.946 264.909 333.949 264.923C334.163 265.406 334.505 265.821 334.938 266.124C335.371 266.427 335.878 266.606 336.405 266.641C336.87 266.624 337.319 266.469 337.695 266.194C338.071 265.92 338.356 265.54 338.513 265.102C338.524 264.986 338.334 264.912 338.281 264.965Z" fill="#263238"/>
<path d="M331.283 254.372C331.283 254.372 330.018 257.387 329.628 258.862C329.628 258.999 334.677 261.54 337.997 258.536C338.025 258.511 338.044 258.476 338.05 258.439C338.055 258.401 338.047 258.363 338.026 258.331C338.006 258.299 337.975 258.276 337.938 258.265C337.902 258.254 337.863 258.257 337.828 258.272C335.605 259.061 333.186 259.106 330.935 258.399C330.935 257.967 333.275 253.308 333.043 253.234C331.87 253.031 330.676 252.985 329.491 253.097C331.947 246.773 335.393 240.828 337.744 234.473C337.757 234.427 337.754 234.378 337.736 234.334C337.718 234.29 337.686 234.254 337.644 234.231C337.603 234.207 337.554 234.199 337.508 234.207C337.461 234.214 337.418 234.237 337.386 234.273C333.328 240.207 330.345 247.458 327.636 253.961C327.288 254.762 330.629 254.467 331.283 254.372Z" fill="#263238"/>
<path d="M331.325 258.905C331.755 260.184 332.502 261.333 333.496 262.246C334.061 262.718 334.755 263.008 335.488 263.078C337.09 263.205 337.596 261.866 337.723 260.623C337.803 259.961 337.803 259.292 337.723 258.631C335.674 259.404 333.432 259.5 331.325 258.905V258.905Z" fill="#263238"/>
<path d="M333.496 262.246C334.061 262.718 334.755 263.008 335.488 263.078C337.09 263.205 337.596 261.866 337.723 260.623C336.089 260.233 334.118 260.76 333.496 262.246Z" fill="#FF99BA"/>
<path d="M374.17 261.793C372.327 260.453 370.864 258.658 369.924 256.583C368.983 254.508 368.598 252.225 368.805 249.956C363.732 246.572 359.654 241.897 356.99 236.412C357.085 237.097 357.77 242.051 358.202 244.56C338.935 237.276 335.499 220.929 335.499 220.929C327.889 226.199 325.855 230.12 324.548 232.006C324.548 232.006 326.593 219.759 334.339 212.697C343.825 204.044 353.975 207.817 353.975 207.817C359.11 207.504 364.234 208.58 368.809 210.934C373.383 213.288 377.238 216.832 379.967 221.192C390.391 237.614 374.17 261.793 374.17 261.793Z" fill="#263238"/>
<path d="M343.604 238.552C346.491 240.876 349.71 242.756 353.153 244.128C353.153 244.128 353.153 244.128 353.153 244.128C347.824 241.599 343.308 237.631 340.115 232.671C338.756 230.557 337.669 228.279 336.88 225.893C335.92 223.318 335.483 220.577 335.594 217.83C335.594 217.788 335.577 217.748 335.547 217.718C335.518 217.689 335.478 217.672 335.436 217.672C335.394 217.672 335.353 217.689 335.324 217.718C335.294 217.748 335.277 217.788 335.277 217.83C334.883 220.534 334.944 223.284 335.457 225.967C336.084 228.603 337.184 231.102 338.703 233.345C340.076 235.324 341.723 237.098 343.594 238.615" fill="#263238"/>
<path d="M344.553 258.335C346.281 258.606 348.051 258.386 349.661 257.701C351.271 257.015 352.656 255.892 353.659 254.458C354.662 253.024 355.242 251.338 355.334 249.591C355.427 247.844 355.026 246.106 354.18 244.575C353.333 243.043 352.074 241.781 350.545 240.93C349.016 240.079 347.279 239.674 345.531 239.762C343.784 239.849 342.096 240.425 340.66 241.424C339.223 242.423 338.096 243.805 337.407 245.413V245.413C336.435 247.694 336.406 250.266 337.326 252.567C338.247 254.869 340.042 256.712 342.318 257.693C343.033 258 343.784 258.216 344.553 258.335V258.335ZM347.261 241.092C348.93 241.354 350.476 242.13 351.682 243.313C352.888 244.496 353.694 246.025 353.988 247.689C354.282 249.352 354.049 251.066 353.321 252.59C352.594 254.115 351.408 255.374 349.93 256.192C348.452 257.009 346.756 257.345 345.077 257.151C343.399 256.958 341.824 256.245 340.571 255.112C339.318 253.979 338.45 252.483 338.089 250.833C337.727 249.183 337.89 247.462 338.555 245.909C339.266 244.254 340.507 242.882 342.084 242.01C343.66 241.138 345.482 240.815 347.261 241.092V241.092Z" fill="#5BA4A4"/>
<path d="M323.915 252.454C327.446 253.013 331.23 249.893 332.537 245.192C333.203 242.957 333.155 240.569 332.4 238.362C332.132 237.394 331.618 236.512 330.909 235.802C330.2 235.091 329.319 234.575 328.352 234.305C327.385 234.034 326.365 234.018 325.39 234.258C324.415 234.498 323.519 234.986 322.787 235.674C320.998 237.168 319.719 239.184 319.13 241.44C317.739 246.404 319.615 251.284 323.346 252.328L323.915 252.454ZM327.552 235.411C327.708 235.436 327.863 235.471 328.015 235.516C328.765 235.772 329.443 236.203 329.992 236.773C330.542 237.343 330.949 238.036 331.177 238.794C331.837 240.755 331.874 242.872 331.283 244.855C330.081 249.155 326.645 251.969 323.599 251.116C320.553 250.262 319.077 246.077 320.279 241.777C320.797 239.774 321.928 237.983 323.515 236.655C324.063 236.176 324.706 235.818 325.401 235.604C326.096 235.39 326.829 235.324 327.552 235.411V235.411Z" fill="#5BA4A4"/>
<path d="M337.417 246.541L338.471 245.835C337.417 244.307 334.698 241.883 331.841 243.622L332.495 244.676C335.024 243.126 337.28 246.404 337.417 246.541Z" fill="#5BA4A4"/>
<path d="M376.9 260.075L378.133 259.822C378.007 259.252 376.9 254.214 374.328 253.023C371.925 251.917 355.356 248.923 354.66 248.807L354.439 250.03C359.193 250.884 371.957 253.308 373.801 254.172C375.646 255.036 376.615 258.694 376.9 260.075Z" fill="#5BA4A4"/>
<path d="M369.954 256.681C369.954 256.681 378.734 248.322 382.665 251.643C386.597 254.963 378.618 268.053 373.032 268.939C372.327 269.101 371.597 269.119 370.885 268.994C370.173 268.868 369.494 268.601 368.888 268.207C368.281 267.814 367.76 267.303 367.354 266.704C366.949 266.106 366.668 265.432 366.528 264.723L369.954 256.681Z" fill="#AD6359"/>
<path d="M380.315 255.342C380.329 255.348 380.34 255.357 380.349 255.369C380.357 255.381 380.361 255.396 380.361 255.411C380.361 255.425 380.357 255.44 380.349 255.452C380.34 255.464 380.329 255.474 380.315 255.479C376.373 256.217 373.78 259.21 371.725 262.435C373.084 261.308 374.708 260.865 376.246 262.52C376.331 262.604 376.246 262.741 376.109 262.699C375.511 262.367 374.825 262.227 374.144 262.298C373.463 262.37 372.821 262.65 372.305 263.099C371.456 263.868 370.689 264.723 370.017 265.65C369.775 265.935 369.227 265.65 369.427 265.292C369.429 265.267 369.429 265.243 369.427 265.218C370.323 260.559 375.224 254.794 380.315 255.342Z" fill="#263238"/>
<path d="M376.91 295.521C375.646 297.133 374.349 298.683 372.979 300.232C371.609 301.781 370.239 303.257 368.763 304.659C365.822 307.441 362.671 310.129 358.982 311.678C357.2 312.51 355.224 312.838 353.269 312.627C352.81 312.604 352.36 312.49 351.946 312.29C351.531 312.091 351.161 311.812 350.856 311.468C350.242 310.72 349.77 309.866 349.464 308.949C348.852 307.026 348.497 305.03 348.41 303.014C348.215 300.981 348.215 298.934 348.41 296.901C348.001 298.923 347.817 300.984 347.862 303.046C347.86 305.127 348.144 307.198 348.705 309.201C348.986 310.252 349.49 311.229 350.181 312.068C350.55 312.512 351.01 312.872 351.53 313.122C352.04 313.348 352.579 313.501 353.132 313.576C355.268 313.851 357.439 313.53 359.403 312.648C361.312 311.786 363.106 310.692 364.747 309.391C366.386 308.107 367.923 306.698 369.343 305.175C372.182 302.219 374.718 298.984 376.91 295.521V295.521Z" fill="#263238"/>
<path d="M93.4834 156.148H257.85V260.932H93.4834V156.148Z" fill="white"/>
<path d="M135.917 23.7089H234.614V86.6643H135.917V23.7089Z" fill="white"/>
<path d="M136.224 23.2222H234.921V35.1324H136.224V23.2222Z" fill="#455A64"/>
<path d="M135.602 35.7543H235.543V22.6004H135.602V35.7543ZM234.299 34.479H136.846V23.8441H234.299V34.479Z" fill="#C5C5C5"/>
<path d="M223.748 29.2617C223.748 29.8537 223.924 30.4324 224.253 30.9247C224.582 31.417 225.049 31.8006 225.596 32.0272C226.143 32.2537 226.745 32.313 227.326 32.1975C227.906 32.082 228.44 31.7969 228.858 31.3783C229.277 30.9597 229.562 30.4263 229.678 29.8456C229.793 29.265 229.734 28.6631 229.507 28.1162C229.281 27.5692 228.897 27.1017 228.405 26.7728C227.913 26.4439 227.334 26.2683 226.742 26.2683C225.948 26.2683 225.186 26.5837 224.625 27.145C224.064 27.7064 223.748 28.4678 223.748 29.2617Z" fill="#68A4A4"/>
<path d="M211.512 29.2617C211.512 29.8537 211.687 30.4324 212.016 30.9247C212.345 31.417 212.812 31.8006 213.359 32.0272C213.906 32.2537 214.508 32.313 215.089 32.1975C215.67 32.082 216.203 31.7969 216.622 31.3783C217.04 30.9597 217.325 30.4263 217.441 29.8456C217.556 29.265 217.497 28.6631 217.27 28.1162C217.044 27.5692 216.66 27.1017 216.168 26.7728C215.676 26.4439 215.097 26.2683 214.505 26.2683C214.112 26.2683 213.723 26.3457 213.359 26.4962C212.996 26.6466 212.666 26.8671 212.388 27.145C212.11 27.423 211.89 27.753 211.739 28.1162C211.589 28.4793 211.512 28.8686 211.512 29.2617Z" fill="#C5C5C5"/>
<path d="M199.275 29.2617C199.273 29.8567 199.447 30.4389 199.777 30.9345C200.106 31.4301 200.575 31.8168 201.124 32.0454C201.673 32.2741 202.278 32.3345 202.862 32.2189C203.446 32.1033 203.982 31.817 204.403 31.3963C204.823 30.9756 205.11 30.4393 205.225 29.8557C205.341 29.272 205.28 28.6671 205.052 28.1178C204.823 27.5685 204.436 27.0995 203.941 26.7702C203.445 26.4409 202.863 26.2662 202.268 26.2683C201.474 26.2683 200.713 26.5837 200.151 27.1451C199.59 27.7064 199.275 28.4678 199.275 29.2617V29.2617Z" fill="white"/>
<g opacity="0.6">
<path opacity="0.6" d="M92.4562 143.821H257.049V259.128H92.4562V143.821Z" fill="white"/>
<path opacity="0.6" d="M92.0142 260.106H257.861V143.544H92.0142V260.106ZM256.607 258.862H93.2368V144.799H256.607V258.862Z" fill="#C5C5C5"/>
<path opacity="0.6" d="M92.6466 144.177H257.239V156.087H92.6466V144.177Z" fill="#455A64"/>
<path opacity="0.6" d="M92.0142 156.698H257.861V143.544H92.0142V156.698ZM256.607 155.454H93.2368V144.799H256.607V155.454Z" fill="#C5C5C5"/>
<path opacity="0.6" d="M246.056 150.216C246.056 150.81 246.232 151.391 246.562 151.885C246.892 152.379 247.362 152.764 247.911 152.991C248.459 153.219 249.063 153.278 249.646 153.162C250.229 153.046 250.764 152.76 251.184 152.34C251.604 151.92 251.89 151.385 252.006 150.802C252.122 150.219 252.063 149.615 251.835 149.067C251.608 148.518 251.223 148.048 250.729 147.718C250.235 147.388 249.654 147.212 249.06 147.212C248.263 147.212 247.499 147.529 246.936 148.092C246.373 148.655 246.056 149.419 246.056 150.216Z" fill="#68A4A4"/>
<path opacity="0.6" d="M233.819 150.216C233.819 150.81 233.996 151.391 234.326 151.885C234.656 152.379 235.125 152.764 235.674 152.991C236.223 153.219 236.827 153.278 237.409 153.162C237.992 153.046 238.527 152.76 238.947 152.34C239.367 151.92 239.654 151.385 239.769 150.802C239.885 150.219 239.826 149.615 239.598 149.067C239.371 148.518 238.986 148.048 238.492 147.718C237.998 147.388 237.417 147.212 236.823 147.212C236.027 147.212 235.263 147.529 234.699 148.092C234.136 148.655 233.819 149.419 233.819 150.216Z" fill="#C5C5C5"/>
<path opacity="0.6" d="M221.582 150.216C221.582 150.81 221.758 151.391 222.089 151.885C222.419 152.379 222.888 152.764 223.437 152.991C223.986 153.219 224.59 153.278 225.172 153.162C225.755 153.046 226.29 152.76 226.71 152.34C227.13 151.92 227.416 151.385 227.532 150.802C227.648 150.219 227.589 149.615 227.361 149.067C227.134 148.518 226.749 148.048 226.255 147.718C225.761 147.388 225.18 147.212 224.586 147.212C223.789 147.212 223.025 147.529 222.462 148.092C221.899 148.655 221.582 149.419 221.582 150.216Z" fill="white"/>
<path opacity="0.6" d="M238.099 179.76H244.465V182.089H238.099V179.76Z" fill="#C5C5C5"/>
<path opacity="0.6" d="M160.44 179.76H233.461V182.089H160.44V179.76Z" fill="#C5C5C5"/>
<path opacity="0.6" d="M144.44 179.76H156.53V182.089H144.44V179.76Z" fill="#68A4A4"/>
<path opacity="0.6" d="M120.904 179.76H141.805V182.089H120.904V179.76Z" fill="#A6A6A6"/>
<path opacity="0.6" d="M231.732 185.989H238.099V188.318H231.732V185.989Z" fill="#C5C5C5"/>
<path opacity="0.6" d="M179.338 185.989H227.253V188.318H179.338V185.989Z" fill="#A6A6A6"/>
<path opacity="0.6" d="M187.696 204.655H233.461V206.984H187.696V204.655Z" fill="#A6A6A6"/>
<path opacity="0.6" d="M195.148 192.207H227.253V194.537H195.148V192.207Z" fill="#68A4A4"/>
<path opacity="0.6" d="M136.198 198.437H148.445V200.766H136.198V198.437Z" fill="#A6A6A6"/>
<path opacity="0.6" d="M140.308 192.207H191.585V194.537H140.308V192.207Z" fill="#A6A6A6"/>
<path opacity="0.6" d="M172.255 210.874H233.461V213.203H172.255V210.874Z" fill="#68A4A4"/>
<path opacity="0.6" d="M109.985 185.989H143.154V188.318H109.985V185.989Z" fill="#68A4A4"/>
<path opacity="0.6" d="M145.789 185.989H176.324V188.318H145.789V185.989Z" fill="#C5C5C5"/>
<path opacity="0.6" d="M117.289 192.207H137.895V194.537H117.289V192.207Z" fill="#C5C5C5"/>
<path opacity="0.6" d="M231.732 192.207H238.099V194.537H231.732V192.207Z" fill="#C5C5C5"/>
<path opacity="0.6" d="M238.099 198.437H244.465V200.766H238.099V198.437Z" fill="#A6A6A6"/>
<path opacity="0.6" d="M195.844 198.437H233.461V200.766H195.844V198.437Z" fill="#C5C5C5"/>
<path opacity="0.6" d="M144.44 204.655H185.104V206.984H144.44V204.655Z" fill="#C5C5C5"/>
<path opacity="0.6" d="M115.929 204.655H141.805V206.984H115.929V204.655Z" fill="#68A4A4"/>
<path opacity="0.6" d="M151.407 198.437H192.018V200.766H151.407V198.437Z" fill="#68A4A4"/>
<path opacity="0.6" d="M238.099 204.655H244.465V206.984H238.099V204.655Z" fill="#C5C5C5"/>
<path opacity="0.6" d="M238.099 210.874H244.465V213.203H238.099V210.874Z" fill="#C5C5C5"/>
<path opacity="0.6" d="M240.533 173.636C240.458 173.713 240.406 173.811 240.385 173.917C240.364 174.023 240.374 174.133 240.414 174.234C240.454 174.334 240.523 174.421 240.611 174.483C240.7 174.545 240.805 174.581 240.913 174.585C241.062 174.586 241.206 174.53 241.313 174.426L243.769 171.939C243.774 171.929 243.776 171.918 243.776 171.907C243.776 171.896 243.774 171.886 243.769 171.876C243.769 171.876 243.769 171.876 243.769 171.823C243.769 171.77 243.769 171.823 243.769 171.823V171.76C243.771 171.742 243.771 171.725 243.769 171.707V171.57C243.768 171.546 243.768 171.521 243.769 171.496C243.769 171.496 243.769 171.433 243.769 171.412C243.769 171.412 243.769 171.359 243.716 171.349L241.26 168.861C241.156 168.76 241.016 168.703 240.871 168.703C240.725 168.703 240.585 168.76 240.481 168.861C240.428 168.912 240.385 168.972 240.357 169.039C240.328 169.106 240.313 169.178 240.313 169.251C240.313 169.324 240.328 169.397 240.357 169.464C240.385 169.531 240.428 169.591 240.481 169.641L242.589 171.749L240.533 173.636Z" fill="#68A4A4"/>
<path opacity="0.6" d="M238.309 173.91L236.201 168.819C236.176 168.76 236.139 168.706 236.093 168.662C236.047 168.617 235.993 168.582 235.933 168.558C235.873 168.535 235.809 168.523 235.745 168.525C235.68 168.526 235.617 168.54 235.558 168.566C235.502 168.59 235.451 168.625 235.409 168.669C235.366 168.713 235.333 168.765 235.31 168.821C235.288 168.878 235.276 168.939 235.277 169C235.278 169.061 235.292 169.121 235.316 169.178L237.424 174.289C237.463 174.374 237.525 174.447 237.603 174.497C237.682 174.547 237.773 174.574 237.867 174.574C237.926 174.584 237.987 174.584 238.046 174.574C238.11 174.551 238.168 174.515 238.217 174.469C238.265 174.422 238.303 174.365 238.328 174.302C238.353 174.239 238.365 174.171 238.361 174.104C238.358 174.036 238.34 173.97 238.309 173.91Z" fill="#68A4A4"/>
<path opacity="0.6" d="M231.058 171.865V171.928L233.514 174.416C233.621 174.519 233.765 174.576 233.914 174.574C234.06 174.574 234.2 174.517 234.304 174.416C234.356 174.364 234.397 174.302 234.425 174.235C234.453 174.167 234.468 174.094 234.468 174.021C234.468 173.947 234.453 173.875 234.425 173.807C234.397 173.739 234.356 173.677 234.304 173.625L232.196 171.517L234.304 169.409C234.357 169.359 234.399 169.299 234.428 169.232C234.457 169.165 234.472 169.092 234.472 169.019C234.472 168.946 234.457 168.874 234.428 168.807C234.399 168.74 234.357 168.68 234.304 168.629C234.198 168.527 234.056 168.47 233.909 168.47C233.761 168.47 233.62 168.527 233.514 168.629L231.058 171.117C231.054 171.138 231.054 171.159 231.058 171.18V171.18C231.056 171.208 231.056 171.236 231.058 171.264V171.264C231.062 171.292 231.062 171.321 231.058 171.349V171.475V171.57C231.058 171.57 231.058 171.633 231.058 171.644C231.058 171.654 231.058 171.644 231.058 171.644V171.865Z" fill="#68A4A4"/>
</g>
<path opacity="0.6" d="M414.38 417.584C414.38 417.584 391.34 406.97 391.34 392.741C391.34 378.512 421.221 369.343 421.221 358.223C421.221 347.103 408.193 340.547 408.193 340.547C408.193 340.547 428.778 347.588 428.778 361.627C428.778 375.667 409.079 385.226 407.192 394.175C404.578 406.644 414.38 417.584 414.38 417.584Z" fill="#DBDBDB"/>
<path opacity="0.6" d="M413.242 417.584C413.242 417.584 436.293 409.237 436.293 398.054C436.293 386.871 406.401 379.651 406.401 370.913C406.401 362.175 419.439 357.021 419.439 357.021C419.439 357.021 398.844 362.544 398.844 373.611C398.844 384.678 421.473 392.278 423.086 401.268C424.678 410.08 413.242 417.584 413.242 417.584Z" fill="#DBDBDB"/>
<path d="M403.176 453.378H425.099V456.804H403.176V453.378Z" fill="#37474F"/>
<path d="M403.176 453.378H425.099V455.634H403.176V453.378Z" fill="#263238"/>
<path d="M451.112 444.177C449.777 446.146 447.903 447.69 445.715 448.625C443.527 449.559 441.116 449.844 438.77 449.447C438.009 449.304 437.265 449.089 436.546 448.804C435.455 448.38 434.416 447.836 433.447 447.181L436.23 443.049C436.748 443.408 437.298 443.719 437.874 443.976C443.144 446.348 446.401 442.237 447.054 441.289C450.058 437.073 451.133 427.418 448.108 423.708C447.908 423.434 447.054 423.002 443.492 423.708C442.849 423.856 442.1 424.024 441.268 424.256C440.619 424.476 439.947 424.621 439.265 424.688L439.181 422.201L438.938 419.734C439.16 419.734 439.518 419.587 439.992 419.46C441.623 418.975 443.29 418.623 444.978 418.406C447.571 418.132 450.248 418.406 451.966 420.514C456.888 426.628 454.885 438.886 451.112 444.177Z" fill="#37474F"/>
<path d="M436.24 443.059C436.758 443.419 437.309 443.729 437.884 443.987L436.556 448.814C435.466 448.391 434.427 447.846 433.457 447.191L436.24 443.059Z" fill="#263238"/>
<path d="M444.957 418.438L443.481 423.708C442.838 423.856 442.09 424.024 441.257 424.256C440.608 424.476 439.936 424.621 439.255 424.688L439.17 422.201L438.928 419.734C439.149 419.734 439.508 419.587 439.982 419.46C441.61 418.987 443.274 418.645 444.957 418.438V418.438Z" fill="#263238"/>
<path d="M384.974 412.009C384.974 412.009 387.609 434.353 392.151 443.766C396.694 453.178 403.039 454.211 406.971 454.211H421.305C425.247 454.211 431.582 453.157 436.124 443.766C440.667 434.374 443.302 412.009 443.302 412.009H384.974Z" fill="#37474F"/>
<path d="M388.093 430.57C388.547 432.625 389.042 434.659 389.59 436.577H438.685C439.234 434.659 439.739 432.625 440.182 430.57H388.093Z" fill="#455A64"/>
<path d="M390.265 438.854C390.602 439.908 390.95 440.962 391.319 441.858H436.957C437.326 440.93 437.673 439.919 438.011 438.854H390.265Z" fill="#455A64"/>
<path d="M386.966 424.92C387.145 425.9 387.334 426.902 387.545 427.924H440.73C440.941 426.87 441.131 425.9 441.31 424.92H386.966Z" fill="#455A64"/>
<path d="M236.265 249.007C228.834 245.213 220.634 240.27 211.949 239.279C203.264 238.288 194.568 248.765 194.136 252.032C193.704 255.3 194.242 276.148 202.895 277.328C211.548 278.509 208.418 262.109 208.987 260.359C209.556 258.609 210.178 256.354 211.791 256.733C213.403 257.113 240.175 274.483 240.175 274.483L236.265 249.007Z" fill="#AD6359"/>
<path d="M235.548 250.125C235.063 250.061 213.087 237.825 204.413 236.834C195.738 235.843 187.022 246.32 186.59 249.587C186.157 252.855 186.705 273.703 195.359 274.883C204.012 276.064 200.871 259.663 201.44 257.914C202.01 256.164 202.642 253.909 204.255 254.288C205.867 254.667 232.639 272.037 232.639 272.037L235.548 250.125Z" fill="#AD6359"/>
<path d="M198.437 274.145C199.691 272.923 200.144 270.889 200.545 269.223C200.974 267.401 201.116 265.524 200.966 263.658C200.69 262.039 200.549 260.4 200.545 258.757C200.771 257.155 201.398 255.636 202.368 254.341C203.19 253.213 204.413 253.803 205.446 254.341C206.979 255.166 208.457 256.088 209.872 257.102C211.422 258.156 212.94 259.21 214.468 260.264C216.091 261.312 217.646 262.459 219.127 263.7C219.232 263.795 219.127 263.995 218.99 263.922C217.568 263.141 216.189 262.286 214.858 261.36C213.319 260.37 211.77 259.393 210.21 258.43C208.755 257.534 207.343 256.565 205.867 255.69C205.351 255.384 204.328 254.636 203.675 254.71C203.021 254.783 202.452 256.343 202.241 256.818C201.671 258.325 201.557 259.968 201.915 261.54C202.16 263.147 202.249 264.774 202.178 266.398C202.131 267.934 201.806 269.448 201.219 270.867C200.505 272.113 199.645 273.27 198.658 274.314C198.552 274.504 198.299 274.282 198.437 274.145Z" fill="#263238"/>
<path d="M260.426 276.092C260.426 276.092 239.346 251.039 234.94 246.032C226.076 235.988 186.193 213.137 180.396 211.735C174.599 210.333 170.91 222.096 197.829 238.433C212.047 247.044 213.576 256.045 212.648 260.799C211.721 265.552 205.966 273.868 197.892 272.572C189.819 271.276 186.214 258.87 178.983 256.541C171.753 254.211 174.831 268.461 178.983 276.999C183.136 285.536 191.863 293.262 198.482 296.825C205.102 300.387 225.423 312.529 225.423 312.529L260.426 276.092Z" fill="#AD6359"/>
<path d="M188.244 265.977C190.964 268.738 193.999 272.238 197.973 272.912C201.946 273.587 205.119 271.3 207.459 268.19C209.799 265.081 211.485 261.339 211.063 257.334C210.594 253.729 209.093 250.336 206.742 247.564C203.866 244.191 200.514 241.254 196.792 238.847C196.634 238.731 196.792 238.499 196.993 238.605C200.481 240.713 211.38 247.037 212.328 257.503C212.718 261.793 210.979 265.334 208.576 268.559C206.363 271.531 203.306 274.272 199.406 274.072C194.589 273.819 190.974 269.402 187.981 266.061C187.865 265.914 188.107 265.84 188.244 265.977Z" fill="#263238"/>
</svg>
