<svg width="172" height="32" viewBox="0 0 172 32" fill="none" xmlns="http://www.w3.org/2000/svg">
<path d="M8.4875 31L0.2625 2.125H7.77L12.6 21.69L17.92 2.125H22.96L28.28 21.69L33.11 2.125H40.6175L32.375 31H24.885L20.44 15.1275L15.9775 31H8.4875ZM50.0555 31.56C48.0955 31.56 46.3338 31.14 44.7705 30.3C43.2071 29.46 41.9705 28.3225 41.0605 26.8875C40.1621 25.4525 39.713 23.8308 39.713 22.0225C39.713 20.6808 39.9696 19.4383 40.483 18.295C40.9963 17.14 41.7138 16.1308 42.6355 15.2675C43.5571 14.3925 44.6305 13.7158 45.8555 13.2375C47.0921 12.7592 48.428 12.52 49.863 12.52C51.7296 12.52 53.363 12.9108 54.763 13.6925C56.1746 14.4625 57.2771 15.5417 58.0705 16.93C58.8638 18.3067 59.2605 19.905 59.2605 21.725C59.2605 21.8767 59.2546 22.0167 59.243 22.145C59.243 22.2733 59.2255 22.53 59.1905 22.915H46.293C46.293 23.6383 46.4621 24.2683 46.8005 24.805C47.1388 25.3417 47.6171 25.7617 48.2355 26.065C48.8538 26.3567 49.583 26.5025 50.423 26.5025C51.2046 26.5025 51.8871 26.3567 52.4705 26.065C53.0538 25.7617 53.6721 25.2658 54.3255 24.5775L58.9105 26.87C58.0705 28.34 56.863 29.4892 55.288 30.3175C53.7246 31.1458 51.9805 31.56 50.0555 31.56ZM46.4855 19.695H52.9955C52.9138 19.1117 52.7271 18.6217 52.4355 18.225C52.1438 17.8283 51.7705 17.5308 51.3155 17.3325C50.8605 17.1225 50.3296 17.0175 49.723 17.0175C49.093 17.0175 48.5388 17.1225 48.0605 17.3325C47.5938 17.5425 47.2263 17.8458 46.958 18.2425C46.6896 18.6392 46.5321 19.1233 46.4855 19.695ZM75.9965 31.56C74.8882 31.56 73.8265 31.35 72.8115 30.93C71.8082 30.51 70.904 29.915 70.099 29.145V31H63.7115V0.899999H70.099V14.725C70.799 14.025 71.6448 13.4825 72.6365 13.0975C73.6398 12.7125 74.7073 12.52 75.839 12.52C77.5657 12.52 79.1057 12.94 80.459 13.78C81.8123 14.6083 82.874 15.74 83.644 17.175C84.414 18.61 84.799 20.2317 84.799 22.04C84.799 23.9067 84.3965 25.5575 83.5915 26.9925C82.7982 28.4275 81.7365 29.5475 80.4065 30.3525C79.0765 31.1575 77.6065 31.56 75.9965 31.56ZM74.0365 26.1525C74.8298 26.1525 75.524 25.9775 76.119 25.6275C76.7257 25.2658 77.1982 24.7817 77.5365 24.175C77.8865 23.5567 78.0615 22.8625 78.0615 22.0925C78.0615 21.2875 77.8807 20.5758 77.519 19.9575C77.169 19.3275 76.6907 18.8317 76.084 18.47C75.489 18.1083 74.8007 17.9275 74.019 17.9275C73.249 17.9275 72.5548 18.1083 71.9365 18.47C71.3298 18.8317 70.8457 19.3217 70.484 19.94C70.134 20.5583 69.959 21.27 69.959 22.075C69.959 22.845 70.134 23.5392 70.484 24.1575C70.834 24.7758 71.3123 25.2658 71.919 25.6275C72.5373 25.9775 73.2432 26.1525 74.0365 26.1525ZM93.3729 31.56C90.6546 31.56 88.3096 30.6442 86.3379 28.8125L88.5254 23.23C89.9137 24.4667 91.1504 25.085 92.2354 25.085C93.1687 25.085 93.9037 24.735 94.4404 24.035C94.9887 23.335 95.2629 22.3783 95.2629 21.165V2.125H102V22.88C102 25.645 101.236 27.7858 99.7079 29.3025C98.1796 30.8075 96.0679 31.56 93.3729 31.56ZM117.364 31.56C115.346 31.56 113.526 31.1575 111.904 30.3525C110.283 29.5358 108.999 28.4158 108.054 26.9925C107.109 25.5575 106.637 23.9067 106.637 22.04C106.637 20.1733 107.109 18.5283 108.054 17.105C108.999 15.67 110.283 14.55 111.904 13.745C113.526 12.9283 115.346 12.52 117.364 12.52C119.383 12.52 121.203 12.9283 122.824 13.745C124.446 14.55 125.729 15.67 126.674 17.105C127.619 18.5283 128.092 20.1733 128.092 22.04C128.092 23.9067 127.619 25.5575 126.674 26.9925C125.729 28.4158 124.446 29.5358 122.824 30.3525C121.203 31.1575 119.383 31.56 117.364 31.56ZM117.364 26.135C118.111 26.135 118.788 25.96 119.394 25.61C120.013 25.26 120.503 24.7817 120.864 24.175C121.226 23.5567 121.407 22.845 121.407 22.04C121.407 21.235 121.226 20.5233 120.864 19.905C120.503 19.2867 120.013 18.8083 119.394 18.47C118.788 18.12 118.111 17.945 117.364 17.945C116.618 17.945 115.935 18.12 115.317 18.47C114.71 18.8083 114.226 19.2867 113.864 19.905C113.503 20.5233 113.322 21.235 113.322 22.04C113.322 22.845 113.503 23.5567 113.864 24.175C114.226 24.7817 114.71 25.26 115.317 25.61C115.935 25.96 116.618 26.135 117.364 26.135ZM144.595 31.56C143.487 31.56 142.425 31.35 141.41 30.93C140.407 30.51 139.503 29.915 138.698 29.145V31H132.31V0.899999H138.698V14.725C139.398 14.025 140.243 13.4825 141.235 13.0975C142.238 12.7125 143.306 12.52 144.438 12.52C146.164 12.52 147.704 12.94 149.058 13.78C150.411 14.6083 151.473 15.74 152.243 17.175C153.013 18.61 153.398 20.2317 153.398 22.04C153.398 23.9067 152.995 25.5575 152.19 26.9925C151.397 28.4275 150.335 29.5475 149.005 30.3525C147.675 31.1575 146.205 31.56 144.595 31.56ZM142.635 26.1525C143.428 26.1525 144.123 25.9775 144.718 25.6275C145.324 25.2658 145.797 24.7817 146.135 24.175C146.485 23.5567 146.66 22.8625 146.66 22.0925C146.66 21.2875 146.479 20.5758 146.118 19.9575C145.768 19.3275 145.289 18.8317 144.683 18.47C144.088 18.1083 143.399 17.9275 142.618 17.9275C141.848 17.9275 141.153 18.1083 140.535 18.47C139.928 18.8317 139.444 19.3217 139.083 19.94C138.733 20.5583 138.558 21.27 138.558 22.075C138.558 22.845 138.733 23.5392 139.083 24.1575C139.433 24.7758 139.911 25.2658 140.518 25.6275C141.136 25.9775 141.842 26.1525 142.635 26.1525ZM162.938 31.56C161.41 31.56 160.033 31.3617 158.808 30.965C157.595 30.5683 156.562 29.985 155.711 29.215L158.301 24.8575C159.106 25.5108 159.899 26.0125 160.681 26.3625C161.474 26.7008 162.232 26.87 162.956 26.87C163.306 26.87 163.597 26.8233 163.831 26.73C164.064 26.6367 164.239 26.4967 164.356 26.31C164.484 26.1233 164.548 25.89 164.548 25.61C164.548 25.2367 164.431 24.945 164.198 24.735C163.976 24.5133 163.615 24.2975 163.113 24.0875C162.623 23.8775 161.981 23.6092 161.188 23.2825C160.465 22.9675 159.782 22.6175 159.141 22.2325C158.499 21.8475 157.974 21.3575 157.566 20.7625C157.169 20.1675 156.971 19.4092 156.971 18.4875C156.971 17.3208 157.303 16.2942 157.968 15.4075C158.633 14.5092 159.549 13.8092 160.716 13.3075C161.894 12.8058 163.253 12.555 164.793 12.555C165.645 12.555 166.572 12.6658 167.576 12.8875C168.591 13.0975 169.722 13.4242 170.971 13.8675L168.906 18.05C167.249 17.2333 165.896 16.825 164.846 16.825C164.286 16.825 163.848 16.93 163.533 17.14C163.218 17.35 163.061 17.6125 163.061 17.9275C163.061 18.2658 163.271 18.5808 163.691 18.8725C164.122 19.1525 164.636 19.4033 165.231 19.625C165.826 19.8467 166.362 20.045 166.841 20.22C167.681 20.5117 168.433 20.8558 169.098 21.2525C169.763 21.6492 170.288 22.1742 170.673 22.8275C171.058 23.4692 171.251 24.3208 171.251 25.3825C171.251 26.7125 170.924 27.8383 170.271 28.76C169.629 29.67 168.69 30.3642 167.453 30.8425C166.216 31.3208 164.711 31.56 162.938 31.56Z" fill="white"/>
</svg>
