<svg width="375" height="500" viewBox="0 0 375 500" fill="none" xmlns="http://www.w3.org/2000/svg">
<path d="M64.8569 294.233L61.8858 316.499L25.44 499.785H15.008L43.7784 316.499L46.1223 294.233H64.8569Z" fill="#5BA4A4"/>
<path opacity="0.3" d="M64.8569 294.233L61.8858 316.499L25.44 499.785H15.008L43.7784 316.499L46.1223 294.233H64.8569Z" fill="black"/>
<path d="M163.581 499.785H153.132L116.67 316.499L113.715 294.233H132.45L134.777 316.499L163.581 499.785Z" fill="#5BA4A4"/>
<path opacity="0.3" d="M163.581 499.785H153.132L116.67 316.499L113.715 294.233H132.45L134.777 316.499L163.581 499.785Z" fill="black"/>
<path d="M146.596 447.13H30.2432V441.898H146.596V447.13Z" fill="#5BA4A4"/>
<path opacity="0.3" d="M146.596 447.13H30.2432V441.898H146.596V447.13Z" fill="black"/>
<path opacity="0.3" d="M43.7784 315.707H61.8858L64.8569 294.233H46.1223L43.7784 315.707Z" fill="black"/>
<path opacity="0.3" d="M134.777 315.707H116.67L113.715 294.233H132.45L134.777 315.707Z" fill="black"/>
<path d="M144.632 300.951H33.9406V279.443H144.632V300.951Z" fill="#5BA4A4"/>
<path opacity="0.3" d="M144.632 300.951H33.9406V279.443H144.632V300.951Z" fill="black"/>
<path d="M211.383 497.342C207.488 497.342 104.29 463.966 101.237 460.286C100.874 459.873 103.696 450.481 107.839 437.688V437.424C110.381 429.32 141.826 366.546 141.826 366.546L208.445 390.992L177.083 448.896C177.083 448.896 189.182 459.196 199.482 468.869C204.057 472.912 208.384 477.229 212.439 481.793C215.394 486.2 215.262 497.309 211.383 497.342Z" fill="#AD6359"/>
<path d="M101.154 460.286C104.191 463.966 207.421 497.392 211.317 497.326C215.212 497.26 215.311 486.184 212.423 481.843C208.372 477.274 204.051 472.953 199.482 468.902C195.537 465.204 191.344 461.391 187.631 458.14C200.291 472.286 207.157 492.473 109.077 434.47C108.591 435.447 108.172 436.456 107.823 437.49V437.738C103.696 450.481 100.857 459.873 101.154 460.286Z" fill="#5BA4A4"/>
<path d="M184.131 446.47L110.381 426.217C110.381 426.217 167.823 299.003 165.776 292.648C164.406 288.389 73.8693 290.205 46.799 266.997C18.7384 242.981 39.0246 194.056 39.0246 194.056L115.118 191.894C115.118 191.894 114.178 207.806 117.132 210.216C119.096 211.866 223.367 218.551 244.23 256.351C263.064 290.651 184.131 446.47 184.131 446.47Z" fill="#687575"/>
<path d="M165.776 292.631C166.123 293.704 164.769 298.26 162.244 305.094L218.497 371.02C236.968 326.106 254.118 274.392 244.181 256.351C223.35 218.551 119.097 211.784 117.083 210.216C114.128 207.806 115.069 191.894 115.069 191.894L66.7716 193.264L149.303 290.007C159.075 290.849 165.413 291.525 165.776 292.631Z" fill="#263238"/>
<path d="M185.584 430.937C183.627 430.104 181.613 429.409 179.559 428.858L173.171 426.877C168.945 425.639 164.72 424.45 160.478 423.345C151.911 421.133 143.344 418.987 134.728 417.006C130.222 415.966 120.599 413.705 120.004 413.82C119.724 413.82 119.674 414.349 120.004 414.431C128.257 417.204 136.808 419.548 145.275 421.908C153.743 424.269 162.194 426.613 170.745 428.511C173.121 429.056 175.498 429.534 177.875 430.046C180.365 430.698 182.896 431.177 185.452 431.482C185.633 431.548 185.848 431.069 185.584 430.937Z" fill="#263238"/>
<path d="M43.3823 208.449C43.5473 205.907 43.7784 203.366 44.0095 200.824C44.0095 200.526 44.4882 200.526 44.4716 200.824C43.6958 211.14 42.8211 221.704 45.0329 231.905C46.9851 241.333 51.9569 249.869 59.1953 256.219C74.6287 269.952 95.8227 273.616 115.581 276.505C126.887 278.155 138.26 279.36 149.65 280.219C155.245 280.631 160.824 280.945 166.42 281.176C172.016 281.407 177.529 281.308 183.058 281.49C184.808 281.49 186.36 282.315 186.161 284.312C185.906 285.539 185.49 286.727 184.924 287.845L183.273 291.922C181.182 296.984 179.069 302.056 176.934 307.14C172.533 317.572 168.071 327.982 163.548 338.37C154.568 358.992 145.215 379.454 135.487 399.757L131.872 407.3C131.872 407.465 131.559 407.3 131.625 407.168C140.868 386.624 149.985 366.024 158.976 345.369C163.432 335.118 167.906 324.868 172.313 314.601C174.514 309.462 176.714 304.323 178.915 299.184C180.016 296.609 181.116 294.034 182.216 291.459C182.761 290.155 183.289 288.868 183.867 287.58C184.445 286.293 185.98 283.933 184.775 282.975C183.966 282.331 182.316 282.596 181.358 282.579H176.951C174.145 282.579 171.355 282.497 168.549 282.431C162.888 282.265 157.209 282.018 151.564 281.655C140.472 280.961 129.413 279.806 118.403 278.353C98.7938 275.663 77.4512 272.609 61.5061 259.85C54.3666 254.315 48.9787 246.835 45.9903 238.309C42.7056 228.686 42.755 218.386 43.3823 208.449Z" fill="#263238"/>
<path d="M374.201 396.885C371.51 399.691 275.279 449.788 270.525 449.375C269.964 449.375 265.259 440.742 258.971 428.858L258.839 428.626C254.844 421.116 218.745 357.963 218.745 357.963L278.58 325.892L315.653 387.377C315.653 387.377 331.466 385.974 345.595 385.413C351.689 384.998 357.801 384.943 363.901 385.248C369.067 386.205 376.908 394.095 374.201 396.885Z" fill="#AD6359"/>
<path d="M258.277 427.57C258.525 427.983 258.723 428.346 258.872 428.627L259.004 428.874C265.259 440.759 269.964 449.358 270.558 449.375C275.312 449.788 371.543 399.708 374.217 396.868C376.891 394.029 369.117 386.189 363.983 385.215C357.879 384.883 351.76 384.933 345.662 385.364C339.637 385.611 333.331 385.991 328.082 386.371C347.428 386.305 371.758 394.64 258.277 427.57Z" fill="#5BA4A4"/>
<path d="M315.125 377.242L242.943 415.438C242.943 415.438 183.256 300.868 176.819 293.539C168.252 283.784 60.004 300.356 33.6435 268.78C6.39169 236.147 28.114 194.32 28.114 194.32L110.777 192.356C110.777 192.356 111.223 201.517 106.783 215.035C106.783 215.035 201.149 207.211 228.5 232.598C249.496 252.109 315.125 377.242 315.125 377.242Z" fill="#687575"/>
<path d="M91.9107 223.767C96.0754 220.751 100.401 217.962 104.868 215.415C108.021 213.677 111.338 212.256 114.772 211.173C117.165 210.529 118.222 210.331 115.977 211.454L109.969 214.474L111.24 214.392L116.01 214.062C119.196 213.913 122.381 213.864 125.551 213.764C132.004 213.583 138.409 214.045 144.846 214.21C145.011 214.21 145.011 214.474 144.846 214.474C138.409 214.474 131.971 214.92 125.551 215.035C122.365 215.035 119.196 215.267 116.01 215.399L111.355 215.58C110.043 215.679 108.726 215.712 107.41 215.679L105.66 216.554C101.039 218.881 96.4334 221.275 91.9767 223.916C91.9107 223.965 91.7787 223.85 91.9107 223.767Z" fill="#263238"/>
<path d="M112.709 189.302C111.949 193.231 111.322 197.159 110.431 201.055C110.035 202.837 109.622 204.653 109.061 206.403C108.582 207.872 107.823 209.555 106.189 209.985C104.29 210.463 103.647 208.846 103.713 207.261C103.848 205.468 104.074 203.683 104.389 201.913C104.67 199.883 104.967 197.852 105.215 195.822C105.347 194.815 105.479 193.792 105.594 192.769C105.594 192.521 105.693 190.573 105.792 190.012C105.792 190.012 105.792 190.111 105.908 190.012C105.908 190.012 106.024 190.012 106.024 189.913C106.039 189.858 106.037 189.799 106.016 189.745C105.995 189.691 105.957 189.646 105.908 189.616C105.88 189.6 105.849 189.591 105.817 189.591C105.785 189.591 105.754 189.6 105.726 189.616C105.38 189.847 105.38 190.342 105.281 190.722C105.033 191.712 104.769 192.719 104.538 193.709C104.109 195.591 103.696 197.473 103.333 199.354C102.97 201.236 102.607 203.134 102.26 205.016C101.854 206.424 101.809 207.911 102.128 209.341C102.344 210.014 102.769 210.6 103.343 211.013C103.916 211.426 104.607 211.644 105.314 211.635C105.246 211.764 105.186 211.896 105.132 212.031C104.984 212.411 104.868 212.824 104.753 213.22C104.637 213.616 104.521 214.045 104.422 214.458C104.405 214.661 104.405 214.865 104.422 215.068C104.422 215.283 104.422 215.498 104.422 215.729C104.421 215.801 104.443 215.872 104.486 215.931C104.528 215.989 104.589 216.032 104.658 216.053C104.728 216.074 104.802 216.071 104.87 216.045C104.938 216.019 104.995 215.972 105.033 215.91C105.131 215.716 105.241 215.529 105.363 215.349C105.455 215.134 105.532 214.914 105.594 214.689C105.71 214.293 105.792 213.897 105.875 213.5C105.957 213.104 106.04 212.708 106.09 212.295C106.107 212.059 106.107 211.822 106.09 211.586C106.891 211.467 107.645 211.13 108.268 210.612C109.308 209.617 110.041 208.345 110.381 206.947C110.876 205.297 111.223 203.646 111.586 201.996C112.539 197.857 113.125 193.643 113.336 189.401C113.319 189.336 113.283 189.277 113.233 189.232C113.183 189.187 113.121 189.157 113.055 189.147C112.988 189.136 112.92 189.145 112.858 189.173C112.797 189.201 112.745 189.245 112.709 189.302Z" fill="#263238"/>
<path d="M73.0935 201.286C72.8459 203.217 72.7469 205.165 72.4003 207.096C72.0537 209.027 71.674 210.876 71.1789 212.708C70.7217 214.5 70.022 216.222 69.0991 217.825C68.1169 219.332 66.9278 220.693 65.5667 221.869C62.9571 224.191 59.9852 226.07 56.7688 227.432C55.1586 228.128 53.5044 228.718 51.8169 229.198C50.9421 229.445 50.0508 229.66 49.1429 229.825C48.3968 229.881 47.6712 230.095 47.0137 230.452C46.952 230.497 46.9033 230.557 46.8724 230.626C46.8416 230.696 46.8298 230.772 46.8382 230.848C46.8466 230.923 46.8748 230.995 46.9202 231.056C46.9655 231.117 47.0263 231.165 47.0962 231.195C48.4193 231.509 49.8012 231.475 51.1072 231.096C52.5427 230.866 53.9602 230.535 55.3493 230.106C58.159 229.19 60.8261 227.885 63.2723 226.227C65.7438 224.631 67.9262 222.628 69.7263 220.301C71.3873 217.858 72.471 215.07 72.8955 212.147C73.5817 208.57 73.7761 204.916 73.4732 201.286C73.461 201.245 73.4359 201.209 73.4017 201.183C73.3675 201.158 73.326 201.144 73.2833 201.144C73.2407 201.144 73.1992 201.158 73.165 201.183C73.1308 201.209 73.1057 201.245 73.0935 201.286Z" fill="#263238"/>
<path d="M299.989 364.269C297.995 365.011 296.054 365.888 294.178 366.893C292.165 367.867 290.167 368.841 288.17 369.848C284.258 371.828 280.363 373.859 276.517 375.988C268.775 380.263 261.067 384.571 253.408 389.061C249.43 391.388 240.88 396.357 240.517 396.852C240.352 397.083 240.649 397.463 240.896 397.347C248.852 393.633 256.627 389.523 264.401 385.43C272.176 381.336 279.934 377.176 287.51 372.769C289.606 371.531 291.653 370.244 293.733 368.989C295.995 367.765 298.163 366.374 300.22 364.83C300.434 364.714 300.269 364.269 299.989 364.269Z" fill="#263238"/>
<path d="M28.6256 213.583C28.6256 213.511 28.6543 213.441 28.7054 213.39C28.7565 213.339 28.8257 213.311 28.8979 213.311C28.9702 213.311 29.0395 213.339 29.0906 213.39C29.1416 213.441 29.1703 213.511 29.1703 213.583C29.4344 231.525 32.6696 251.547 46.7825 264.076C62.2489 277.842 84.1527 279.03 103.812 278.403C115.085 278.04 126.359 277.495 137.649 277.594C148.94 277.693 160.461 277.974 171.751 279.162C176.148 279.465 180.292 281.326 183.438 284.411C186.48 287.716 189.138 291.354 191.361 295.256C197.248 304.532 202.943 313.913 208.445 323.399C219.449 342.26 229.688 361.545 239.163 381.254C240.335 383.696 241.49 386.205 242.646 388.599C242.728 388.764 242.481 388.912 242.415 388.747C232.808 368.94 222.459 349.578 211.532 330.53C206.029 321.011 200.379 311.586 194.58 302.255C191.84 297.88 189.182 293.391 186.145 289.198C183.471 285.501 180.137 282.051 175.614 280.796C172.839 280.167 170.007 279.824 167.163 279.773C164.274 279.575 161.385 279.393 158.497 279.245C152.868 278.964 147.223 278.799 141.578 278.717C130.189 278.568 118.832 278.981 107.46 279.443C87.652 280.252 66.1938 280.087 49.44 267.888C42.3078 262.562 36.8493 255.305 33.7096 246.975C30.6329 238.426 28.9606 229.434 28.7577 220.35C28.6587 218.106 28.6256 215.844 28.6256 213.583Z" fill="#263238"/>
<path d="M148.742 289.446C152.769 289.446 156.797 289.446 160.824 289.528C164.184 289.4 167.547 289.622 170.86 290.188C173.93 290.882 176.357 291.195 178.932 294.546C182.233 298.739 199.878 331.124 207.339 345.468C209.397 349.44 211.438 353.429 213.463 357.435C215.526 361.578 217.375 365.837 219.455 369.98C219.455 370.128 219.306 370.26 219.224 370.112C217.391 366.646 215.378 363.278 213.496 359.845C211.614 356.412 209.765 352.945 207.933 349.495C204.236 342.497 200.533 335.504 196.825 328.516C193.127 321.6 188.687 314.865 184.957 307.982C181.804 302.189 177.529 294.282 174.624 293.127C170.587 291.644 166.366 290.722 162.079 290.387C157.639 290.172 153.182 290.007 148.725 289.726C148.702 289.71 148.684 289.688 148.671 289.663C148.659 289.638 148.654 289.609 148.655 289.581C148.657 289.553 148.666 289.526 148.681 289.502C148.696 289.479 148.717 289.459 148.742 289.446Z" fill="#263238"/>
<path d="M89.2696 113.72C96.4168 145.214 111.305 183.046 117.677 189.137C125.732 196.912 175.796 207.294 178.47 207.509C185.072 208.185 194.415 166.012 190.536 165.946C179.724 165.814 145.127 159.888 142.799 157.495C140.472 155.101 124.015 134.221 107.179 110.782C95.5585 94.5727 84.8294 94.1766 89.2696 113.72Z" fill="#AD6359"/>
<path d="M174.723 206.865C180.138 209.651 185.742 212.056 191.493 214.062C196.065 215.399 209.369 218.914 211.3 214.062C212.637 210.76 205.078 207.74 199.746 205.511C196.94 204.339 193.507 201.401 194.332 199.602C195.785 196.466 202.981 199.602 207.719 202.408C216.863 207.756 229.061 217.363 234.673 212.725C236.786 210.975 234.327 207.773 230.745 204.62C236.572 208.301 242.795 211.222 245.221 209.456C245.844 208.977 246.262 208.28 246.39 207.505C246.519 206.73 246.349 205.935 245.914 205.28C246.649 205.627 247.47 205.746 248.273 205.622C249.076 205.499 249.824 205.138 250.42 204.587C252.319 202.606 251.394 199.635 249.331 196.68C249.674 196.628 250.001 196.498 250.287 196.301C250.573 196.104 250.811 195.844 250.982 195.542C255.026 189.434 234.954 171.805 228.021 170.155C214.238 167.119 200.139 165.755 186.029 166.094C178.106 172.416 174.706 206.848 174.723 206.865Z" fill="#AD6359"/>
<path d="M204.83 188.097C209.695 188.881 214.341 190.681 218.464 193.379C223.647 196.812 227.064 200.84 231.405 204.934C231.521 205.033 231.405 205.214 231.24 205.115C229.177 203.184 220.61 195.954 218.398 194.32C214.391 191.284 209.746 189.201 204.814 188.229C204.814 188.229 204.781 188.097 204.83 188.097Z" fill="#263238"/>
<path d="M208.676 179.398C214.132 180.705 219.442 182.564 224.522 184.945C229.969 187.734 234.244 192.273 238.42 196.648C240.951 199.267 243.411 201.951 245.799 204.703C245.898 204.818 245.799 205 245.634 204.884C241.397 200.361 236.995 195.96 232.429 191.679C228.263 187.706 223.355 184.593 217.986 182.518C214.899 181.346 211.746 180.405 208.593 179.464C208.593 179.514 208.61 179.398 208.676 179.398Z" fill="#263238"/>
<path d="M214.42 171.855C219.653 172.944 224.192 173.869 228.814 176.691C233.999 180.145 238.73 184.238 242.894 188.873C245.171 191.327 247.372 193.836 249.496 196.4C249.579 196.515 249.397 196.664 249.314 196.565C244.359 190.96 239.05 185.678 233.419 180.752C230.771 178.367 227.77 176.407 224.522 174.942C221.234 173.634 217.837 172.617 214.371 171.905C214.371 171.905 214.404 171.855 214.42 171.855Z" fill="#263238"/>
<path d="M185.699 161.076L169.193 213.137C169.193 213.137 124.626 200.328 116.587 191.53C108.549 182.733 93.4788 137.39 89.1871 115.42C84.8955 93.4503 95.9217 93.9619 106.106 107.893C116.29 121.825 141.594 155.382 143.014 156.108C144.434 156.834 185.699 161.076 185.699 161.076Z" fill="#5BA4A4"/>
<path d="M165.248 159.31L166.337 159.03L162.69 158.617C161.375 159.014 159.997 159.159 158.629 159.046C157.444 158.9 156.311 158.469 155.328 157.792L153.066 157.528C153.972 158.476 155.061 159.228 156.269 159.739C159.207 160.994 162.227 160.103 165.248 159.31ZM135.19 183.74C137.717 182.604 140.462 182.037 143.231 182.08C146.001 182.123 148.728 182.774 151.218 183.987C153.616 185.155 155.72 186.847 157.374 188.939C159.02 191.17 160.106 193.762 160.544 196.499C161.105 199.52 161.567 202.87 164.258 204.752C166.307 206.146 168.8 206.734 171.256 206.403L170.844 207.69C169.115 207.94 167.351 207.728 165.73 207.076C164.11 206.423 162.69 205.354 161.617 203.976C159.817 201.5 159.636 198.364 158.992 195.476C158.358 192.639 156.906 190.051 154.816 188.031C152.675 185.993 150.045 184.543 147.179 183.82C144.313 183.097 141.309 183.126 138.458 183.905C135.483 184.779 132.72 186.255 130.34 188.243C127.961 190.231 126.016 192.687 124.626 195.459C124.428 195.839 124.246 196.218 124.065 196.598L122.909 195.987C125.382 190.551 129.747 186.198 135.19 183.74ZM121.077 185.242C121.634 188.103 121.041 191.068 119.427 193.495L119.261 193.759C118.882 193.495 118.535 193.247 118.205 192.983C119.027 191.702 119.588 190.272 119.856 188.774C120.483 185.225 118.568 182.089 116.224 179.58C113.086 176.499 109.702 173.678 106.106 171.145L105.165 168.735C109.001 171.546 112.692 174.549 116.224 177.731C118.525 179.721 120.209 182.327 121.077 185.242ZM96.9286 136.317C100.692 133.197 106.354 134.138 110.249 136.499C115.366 139.585 117.776 145.478 120.153 150.628C122.744 156.075 126.244 162.182 132.483 163.916C138.062 165.467 142.816 161.539 144.302 156.405L145.622 156.603C145.183 158.452 144.315 160.172 143.088 161.623C141.86 163.074 140.308 164.216 138.557 164.955C133.044 167.085 127.416 163.635 123.933 159.508C119.905 154.755 118.238 148.581 114.953 143.365C112.065 138.793 107.229 134.964 101.501 135.739C100.173 135.914 98.9182 136.447 97.8711 137.282C96.8241 138.117 96.0245 139.221 95.5585 140.477C95.3604 139.849 95.1789 139.222 94.9974 138.595C95.4854 137.716 96.1416 136.942 96.9286 136.317ZM89.5998 117.137C93.0826 118.094 96.582 119.018 100.065 120.075C106.964 122.188 113.814 124.565 120.499 127.321C121.028 127.998 121.539 128.691 122.068 129.384L119.625 128.378C112.709 125.571 105.66 123.129 98.5132 120.999C95.6246 120.124 92.6864 119.349 89.7813 118.556C89.6658 118.061 89.5667 117.582 89.4677 117.104L89.5998 117.137Z" fill="white"/>
<path d="M164.918 189.979C166.932 183.855 168.978 177.731 170.761 171.508C171.768 167.976 172.808 164.46 173.782 160.911C173.782 160.779 173.584 160.697 173.534 160.829C171.289 166.92 169.028 173.01 167.064 179.2C165.099 185.39 163.069 191.481 161.171 197.671C160.098 201.187 159.141 204.703 158.282 208.284C158.282 208.284 158.381 208.4 158.398 208.284C160.874 202.326 162.904 196.169 164.918 189.979Z" fill="#263238"/>
<path opacity="0.1" d="M89.1376 115.437C93.4952 137.39 108.417 182.733 116.538 191.53C124.659 200.328 169.127 213.137 169.127 213.137L174.954 194.848C149.831 164.658 112.114 120.719 92.6534 98.1215C88.8075 98.6167 86.8597 103.932 89.1376 115.437Z" fill="black"/>
<path d="M121.903 209.902L19.019 208.631C19.019 208.631 47.1787 123.079 69 101.159C78.9037 91.255 88.2628 93.0541 96.0207 99.9042C97.952 101.555 121.341 134.369 123.075 145.313C124.626 155.002 116.753 164.708 116.753 164.708L121.903 209.902Z" fill="#5BA4A4"/>
<path d="M118.04 209.853H119.41C120.054 207.938 120.632 206.007 121.242 204.075L120.896 201.005C119.872 203.943 119.047 206.931 118.04 209.853Z" fill="white"/>
<path d="M31.6298 208.152C30.5125 208.241 29.4067 208.44 28.3285 208.747L39.5197 208.879C36.9397 208.25 34.2812 208.006 31.6298 208.152Z" fill="white"/>
<path d="M98.5296 120.999C103.768 122.551 108.934 124.284 114.029 126.199L112.923 124.367C108.681 122.815 104.389 121.395 100.081 120.075C96.5984 119.018 93.0991 118.094 89.6163 117.137C86.2635 116.324 83.0371 115.058 80.0262 113.373C75.0743 110.369 71.0468 104.526 73.4237 98.5177C73.6498 97.9472 73.9202 97.3953 74.2325 96.8671C73.4895 97.321 72.7731 97.817 72.0867 98.3526C71.8225 99.0568 71.6343 99.7873 71.5254 100.531C70.6671 106.259 74.4636 111.393 79.1184 114.281C81.9677 115.938 85.0344 117.188 88.2298 117.995C91.6135 119.085 95.0963 119.976 98.5296 120.999Z" fill="white"/>
<path d="M115.019 143.365C117.561 147.409 119.146 152.031 121.622 156.108C121.837 155.563 122.035 155.002 122.216 154.457C121.506 153.186 120.846 151.899 120.252 150.644C117.809 145.495 115.399 139.602 110.348 136.515C106.453 134.155 100.791 133.214 97.0276 136.334C94.9333 138.387 93.6598 141.133 93.4458 144.058C92.9286 147.231 92.9565 150.469 93.5283 153.632C94.8221 159.527 98.1392 164.783 102.904 168.488C107.311 172.268 112.345 175.371 116.34 179.629C117.368 180.693 118.245 181.893 118.948 183.195L118.618 180.257C117.921 179.376 117.165 178.543 116.356 177.764C112.246 173.704 107.278 170.667 102.986 166.821C100.785 164.924 98.8918 162.696 97.3743 160.218C95.6538 157.256 94.6531 153.932 94.4526 150.512C94.073 144.999 94.8653 136.647 101.666 135.739C107.295 134.964 112.131 138.793 115.019 143.365Z" fill="white"/>
<path d="M81.0165 124.449C85.0771 129.318 84.3178 136.251 81.1156 141.335C77.9134 146.419 73.1266 149.423 68.2407 152.295C63.6665 154.662 59.3656 157.524 55.4153 160.829C53.6208 162.474 52.1242 164.418 50.9916 166.573C49.7702 169.016 48.8458 171.987 50.1829 174.579C50.7991 175.603 51.6387 176.475 52.639 177.129C53.6394 177.784 54.7746 178.204 55.96 178.358C58.8158 178.68 61.7008 178.103 64.2132 176.708C67.1937 175.025 70.2628 173.504 73.4072 172.152C76.6257 170.845 80.1639 170.54 83.5586 171.277C88.5105 172.581 93.0167 178.722 89.8475 183.591C86.6783 188.46 78.9863 188.923 77.5007 195.145C76.0647 201.071 82.9973 203.729 87.5365 204.636C93.3997 205.82 99.468 205.484 105.165 203.663C110.662 201.88 116.257 198.546 119.394 193.544C119.592 193.231 119.773 192.901 119.938 192.57L119.641 189.896C118.71 192.606 117.041 195.001 114.821 196.812C110.01 200.88 104.049 203.344 97.7705 203.861C94.6916 204.147 91.5882 204.02 88.5434 203.481C85.6447 203.161 82.8825 202.079 80.5379 200.345C77.9629 198.083 78.2931 194.881 80.5379 192.471C82.7828 190.061 85.4897 189.17 87.9162 187.371C89.0188 186.695 89.9665 185.795 90.6975 184.728C91.4284 183.662 91.9262 182.453 92.1583 181.181C92.3937 178.783 91.7159 176.384 90.2601 174.463C86.6618 169.511 80.4554 168.768 74.8763 170.336C71.7298 171.349 68.7067 172.711 65.8638 174.397C63.1073 175.916 60.0041 177.55 56.7523 177.187C54.0618 176.906 51.1567 175.206 50.8926 172.235C50.6285 169.264 52.4442 166.342 54.1939 164.196C57.4951 160.119 62.1169 157.445 66.557 154.87C70.9972 152.295 76.0481 149.473 79.7621 145.462C83.6575 141.186 86.15 135.442 84.9616 129.599C84.5357 127.027 83.2784 124.666 81.3823 122.877C79.4861 121.088 77.0558 119.971 74.4636 119.695C72.0104 119.503 69.5691 120.194 67.5804 121.643C65.4777 123.423 64.1175 125.926 63.7675 128.658C63.2063 131.629 63.1898 134.765 62.0014 137.605C60.8468 140.316 58.9027 142.616 56.4223 144.207C54.5784 145.478 52.412 146.201 50.1743 146.292C47.9365 146.382 45.7189 145.837 43.7784 144.719L43.2337 145.973C44.7461 146.874 46.4353 147.437 48.1856 147.624C50.8521 147.774 53.5107 147.212 55.889 145.997C58.2673 144.782 60.2798 142.956 61.7207 140.708C63.2402 138.289 64.1676 135.546 64.4278 132.702C64.8404 129.764 65.055 126.479 66.9037 124.02C70.3535 119.365 77.5998 120.322 81.0165 124.449Z" fill="white"/>
<path d="M40.081 167.283C40.7866 165.297 41.0747 163.188 40.927 161.086C40.7793 158.984 40.199 156.935 39.2226 155.068C38.975 155.629 38.744 156.174 38.5294 156.719L38.6119 156.917C40.4771 161.588 40.0975 168.471 35.3107 171.261C34.3721 171.833 33.3175 172.188 32.224 172.301L31.7288 173.572C33.5851 173.461 35.3674 172.805 36.8529 171.686C38.3384 170.568 39.4612 169.036 40.081 167.283Z" fill="white"/>
<path d="M25.2253 190.656L34.931 190.326C41.616 190.094 48.8623 189.269 55.2667 191.679C60.3506 193.577 64.5762 198.48 64.1306 204.158C63.9752 206.062 63.0949 207.835 61.6712 209.11H63.4703C64.5474 207.62 65.2111 205.871 65.3937 204.042C65.5764 202.213 65.2715 200.368 64.5102 198.694C62.3644 193.379 57.5115 190.441 52.048 189.335C45.4455 188.015 38.2652 188.823 31.5142 189.055L25.7039 189.253C25.6049 189.764 25.4399 190.21 25.2253 190.656Z" fill="white"/>
<path d="M87.5035 163.998C91.7527 163.792 96.0114 163.891 100.246 164.295C102.343 164.526 104.422 164.856 106.502 165.236C107.542 165.418 108.566 165.566 109.622 165.715C110.711 165.906 111.821 165.956 112.923 165.863C112.945 165.863 112.966 165.872 112.981 165.887C112.997 165.903 113.006 165.924 113.006 165.946C113.006 165.968 112.997 165.989 112.981 166.004C112.966 166.02 112.945 166.028 112.923 166.028C111.898 166.216 110.861 166.338 109.82 166.391C108.811 166.421 107.802 166.377 106.799 166.259C104.67 166.045 102.557 165.731 100.428 165.484C96.1198 165.005 91.8281 164.526 87.5035 164.361C87.4553 164.361 87.4092 164.342 87.3751 164.308C87.3411 164.274 87.3219 164.228 87.3219 164.18C87.3219 164.131 87.3411 164.085 87.3751 164.051C87.4092 164.017 87.4553 163.998 87.5035 163.998Z" fill="#263238"/>
<path d="M77.6657 169.181C81.0694 168.328 84.5195 167.672 87.9987 167.217C89.7318 166.986 91.4815 166.87 93.2311 166.788H95.74C96.6644 166.788 97.5888 166.887 98.5132 166.87C98.6122 166.87 98.6287 167.002 98.5132 167.019C97.6548 167.019 96.8625 167.25 95.9217 167.365L93.3136 167.662C91.663 167.861 89.8474 168.075 88.0977 168.257C84.6149 168.636 81.1486 169.049 77.6823 169.528C77.5172 169.495 77.5007 169.231 77.6657 169.181Z" fill="#263238"/>
<path d="M65.7483 102.76C45.7262 117.351 -7.6221 177.038 2.80986 191.894C13.2418 206.749 87.5035 203.795 109.308 198.133C115.779 196.482 100.345 155.068 93.5449 152.856C87.8667 151.024 55.5804 158.898 55.0027 157.016C54.4249 155.134 61.8693 141.55 73.9849 117.12C87.9492 88.8616 74.5956 96.3059 65.7483 102.76Z" fill="#AD6359"/>
<path d="M125.336 146.518C140.191 147.277 143.856 149.819 156.698 143.761C165.132 139.833 171.273 143.53 165.396 151.222C155.806 163.816 136.478 166.837 129.479 165.962L125.336 146.518Z" fill="#AD6359"/>
<path d="M84.3343 152.988C84.3343 152.988 102.277 147.112 118.156 146.386C129.132 145.874 153.132 147.409 171.108 174.859C175.366 181.363 176.835 193.66 166.007 185.555C158.315 179.795 155.179 173.836 150.095 171.294C150.095 171.294 150.095 187.156 143.493 191.101C137.667 194.613 131.6 197.708 125.336 200.361C124.586 199.308 123.907 198.205 123.306 197.06C123.306 197.06 116.703 200.229 106.024 197.06L84.3343 152.988Z" fill="#AD6359"/>
<path d="M128.703 147.574C133.226 151.156 142.651 158.914 148.164 167.927C154.288 177.962 163.383 198.909 155.938 203.365C150.475 206.667 146.299 198.925 146.299 198.925C146.299 198.925 148.247 208.383 142.667 210.249C137.584 211.899 134.711 205.792 134.711 205.792C134.711 205.792 134.893 211.734 129.76 212.394C123.487 213.22 124.131 200.642 117.05 196.004C115.383 194.997 128.703 147.574 128.703 147.574Z" fill="#AD6359"/>
<path d="M136.494 172.631C142.365 180.118 145.82 189.214 146.398 198.711C146.398 198.958 146.216 199.09 146.167 198.859C143.975 189.774 140.688 180.989 136.379 172.697L136.494 172.631Z" fill="#263238"/>
<path d="M126.557 179.118C129.38 182.947 135.058 194.947 134.909 205.726C134.909 205.974 134.728 206.089 134.678 205.874C132.95 196.688 130.181 187.728 126.425 179.167L126.557 179.118Z" fill="#263238"/>
<path d="M150.128 171.145C154.552 173.44 157.177 176.345 160.61 179.861C162.287 181.616 164.067 183.269 165.941 184.812C167.592 186.215 170.167 188.328 172.544 187.107C173.126 186.7 173.587 186.143 173.878 185.494C174.168 184.846 174.278 184.131 174.194 183.426C173.992 181.408 173.468 179.435 172.643 177.583C172.643 177.5 172.742 177.451 172.775 177.583C173.588 179.285 174.224 181.066 174.673 182.898C174.963 184.146 174.865 185.453 174.393 186.645C173.204 189.104 170.084 188.856 168.054 187.734C166.873 187.01 165.767 186.17 164.753 185.225C163.746 184.35 162.772 183.426 161.831 182.485C159.884 180.537 158.051 178.491 156.137 176.526C154.254 174.666 152.259 172.924 150.161 171.31C149.947 171.294 150.029 171.145 150.128 171.145Z" fill="#263238"/>
<path d="M156.78 189.665C154.928 183.406 152.667 177.274 150.013 171.31C150.013 171.31 150.013 171.162 150.128 171.31C153.116 175.486 157.226 185.852 158.035 189.071C159.073 192.461 159.416 196.027 159.042 199.553C158.101 204.504 154.667 204.769 153.413 204.769C151.929 204.756 150.494 204.231 149.352 203.283C148.039 202.077 146.983 200.617 146.249 198.991C146.249 198.991 146.249 198.843 146.365 198.991C147.702 201.253 150.161 203.712 152.967 203.943C154.164 204.04 155.35 203.66 156.269 202.887C157.227 201.844 157.778 200.49 157.82 199.074C158.026 195.901 157.674 192.717 156.78 189.665Z" fill="#263238"/>
<path d="M84.3343 152.988L97.8529 205.264C97.8529 205.264 5.03815 208.103 0.333862 191.134C-4.37042 174.166 41.8802 120.157 60.8459 105.549C82.8322 88.6139 83.7896 95.9757 76.3948 113.373C68.5708 131.53 55.2502 157.462 55.2502 157.462L84.3343 152.988Z" fill="#5BA4A4"/>
<path d="M76.6424 112.598C76.8405 112.152 77.0055 111.723 77.187 111.31C73.6712 108.009 71.5089 103.387 73.3741 98.6167C73.6067 98.014 73.894 97.4338 74.2324 96.8835C73.6382 97.1311 72.9945 97.4448 72.3012 97.8079C71.9 98.7072 71.6224 99.6567 71.4759 100.63C71.2524 102.9 71.6092 105.188 72.5129 107.282C73.4166 109.375 74.8377 111.204 76.6424 112.598ZM50.9916 166.573C52.1242 164.418 53.6207 162.474 55.4153 160.829C57.1741 159.222 59.0808 157.785 61.1099 156.537L64.4112 156.025C60.5076 158.09 57.0119 160.848 54.0948 164.163C52.4441 166.309 50.5789 169.363 50.7935 172.202C51.0081 175.041 53.9627 176.856 56.6532 177.154C59.9545 177.517 63.0082 175.883 65.7647 174.364C68.6076 172.678 71.6307 171.316 74.7772 170.303C80.0922 168.801 85.9849 169.412 89.6328 173.77L91.8117 182.221C91.1015 184.336 89.6852 186.143 87.8005 187.338C85.3576 188.989 82.4856 190.193 80.4223 192.438C78.359 194.683 77.8803 198.05 80.4223 200.312C82.7669 202.046 85.5291 203.128 88.4278 203.448C91.3848 203.976 94.3987 204.109 97.3907 203.844L97.7208 205.132C94.2802 205.46 90.81 205.282 87.4209 204.603C82.8817 203.696 75.8665 201.038 77.3851 195.112C78.8707 188.922 86.6122 188.394 89.7318 183.558C92.8515 178.722 88.3453 172.548 83.443 171.244C80.0483 170.507 76.5101 170.812 73.2916 172.119C70.1472 173.471 67.0781 174.992 64.0976 176.675C61.5852 178.07 58.7002 178.647 55.8444 178.325C54.659 178.171 53.5239 177.751 52.5235 177.096C51.5232 176.442 50.6835 175.57 50.0672 174.546C48.8458 171.987 49.7701 169.016 50.9916 166.573ZM61.6547 140.675C60.2138 142.923 58.2012 144.749 55.8229 145.964C53.4446 147.179 50.7861 147.741 48.1195 147.591C45.5952 147.274 43.2144 146.241 41.2578 144.615C39.3012 142.989 37.8504 140.837 37.0768 138.413C34.0067 128.741 44.0589 123.178 50.6614 118.721C53.9627 116.493 57.5611 113.769 58.7826 109.874C59.0831 108.901 59.228 107.888 59.2118 106.87L60.4002 105.896C60.677 108.234 60.1845 110.598 58.9972 112.631C54.6891 120.075 44.9173 121.973 39.9819 128.856C38.5878 130.711 37.845 132.974 37.8691 135.294C38.0149 138.035 39.1463 140.632 41.0549 142.606C42.9861 144.649 45.5872 145.93 48.384 146.214C51.1807 146.499 53.9868 145.769 56.2901 144.157C58.7706 142.567 60.7147 140.266 61.8693 137.555C63.0577 134.716 63.0742 131.58 63.6354 128.609C63.9854 125.876 65.3457 123.373 67.4484 121.593C69.2202 120.285 71.3699 119.59 73.5721 119.613L72.9614 120.966C71.7763 120.979 70.6095 121.261 69.5488 121.79C68.4882 122.319 67.5612 123.081 66.8377 124.02C64.989 126.479 64.7744 129.764 64.3617 132.702C64.0965 135.535 63.1692 138.266 61.6547 140.675ZM40.081 167.283C39.6836 168.455 39.0554 169.535 38.2334 170.46C37.4114 171.385 36.4123 172.136 35.2951 172.669C34.178 173.201 32.9655 173.504 31.7292 173.56C30.4929 173.616 29.258 173.423 28.0974 172.994C22.2212 170.848 18.5238 165.038 15.9323 159.69C15.5196 158.832 15.1235 158.039 14.7768 157.098L15.6517 155.827C16.8169 158.77 18.2711 161.59 19.9929 164.246C23.0465 168.917 29.4014 174.81 35.3272 171.261C40.0975 168.389 40.4771 161.588 38.6284 156.917C37.2921 153.924 35.5235 151.143 33.3794 148.664C31.3327 146.105 29.2364 143.596 27.3217 140.939L27.1731 140.741L28.0479 139.684C29.2694 141.335 30.5239 142.986 31.8444 144.636C33.8739 147.024 35.7801 149.514 37.5555 152.097C40.411 156.603 42.0617 162.05 40.081 167.283ZM0.350372 185.555C3.02445 187.594 6.19122 188.887 9.52785 189.302C13.0358 189.687 16.5712 189.759 20.0919 189.517L31.6463 189.121C38.3974 188.889 45.4951 188.081 52.1801 189.401C57.6437 190.491 62.4965 193.445 64.6423 198.76C65.4997 200.791 65.7519 203.027 65.3686 205.198H64.1141C64.1801 204.868 64.2297 204.537 64.2627 204.207C64.7084 198.529 60.4828 193.627 55.3988 191.729C48.9944 189.319 41.7481 190.078 35.0631 190.375L23.5087 190.771C19.9269 190.887 16.3119 191.118 12.7301 190.953C9.46529 190.907 6.241 190.223 3.23897 188.939C2.14157 188.435 1.10124 187.816 0.135788 187.09C0.153053 186.576 0.202713 186.063 0.284386 185.555H0.350372Z" fill="white"/>
<path d="M84.1197 152.84C83.641 152.84 57.7097 156.224 56.9009 156.438C57.0659 156.092 63.9325 143.992 64.9394 142.226L65.2365 141.682C65.8473 140.922 66.458 140.179 67.0358 139.387L69.231 136.367L66.9037 139.272L65.8803 140.658L67.894 136.878C68.9669 134.848 69.9739 132.801 70.9643 130.738H70.8652C68.8515 134.27 66.7221 137.72 64.6918 141.252C62.6615 144.785 54.9861 157.759 55.0191 157.676C55.0522 157.594 83.641 153.385 84.2022 153.269C84.2591 153.258 84.3093 153.225 84.3418 153.177C84.3743 153.129 84.3865 153.07 84.3756 153.013C84.3647 152.956 84.3315 152.906 84.2835 152.873C84.2355 152.841 84.1766 152.829 84.1197 152.84Z" fill="#263238"/>
<path d="M79.696 184.35C78.227 178.524 76.7909 172.697 75.1072 166.92C74.1334 163.618 73.1926 160.317 72.2022 157.098C72.2022 156.966 71.9546 157.016 71.9711 157.098C73.2256 162.991 74.4966 168.917 76.0152 174.76C77.5338 180.603 78.9863 186.414 80.5709 192.207C81.4788 195.509 82.4691 198.81 83.575 201.996C83.575 201.996 83.707 201.996 83.6905 201.996C82.7002 196.086 81.2311 190.227 79.696 184.35Z" fill="#263238"/>
<path d="M98.8597 206.221C98.249 204.57 97.5393 202.243 96.8625 200.625C96.681 200.196 96.3838 200.213 96.4994 200.625C96.9285 202.095 97.1926 203.712 97.6052 205.198H93.7098H89.2036C86.2655 205.198 83.3273 205.198 80.3892 205.198C74.447 205.198 68.4882 204.983 62.546 204.686C50.6072 204.198 38.7015 203.096 26.8759 201.385C23.5747 200.873 20.2734 200.295 16.9722 199.619C13.6709 198.942 10.0726 198.166 7.38204 197.291C7.38204 197.291 7.24999 197.407 7.38204 197.44C10.0578 198.562 12.8172 199.472 15.6352 200.163C18.5733 200.873 21.5444 201.517 24.5156 202.045C30.4413 203.118 36.433 203.877 42.4248 204.471C54.3093 205.638 66.2269 206.309 78.1774 206.485C81.4787 206.485 84.8294 206.485 88.2297 206.485C89.8803 206.485 91.531 206.485 93.2806 206.403C95.1421 206.503 97.0087 206.442 98.8597 206.221Z" fill="#263238"/>
<path d="M101.831 214.854H211.317V219.756H101.831V214.854Z" fill="#C7C7C7"/>
<path d="M211.317 214.854V219.756H136.874L140.637 214.854H211.317Z" fill="#A6A6A6"/>
<path d="M145.358 219.756H252.071L260.951 147.294H154.238L145.358 219.756Z" fill="#C7C7C7"/>
<path d="M196.659 183.525C196.642 184.373 196.794 185.217 197.108 186.005C197.421 186.794 197.89 187.511 198.485 188.116C199.08 188.721 199.791 189.2 200.574 189.526C201.358 189.851 202.199 190.017 203.047 190.012C204.779 190.012 206.441 189.332 207.676 188.119C208.911 186.906 209.62 185.256 209.65 183.525C209.667 182.676 209.515 181.832 209.202 181.042C208.889 180.253 208.421 179.534 207.825 178.928C207.23 178.322 206.52 177.841 205.736 177.514C204.953 177.187 204.111 177.019 203.262 177.022C201.528 177.021 199.863 177.703 198.628 178.92C197.393 180.137 196.685 181.791 196.659 183.525Z" fill="white"/>
<path d="M77.7648 98.7488C78.1114 100.564 86.2324 112.647 94.5021 112.614C97.1926 112.614 97.8033 97.8905 97.8033 97.8905L98.084 96.8176L102.128 81.7639L84.6479 69.5657L82.1224 67.9151C82.1224 67.9151 81.2971 72.1077 80.3067 77.3402L80.1582 78.0829C80.1582 78.3801 80.0426 78.6607 79.9931 78.9248C79.828 79.7171 79.6795 80.5754 79.531 81.3017C79.3824 82.028 79.3163 82.5066 79.2338 83.1339C79.1512 83.7611 79.0358 84.4048 78.9202 85.0486C78.2276 89.5842 77.8415 94.1613 77.7648 98.7488Z" fill="#AD6359"/>
<path d="M80.3728 77.3567C81.7275 81.6941 84.0086 85.6853 87.0582 89.0541C90.1078 92.4228 93.8529 95.0887 98.0345 96.8671L102.079 81.8134L84.6479 69.5657L82.1224 67.9151C82.1224 67.9151 81.3466 72.1077 80.3728 77.3567Z" fill="#263238"/>
<path d="M66.8047 56.4597C66.2064 56.6572 65.5739 56.7297 64.9465 56.673C64.319 56.6162 63.7099 56.4313 63.1567 56.1296C62.8266 55.8985 62.546 55.6179 62.2159 55.4033C61.7185 55.107 61.1429 54.9689 60.5652 55.0072C59.8968 55.0295 59.2278 54.9853 58.568 54.8751C57.5308 54.7922 56.5401 54.4095 55.7165 53.7735C54.893 53.1376 54.2723 52.2758 53.9298 51.2933C52.4609 51.6741 50.9056 51.5374 49.5258 50.9061C48.1459 50.2747 47.0256 49.1874 46.3534 47.827C46.1822 47.4563 46.0495 47.0692 45.9572 46.6715C45.9185 46.0953 45.7612 45.5334 45.4951 45.0209C45.0502 44.6052 44.5363 44.2701 43.9765 44.0305C43.5693 43.7892 43.1877 43.5071 42.8375 43.1887C42.3573 42.7806 42.0445 42.2096 41.9592 41.5852C41.8739 40.9608 42.0222 40.3268 42.3754 39.8049C41.6198 39.463 40.981 38.9071 40.538 38.2059C40.095 37.5048 39.8673 36.6891 39.8829 35.8599C39.8293 34.8089 40.0036 33.7588 40.3939 32.7816C40.7843 31.8043 41.3814 30.9231 42.1443 30.1983C41.7297 29.6888 41.4206 29.102 41.235 28.4719C41.0493 27.8418 40.9909 27.1811 41.0631 26.5282C41.1353 25.8754 41.3367 25.2434 41.6555 24.6691C41.9743 24.0948 42.4041 23.5897 42.92 23.1831C42.6127 22.6285 42.4273 22.0148 42.3761 21.3828C42.3249 20.7509 42.4092 20.1152 42.6232 19.5184C42.8373 18.9216 43.1761 18.3773 43.6173 17.922C44.0585 17.4666 44.5918 17.1106 45.1815 16.8777C45.103 15.8022 45.2891 14.7239 45.7236 13.7369C46.1581 12.75 46.8276 11.8845 47.6739 11.2161C48.0165 10.953 48.2935 10.614 48.4827 10.2257C48.3566 9.4978 48.3948 8.75091 48.5948 8.03974C48.7947 7.32857 49.1511 6.67115 49.6381 6.11563C50.178 5.53744 50.8849 5.14231 51.6603 4.98546C52.4356 4.82862 53.2406 4.9179 53.9627 5.2408C54.6218 4.21749 55.5234 3.37268 56.5873 2.78136C57.3327 2.33691 58.1804 2.09271 59.048 2.07246C59.9156 2.05222 60.7738 2.25661 61.5392 2.66581C62.1756 1.8769 62.9721 1.23204 63.8763 0.773817C64.7804 0.315592 65.7715 0.0544457 66.784 0.00764156C67.7965 -0.0391626 68.8074 0.129443 69.75 0.502306C70.6925 0.875169 71.5452 1.4438 72.2517 2.17064C72.8563 1.3506 73.6892 0.72691 74.6462 0.377557C75.6033 0.0282035 76.6421 -0.031325 77.6328 0.206389C79.977 0.887022 81.9873 2.40945 83.2779 4.48151C83.8862 3.87667 84.689 3.50674 85.5441 3.43725C86.3991 3.36776 87.2512 3.6032 87.9492 4.10187C88.4759 4.51144 88.8922 5.04596 89.1603 5.65699C89.4283 6.26802 89.5396 6.93625 89.4843 7.60119C90.9269 7.95423 92.1724 8.86161 92.9506 10.1266C93.2628 10.6858 93.4056 11.3237 93.3617 11.9626C93.3177 12.6016 93.0888 13.2139 92.703 13.725C93.4766 14.0433 94.1568 14.5524 94.6804 15.2047C95.204 15.857 95.5539 16.6314 95.6973 17.4555C95.8407 18.2796 95.773 19.1266 95.5005 19.9175C95.228 20.7083 94.7596 21.4173 94.139 21.9782C95.2785 22.1743 96.3354 22.7004 97.1787 23.4914C98.0221 24.2823 98.6148 25.3032 98.8837 26.4277C99.1525 27.5523 99.0856 28.7309 98.6912 29.8178C98.2967 30.9046 97.5921 31.8519 96.6645 32.5422C97.5154 33.1135 98.181 33.9207 98.5797 34.8648C98.9785 35.8089 99.093 36.8489 98.9094 37.8572C98.6448 39.0399 98.1069 40.1441 97.3387 41.0815C96.5705 42.0188 95.5934 42.7631 94.4857 43.2547C94.9477 44.1839 95.1267 45.2282 95.0005 46.2581C94.8743 47.2881 94.4486 48.2583 93.7759 49.0484C93.146 49.7378 92.3818 50.291 91.5302 50.6742C90.6786 51.0574 89.7578 51.2625 88.8241 51.2768C89.7442 51.6449 90.7537 51.7284 91.7218 51.5165C92.69 51.3046 93.5723 50.8071 94.2546 50.0883C95.07 49.1484 95.5446 47.9608 95.6015 46.7178C95.6584 45.4747 95.2943 44.2488 94.5682 43.2382C95.4533 44.2278 95.9427 45.5089 95.9427 46.8366C95.9427 48.1643 95.4533 49.4454 94.5682 50.4349C93.6876 51.3277 92.5355 51.9028 91.2927 52.0701C90.05 52.2374 88.7869 51.9874 87.7015 51.3593C87.8822 52.5213 87.7263 53.7107 87.2523 54.7869C86.7783 55.863 86.006 56.7809 85.0267 57.432C84.0475 58.0831 82.9022 58.4401 81.7265 58.4609C80.5507 58.4816 79.3937 58.1652 78.3921 57.5491C75.5035 61.9233 68.4058 62.0554 66.8047 56.4597ZM48.6478 9.49942V9.33435C48.7666 8.89691 48.9384 8.47563 49.1595 8.07988C49.6855 7.19793 50.4608 6.49145 51.3878 6.0496C51.8327 5.83707 52.3049 5.68712 52.7909 5.60394C53.055 5.60394 53.5996 5.60394 53.5996 5.60394C53.6269 5.54046 53.6601 5.47967 53.6987 5.42237C52.8982 5.21058 52.0514 5.25601 51.2781 5.55226C50.5049 5.84851 49.8446 6.38056 49.3906 7.073C48.9428 7.80358 48.703 8.64257 48.6972 9.49942H48.6478ZM88.9726 7.45264C89.056 6.87312 88.9838 6.28183 88.7633 5.73942C88.5429 5.19702 88.1821 4.72301 87.7181 4.36597C87.0731 3.89684 86.2844 3.66806 85.4886 3.71931C84.6927 3.77056 83.9398 4.0986 83.3604 4.64658V4.74561C84.0687 4.40607 84.8637 4.29052 85.6393 4.41438C86.4149 4.53825 87.1343 4.89563 87.7015 5.43887C88.3299 5.9659 88.7892 6.66628 89.0221 7.45264H88.9726ZM76.3948 58.9027C74.8277 59.7828 72.9795 60.0182 71.2417 59.5591C69.504 59.1 68.0132 57.9825 67.0852 56.4432C68.9504 61.0155 73.0935 61.0485 76.3948 58.9027Z" fill="#263238"/>
<path d="M121.391 53.109C129.479 79.2384 114.788 87.0459 109.11 88.779C103.993 90.4297 86.3647 95.0844 75.6191 69.9288C64.8735 44.7733 74.4636 32.7567 85.9685 28.5146C97.4733 24.2725 113.303 26.9796 121.391 53.109Z" fill="#AD6359"/>
<path d="M116.307 49.7417C115.683 49.8267 115.055 49.8708 114.425 49.8737C113.768 50.0155 113.083 49.9342 112.477 49.6427C112.305 49.5156 112.179 49.3352 112.119 49.1292C112.059 48.9233 112.069 48.7034 112.147 48.5037C112.363 48.133 112.675 47.8271 113.049 47.618C113.424 47.4089 113.848 47.3043 114.277 47.3153C115.153 47.1928 116.043 47.4049 116.769 47.9095C116.924 48.0343 117.04 48.2008 117.103 48.3894C117.166 48.5781 117.174 48.7808 117.125 48.9737C117.076 49.1665 116.973 49.3414 116.828 49.4775C116.683 49.6136 116.502 49.7053 116.307 49.7417Z" fill="#263238"/>
<path d="M98.2491 54.8421C98.8161 54.5772 99.3673 54.2796 99.8997 53.9508C100.543 53.6042 101.088 53.4061 101.435 52.7293C101.516 52.53 101.527 52.3092 101.467 52.1026C101.407 51.896 101.28 51.7156 101.105 51.5904C100.724 51.39 100.297 51.2949 99.8675 51.3153C99.4379 51.3356 99.0216 51.4705 98.6618 51.7059C97.8635 52.07 97.2284 52.7169 96.8791 53.5216C96.4994 54.347 97.4733 55.1723 98.2491 54.8421Z" fill="#263238"/>
<path d="M104.274 60.1076C104.274 60.1076 104.158 60.2397 104.175 60.3057C104.786 62.0719 105.182 64.1847 103.762 65.2576C103.762 65.2576 103.762 65.3896 103.762 65.3566C105.693 64.4818 105.132 61.6757 104.274 60.1076Z" fill="#263238"/>
<path d="M102.095 58.7376C99.1735 59.4143 100.725 65.2245 103.449 64.5973C106.172 63.9701 104.555 58.1764 102.095 58.7376Z" fill="#263238"/>
<path d="M101.039 59.3483C100.626 59.827 100.279 60.5368 99.6851 60.7513C99.0909 60.9659 98.2987 60.5533 97.6879 60.0911C97.6879 60.0911 97.5724 60.0911 97.6879 60.1901C97.9685 61.3126 98.6948 62.3359 99.9327 62.1709C101.171 62.0058 101.583 60.8339 101.583 59.6454C101.468 59.4308 101.154 59.1667 101.039 59.3483Z" fill="#263238"/>
<path d="M114.161 57.0374C114.161 57.0374 114.326 57.0374 114.343 57.1695C114.755 58.9852 115.531 60.9989 117.314 61.164C117.314 61.164 117.396 61.263 117.314 61.263C115.267 61.5106 114.26 58.9026 114.161 57.0374Z" fill="#263238"/>
<path d="M115.284 54.7431C118.123 53.7692 119.872 59.5134 117.231 60.4212C114.59 61.3291 112.907 55.6014 115.284 54.7431Z" fill="#263238"/>
<path d="M116.604 54.7596C117.149 54.9247 117.759 55.3373 118.255 55.2053C118.75 55.0732 119.162 54.2974 119.394 53.5546C119.394 53.5546 119.393 53.5546 119.493 53.5546C119.856 54.644 119.839 55.8985 118.849 56.4267C117.858 56.9549 116.951 56.1791 116.356 55.1557C116.307 55.0402 116.373 54.6771 116.604 54.7596Z" fill="#263238"/>
<path d="M113.699 66.3305C113.699 66.3305 114.821 68.9055 115.184 70.1764C115.184 70.292 114.92 70.4406 114.508 70.5726C113.478 71.0756 112.33 71.2862 111.189 71.1814C110.048 71.0766 108.958 70.6605 108.037 69.9784C108.022 69.9697 108.009 69.9581 107.998 69.9443C107.987 69.9305 107.979 69.9147 107.975 69.8978C107.97 69.881 107.969 69.8634 107.971 69.8461C107.973 69.8287 107.979 69.812 107.988 69.7968C107.996 69.7816 108.008 69.7683 108.022 69.7576C108.036 69.7469 108.051 69.739 108.068 69.7344C108.085 69.7299 108.103 69.7286 108.12 69.7308C108.137 69.733 108.154 69.7386 108.169 69.7473C110.093 70.3832 112.171 70.3832 114.095 69.7473C114.095 69.3677 112.032 65.4061 112.23 65.3236C113.236 65.1371 114.264 65.0871 115.284 65.1751C113.088 59.7445 110.051 54.7101 107.955 49.263C107.944 49.2232 107.947 49.1808 107.964 49.143C107.98 49.1052 108.009 49.074 108.045 49.0548C108.082 49.0356 108.124 49.0294 108.164 49.0372C108.205 49.0451 108.242 49.0665 108.268 49.0979C111.685 54.397 114.571 60.0198 116.885 65.8848C117.132 66.6276 114.26 66.413 113.699 66.3305Z" fill="#263238"/>
<path d="M77.2035 68.8064C82.2875 68.8064 82.1554 57.153 82.1554 57.153C82.1554 57.153 103.019 50.7981 102.59 33.2024C106.191 39.9007 112.222 44.9635 119.443 47.3483C119.443 47.3483 116.241 28.4156 100.675 26.6494C100.675 26.6494 81.0825 22.2422 72.4497 38.4514C63.8169 54.6605 73.7867 68.8064 77.2035 68.8064Z" fill="#263238"/>
<path d="M102.458 31.9479C103.036 34.6019 103.036 37.3491 102.458 40.003C101.943 42.6986 100.881 45.2601 99.3385 47.5299C98.9545 48.1052 98.5355 48.6564 98.084 49.1805L97.4237 49.9728L96.6975 50.6991C96.1858 51.1612 95.7071 51.6399 95.1954 52.0856L93.5448 53.274C93.2642 53.4556 93.0001 53.6702 92.703 53.8518L91.8117 54.3304L90.029 55.2878C88.791 55.816 87.52 56.2782 86.2655 56.7073C87.4209 56.0141 88.626 55.4529 89.7484 54.7596L91.399 53.6867L92.2243 53.142L92.9836 52.5148C93.4787 52.0856 93.9739 51.6729 94.5021 51.2768C95.0303 50.8806 95.41 50.3524 95.8722 49.8902L96.549 49.197L97.1597 48.4212C97.5816 47.9284 97.9729 47.4102 98.3316 46.8696C99.7991 44.7213 100.888 42.3374 101.55 39.8214C101.895 38.5561 102.132 37.2641 102.26 35.959C102.444 34.6304 102.51 33.2882 102.458 31.9479Z" fill="#263238"/>
<path d="M79.333 78.4131C79.7658 78.4692 80.2041 78.4692 80.6369 78.4131C81.0699 78.4014 81.4986 78.3234 81.908 78.182C82.4394 78.0031 82.9283 77.7165 83.344 77.3402C83.6697 77.0512 83.953 76.7178 84.1857 76.3498C84.5039 75.8422 84.7328 75.284 84.8625 74.6992L81.8419 67.8655C81.8419 67.8655 74.183 60.8009 70.8653 63.706C67.5475 66.6111 74.5297 77.7363 79.333 78.4131Z" fill="#AD6359"/>
<path d="M72.945 66.8257V66.9412C76.3288 67.5354 78.6067 70.0609 80.4059 72.8174C80.1563 72.5433 79.8501 72.3268 79.5085 72.1827C79.167 72.0387 78.7981 71.9706 78.4276 71.9831C78.0571 71.9957 77.6938 72.0886 77.3627 72.2555C77.0317 72.4223 76.7409 72.6591 76.5104 72.9495C76.5104 72.9495 76.5105 73.1311 76.6425 73.098C77.153 72.7906 77.7481 72.6537 78.3417 72.7071C78.9352 72.7605 79.4963 73.0015 79.9438 73.3951C80.6847 74.0426 81.3542 74.7675 81.9409 75.5575C82.1555 75.8051 82.6177 75.5575 82.4526 75.2438C81.5943 71.1833 77.2862 66.2975 72.945 66.8257Z" fill="#263238"/>
<path d="M79.4484 77.2081C79.5064 77.3725 79.5976 77.5232 79.7163 77.6509C79.835 77.7786 79.9787 77.8805 80.1384 77.9503C80.2982 78.02 80.4706 78.0562 80.645 78.0565C80.8193 78.0568 80.9918 78.0212 81.1518 77.952C81.3118 77.8828 81.4558 77.7814 81.575 77.6541C81.6941 77.5269 81.7858 77.3764 81.8444 77.2122C81.9029 77.048 81.927 76.8735 81.9152 76.6996C81.9034 76.5257 81.856 76.356 81.7758 76.2012C81.7179 76.0368 81.6267 75.886 81.508 75.7584C81.3893 75.6307 81.2456 75.5288 81.0858 75.459C80.9261 75.3892 80.7537 75.3531 80.5794 75.3528C80.4051 75.3525 80.2325 75.388 80.0725 75.4573C79.9125 75.5265 79.7684 75.6279 79.6493 75.7551C79.5302 75.8824 79.4384 76.0328 79.3799 76.197C79.3214 76.3613 79.2973 76.5358 79.3091 76.7097C79.3209 76.8836 79.3683 77.0533 79.4484 77.2081Z" fill="white"/>
<path d="M76.5104 75.8876C76.5805 76.0494 76.697 76.1867 76.8452 76.2822C76.9935 76.3778 77.1667 76.4272 77.343 76.4242C77.5193 76.4213 77.6908 76.3661 77.8358 76.2657C77.9807 76.1652 78.0926 76.024 78.1573 75.86C78.222 75.696 78.2365 75.5164 78.1992 75.3441C78.1618 75.1718 78.0741 75.0144 77.9473 74.8919C77.8205 74.7694 77.6602 74.6872 77.4867 74.6559C77.3132 74.6245 77.1342 74.6453 76.9725 74.7157C76.8638 74.7605 76.7652 74.8268 76.6827 74.9106C76.6002 74.9944 76.5355 75.094 76.4923 75.2034C76.4492 75.3128 76.4286 75.4298 76.4317 75.5474C76.4348 75.6649 76.4615 75.7806 76.5104 75.8876Z" fill="white"/>
<path d="M77.3026 77.7198C77.5502 78.9412 73.2585 75.3759 72.9779 74.7652C72.6973 74.1544 69.9408 72.7679 69.099 71.6455C67.9591 69.9731 66.986 68.1929 66.1939 66.3304C65.9628 65.4886 64.0315 63.5904 63.7839 62.0883C63.5363 60.5863 61.9682 46.9686 69.5611 36.4541C77.154 25.9396 85.1101 24.0579 85.1101 24.0579C89.0566 22.7833 93.1301 21.9421 97.2587 21.5489C103.944 20.9382 115.96 34.9025 116.043 35.2491C115.967 36.0349 116.057 36.8277 116.307 37.5765C116.769 38.4679 117.958 39.2272 117.561 40.234C117.165 41.2409 118.882 43.2877 119.014 44.2616C119.146 45.2355 119.014 45.4995 119.212 46.1268C119.41 46.754 113.682 30.4458 92.5049 27.8708C92.5049 27.8708 71.905 51.3593 77.3026 77.7198Z" fill="#5BA4A4"/>
<path d="M119.163 45.9453C119.155 46.0052 119.155 46.0659 119.163 46.1259C119.163 46.1259 119.228 46.1095 119.163 45.9453Z" fill="#5BA4A4"/>
<path d="M119.146 45.9453C119.146 45.9453 119.146 46.0602 119.146 46.1259C119.146 46.1916 119.228 46.1095 119.146 45.9453Z" fill="#5BA4A4"/>
<path opacity="0.3" d="M107.064 30.0497C107.269 30.4656 107.632 30.7827 108.071 30.9312C108.511 31.0798 108.992 31.0477 109.407 30.842C109.714 30.6922 109.971 30.4565 110.147 30.1635C110.323 29.8705 110.41 29.5328 110.398 29.1914C109.82 28.6467 109.226 28.1185 108.615 27.5408C108.371 27.5543 108.131 27.6101 107.905 27.7058C107.484 27.9061 107.159 28.265 107.001 28.7041C106.843 29.1433 106.866 29.6271 107.064 30.0497ZM99.1075 27.7718C99.4262 27.6232 99.7823 27.574 100.129 27.6307C100.476 27.6874 100.798 27.8473 101.053 28.0896C101.308 28.3319 101.484 28.6454 101.558 28.9892C101.632 29.3329 101.6 29.691 101.468 30.0167C100.388 29.6038 99.2858 29.2511 98.1666 28.9603C98.2232 28.7039 98.3372 28.4637 98.5002 28.2578C98.6632 28.0519 98.8709 27.8857 99.1075 27.7718ZM111.982 34.886C112.379 34.7326 112.819 34.7292 113.218 34.8765C113.618 35.0238 113.95 35.3116 114.152 35.6861C114.355 36.0606 114.414 36.4961 114.318 36.9109C114.222 37.3258 113.979 37.6915 113.633 37.9397C112.852 37.1342 112.031 36.3685 111.174 35.6453C111.348 35.3065 111.633 35.0382 111.982 34.886ZM75.3385 29.9342C75.5871 30.0981 75.7867 30.3263 75.9162 30.5944C76.1089 31.0153 76.1286 31.495 75.9711 31.9302C75.8137 32.3655 75.4917 32.7215 75.0744 32.9218C74.7073 33.1147 74.281 33.1625 73.8804 33.0554C73.4797 32.9484 73.134 32.6944 72.9121 32.3441C73.7374 31.4693 74.5462 30.6605 75.3385 29.9507V29.9342ZM76.4279 44.5092C76.7405 44.3579 77.091 44.3031 77.4349 44.3518C77.7787 44.4004 78.1004 44.5502 78.3588 44.7822C78.6172 45.0142 78.8008 45.3179 78.886 45.6545C78.9713 45.9912 78.9545 46.3456 78.8377 46.6726C78.7209 46.9997 78.5094 47.2846 78.2302 47.4911C77.9509 47.6975 77.6165 47.8162 77.2696 47.832C76.9226 47.8478 76.5789 47.7601 76.282 47.5798C75.9852 47.3996 75.7487 47.1351 75.6026 46.8201C75.4123 46.4094 75.3884 45.941 75.5361 45.5132C75.6839 45.0853 75.9917 44.7314 76.3949 44.5257L76.4279 44.5092ZM92.9342 22.1267C93.9741 21.9451 95.08 21.7801 96.2354 21.648C96.344 21.8932 96.3942 22.1603 96.382 22.4282C96.3699 22.6961 96.2957 22.9576 96.1654 23.1919C96.0351 23.4263 95.8522 23.6273 95.6311 23.779C95.4099 23.9307 95.1566 24.029 94.891 24.0662C94.6254 24.1034 94.3547 24.0784 94.1004 23.9933C93.8461 23.9081 93.6151 23.7652 93.4254 23.5756C93.2358 23.386 93.0927 23.1549 93.0074 22.9007C92.9222 22.6464 92.8971 22.3758 92.9342 22.1102V22.1267ZM85.2257 26.2368C85.5383 26.0855 85.8889 26.0307 86.2327 26.0793C86.5766 26.1279 86.8983 26.2778 87.1567 26.5098C87.4151 26.7418 87.5986 27.0455 87.6839 27.3821C87.7692 27.7188 87.7523 28.0732 87.6355 28.4002C87.5187 28.7273 87.3073 29.0122 87.028 29.2186C86.7488 29.4251 86.4143 29.5438 86.0674 29.5596C85.7205 29.5754 85.3768 29.4876 85.0799 29.3074C84.783 29.1272 84.5464 28.8627 84.4004 28.5476C84.2063 28.1429 84.1752 27.6791 84.3134 27.252C84.4517 26.825 84.7487 26.4674 85.1432 26.2533L85.2257 26.2368ZM81.6604 35.3317C81.973 35.1805 82.3236 35.1257 82.6674 35.1743C83.0113 35.2229 83.3329 35.3727 83.5913 35.6047C83.8497 35.8367 84.0333 36.1404 84.1186 36.4771C84.2039 36.8137 84.1869 37.1681 84.0701 37.4952C83.9533 37.8222 83.7419 38.1071 83.4626 38.3136C83.1834 38.52 82.849 38.6387 82.5021 38.6546C82.1552 38.6704 81.8114 38.5826 81.5145 38.4024C81.2176 38.2222 80.9811 37.9577 80.8351 37.6426C80.6409 37.2379 80.6098 36.774 80.748 36.347C80.8863 35.9199 81.1834 35.5624 81.5779 35.3482L81.6604 35.3317ZM69.0826 39.3427C69.395 39.1931 69.7447 39.1396 70.0876 39.1889C70.4304 39.2383 70.7509 39.3882 71.0084 39.6198C71.2659 39.8514 71.4489 40.1543 71.5342 40.49C71.6194 40.8256 71.6032 41.1791 71.4874 41.5055C71.3717 41.832 71.1616 42.1167 70.8839 42.3237C70.6061 42.5307 70.2733 42.6505 69.9274 42.6682C69.5815 42.6858 69.2382 42.6004 68.9409 42.4227C68.6436 42.245 68.4056 41.9831 68.2573 41.6701C68.0582 41.2637 68.0243 40.7958 68.1628 40.3649C68.3013 39.934 68.6014 39.5736 69.0001 39.3593L69.0826 39.3427ZM71.0963 52.4487C71.306 52.3258 71.539 52.2479 71.7804 52.22C72.0218 52.192 72.2663 52.2147 72.4985 52.2866C72.7307 52.3584 72.9453 52.4778 73.1288 52.6372C73.3122 52.7966 73.4605 52.9924 73.5641 53.2122C73.6677 53.4321 73.7244 53.6711 73.7305 53.914C73.7367 54.157 73.6921 54.3985 73.5997 54.6233C73.5073 54.8481 73.369 55.0512 73.1938 55.2196C73.0185 55.388 72.8102 55.518 72.5819 55.6014C72.3783 55.7113 72.1539 55.7772 71.9232 55.7947C71.6924 55.8123 71.4606 55.7812 71.2427 55.7033C71.0248 55.6255 70.8257 55.5028 70.6583 55.343C70.4909 55.1833 70.3589 54.9901 70.271 54.7761C70.0719 54.3696 70.038 53.9018 70.1765 53.4709C70.315 53.04 70.6152 52.6795 71.0138 52.4652L71.0963 52.4487ZM75.6191 71.6125C75.9179 71.4738 76.2497 71.4224 76.5764 71.4639C76.5764 72.5864 76.7415 73.7253 76.9066 74.7652C76.4688 74.9359 75.9811 74.9258 75.5508 74.7369C75.1205 74.5481 74.7829 74.1961 74.6122 73.7583C74.4414 73.3205 74.4517 72.8329 74.6405 72.4026C74.8293 71.9723 75.1814 71.6347 75.6191 71.4639V71.6125ZM77.4842 57.12C77.6066 57.0688 77.7338 57.0301 77.864 57.0045C77.6329 58.0278 77.4183 59.0677 77.2367 60.1241C76.9858 59.9557 76.7859 59.7216 76.6589 59.4474C76.4598 59.0409 76.4259 58.5731 76.5644 58.1422C76.7029 57.7113 77.0031 57.3508 77.4017 57.1365L77.4842 57.12ZM64.4938 48.4047C64.8869 48.4009 65.2698 48.5296 65.5808 48.77C65.8918 49.0104 66.1128 49.3485 66.2081 49.7299C66.3035 50.1112 66.2676 50.5136 66.1064 50.8721C65.9451 51.2306 65.6677 51.5243 65.3191 51.7059C65.1019 51.8065 64.8653 51.8586 64.6259 51.8586C64.3865 51.8586 64.1499 51.8065 63.9327 51.7059C63.9822 50.6495 64.1637 49.5766 64.4113 48.4212L64.4938 48.4047ZM70.5187 62.7156C70.7223 62.6057 70.9467 62.5398 71.1774 62.5223C71.4081 62.5047 71.64 62.5359 71.8579 62.6137C72.0758 62.6915 72.2749 62.8143 72.4423 62.974C72.6097 63.1337 72.7416 63.3269 72.8296 63.5409C72.9525 63.7506 73.0303 63.9835 73.0583 64.2249C73.0862 64.4664 73.0635 64.7109 72.9917 64.9431C72.9198 65.1753 72.8004 65.3899 72.6411 65.5734C72.4817 65.7569 72.2859 65.9051 72.066 66.0087C71.8462 66.1123 71.6072 66.1689 71.3642 66.1751C71.1213 66.1812 70.8797 66.1366 70.655 66.0442C70.4302 65.9518 70.227 65.8136 70.0586 65.6384C69.8902 65.4631 69.7602 65.2548 69.6768 65.0265C69.5677 64.8277 69.5008 64.6085 69.4802 64.3827C69.4595 64.1569 69.4857 63.9293 69.5569 63.714C69.6282 63.4987 69.7431 63.3004 69.8943 63.1315C70.0456 62.9626 70.23 62.8266 70.4361 62.7321L70.5187 62.7156ZM68.3068 68.9055C68.4124 69.1272 68.4672 69.3697 68.4672 69.6152C68.4672 69.8608 68.4124 70.1033 68.3068 70.325C67.8611 69.5822 67.3659 68.6744 66.9698 67.9316C67.2307 67.9895 67.4737 68.1098 67.6778 68.2823C67.8819 68.4548 68.0412 68.6744 68.1417 68.922L68.3068 68.9055ZM63.586 57.9783C63.8352 57.9155 64.0951 57.9084 64.3473 57.9574C64.5996 58.0065 64.8379 58.1104 65.0454 58.262C65.2529 58.4135 65.4245 58.6089 65.5479 58.8343C65.6714 59.0596 65.7437 59.3094 65.7597 59.5658C65.7757 59.8223 65.7352 60.0791 65.6407 60.3181C65.5463 60.557 65.4004 60.7722 65.2134 60.9484C65.0263 61.1246 64.8028 61.2575 64.5586 61.3376C64.3144 61.4176 64.0556 61.4429 63.8006 61.4116C63.6344 60.2795 63.5352 59.1386 63.5035 57.9948L63.586 57.9783Z" fill="white"/>
<path opacity="0.1" d="M72.978 74.7652C72.6368 73.5792 72.4102 72.3632 72.3012 71.1338C72.1527 69.9124 72.0536 68.6744 71.9546 67.4529C71.773 64.977 71.5914 62.5011 71.5254 60.0416C71.5254 59.4309 71.5254 58.8037 71.5254 58.2094C71.5942 57.6137 71.727 57.0271 71.9215 56.4598C72.3012 55.2878 72.7634 54.1324 73.1925 52.9769C73.6217 51.8215 74.1169 50.6826 74.5955 49.5436L76.0317 46.1268C74.9093 48.3387 73.8693 50.5835 72.8954 52.8614C72.4003 53.9618 71.9546 55.1173 71.5584 56.3277C71.3327 56.9284 71.1829 57.555 71.1127 58.1929C71.1127 58.8202 71.1127 59.4309 71.1127 60.0581C71.2118 62.5341 71.3769 65.01 71.641 67.4694C71.773 68.7074 71.9215 69.9454 72.1196 71.1668C72.2186 71.7776 72.3177 72.3883 72.4497 72.999C72.5605 73.6053 72.7376 74.1976 72.978 74.7652Z" fill="#050400"/>
<path opacity="0.1" d="M70.0894 49.4446C69.3109 50.7044 68.6214 52.0171 68.0261 53.3731C67.4198 54.7266 66.9123 56.1223 66.5075 57.5491C66.092 58.975 65.8318 60.4416 65.7317 61.9233C65.6198 63.4082 65.7764 64.9011 66.1939 66.3305C66.1939 65.9673 66.0948 65.6042 66.0288 65.2411C66.0124 65.0599 66.0124 64.8776 66.0288 64.6964V64.1351C66.0288 63.9536 66.0288 63.772 66.0288 63.5904V63.0457C66.0288 62.6826 66.0288 62.3195 66.0288 61.9563L66.1609 60.8669L66.3754 59.794C66.3754 59.4309 66.524 59.0842 66.6231 58.7211C66.7221 58.358 66.7881 58.0113 66.8871 57.6647C67.2833 56.2452 67.7785 54.8751 68.3067 53.4886C68.5542 52.8119 68.8514 52.1351 69.1485 51.4583C69.4456 50.7816 69.7922 50.1048 70.0894 49.4446Z" fill="#050400"/>
<path opacity="0.1" d="M116.01 36.8503C115.151 35.7335 114.184 34.705 113.121 33.7801C112.114 32.8062 111.041 31.8819 109.985 30.9741C108.929 30.0662 107.839 29.1749 106.684 28.3826C105.483 27.6473 104.182 27.0912 102.821 26.7319C103.474 26.991 104.108 27.2943 104.719 27.6398C105.342 27.9553 105.938 28.3196 106.502 28.7292C107.047 29.1254 107.592 29.571 108.153 30.0332L109.803 31.3702L113.006 34.0937C113.55 34.5394 114.062 35.0016 114.656 35.4638C115.132 35.9013 115.584 36.3641 116.01 36.8503Z" fill="#050400"/>
<path opacity="0.1" d="M117.545 40.8778C117.003 40.0224 116.402 39.2061 115.746 38.4349C115.113 37.6428 114.435 36.8877 113.715 36.1735C113.336 35.8269 112.973 35.4638 112.56 35.1502L111.322 34.2753L110.084 33.4005L108.813 32.5752C109.176 32.9218 109.572 33.252 109.952 33.5821L111.124 34.5394L112.296 35.4803C112.688 35.7897 113.057 36.1261 113.402 36.4872C114.128 37.1804 114.805 37.9232 115.498 38.6495C115.845 39.0126 116.191 39.3758 116.522 39.7554C116.852 40.135 117.198 40.4982 117.545 40.8778Z" fill="#050400"/>
<path opacity="0.1" d="M71.1623 34.3743C74.7772 35.2987 83.0798 37.2794 84.8295 36.8668C85.3956 36.6954 85.9475 36.4802 86.4801 36.223C88.2503 33.291 90.2423 30.4988 92.4388 27.8709C94.8979 28.1578 97.3242 28.6773 99.6851 29.4225C101.435 27.8488 103.032 26.1134 104.455 24.2395C101.897 22.4898 99.3385 21.2849 97.2753 21.483C93.1467 21.8761 89.0731 22.7174 85.1266 23.9919C85.1266 23.9919 78.227 25.692 71.1623 34.3743Z" fill="#050400"/>
<path d="M90.7222 24.3385C90.7222 24.3385 96.1859 14.4348 105.842 12.9492C105.842 12.9492 105.842 22.6054 102.541 25.9396C100.89 27.5903 93.3303 28.5971 92.3894 27.3757C91.7297 26.4239 91.171 25.4061 90.7222 24.3385Z" fill="#5BA4A4"/>
<path opacity="0.3" d="M97.7539 16.4981C98.0061 16.6821 98.3034 16.7946 98.6143 16.8237C98.9252 16.8527 99.2381 16.7973 99.5201 16.6631C99.8672 16.4962 100.15 16.2204 100.326 15.8777C100.502 15.535 100.561 15.1442 100.494 14.7649C99.5347 15.2668 98.6184 15.8464 97.7539 16.4981ZM104.059 19.7993C104.422 19.618 104.84 19.5769 105.231 19.6838C105.019 20.8053 104.721 21.9089 104.34 22.985C104.096 22.9176 103.87 22.7987 103.677 22.6364C103.483 22.4741 103.326 22.2721 103.217 22.0442C103.026 21.6281 103.007 21.1532 103.165 20.7234C103.323 20.2935 103.644 19.9434 104.059 19.7498V19.7993ZM93.8254 20.8887C94.1388 20.7419 94.4886 20.6913 94.8307 20.7434C95.1727 20.7954 95.4917 20.9476 95.7473 21.1809C96.0028 21.4142 96.1835 21.718 96.2664 22.054C96.3493 22.3899 96.3307 22.7429 96.213 23.0683C96.0953 23.3937 95.8838 23.6768 95.6052 23.882C95.3266 24.0872 94.9934 24.2052 94.6477 24.221C94.3021 24.2368 93.9594 24.1498 93.6632 23.9709C93.367 23.792 93.1305 23.5294 92.9836 23.2161C92.8782 23.0056 92.8163 22.776 92.8017 22.541C92.7872 22.306 92.8202 22.0705 92.8988 21.8485C92.9774 21.6266 93.1 21.4228 93.2592 21.2494C93.4184 21.076 93.611 20.9365 93.8254 20.8392V20.8887Z" fill="white"/>
<path opacity="0.1" d="M90.7222 24.3385C91.2061 25.3998 91.7921 26.4114 92.4719 27.3592C92.5048 27.419 92.5573 27.4656 92.6205 27.4912C92.6856 27.5572 92.7644 27.608 92.8515 27.6398H93.0497C94.4386 27.9212 95.8698 27.9212 97.2587 27.6398C96.9795 26.2277 96.565 24.8458 96.0208 23.5132C95.311 22.3728 94.2514 21.4927 93.0001 21.0043C92.1395 22.043 91.377 23.1592 90.7222 24.3385Z" fill="#050400"/>
<path d="M88.3949 25.7581C88.3949 25.7581 74.7441 24.2395 68.4057 27.5408C68.4057 27.5408 72.2682 34.4404 79.1183 35.8764C82.1885 36.5202 90.8212 30.6109 90.2765 29.0263C89.8016 27.856 89.1685 26.7564 88.3949 25.7581Z" fill="#5BA4A4"/>
<path opacity="0.3" d="M72.7634 32.113C72.8513 32.327 72.9833 32.5202 73.1507 32.6799C73.3181 32.8397 73.5172 32.9624 73.7351 33.0403C73.953 33.1181 74.1848 33.1492 74.4156 33.1317C74.6463 33.1141 74.8707 33.0482 75.0743 32.9383C75.3026 32.8549 75.511 32.7249 75.6862 32.5565C75.8614 32.3881 75.9997 32.185 76.0921 31.9602C76.1845 31.7355 76.229 31.4939 76.2229 31.251C76.2167 31.008 76.1601 30.769 76.0565 30.5492C75.9529 30.3293 75.8047 30.1335 75.6212 29.9741C75.4377 29.8147 75.2231 29.6953 74.9909 29.6235C74.7588 29.5516 74.5142 29.529 74.2728 29.5569C74.0314 29.5848 73.7984 29.6627 73.5887 29.7856C73.1713 29.9855 72.8501 30.3427 72.6954 30.7789C72.5407 31.2151 72.5652 31.6948 72.7634 32.113ZM85.1431 26.2533C85.4557 26.102 85.8063 26.0472 86.1502 26.0958C86.4941 26.1445 86.8156 26.2943 87.074 26.5263C87.3324 26.7583 87.5161 27.062 87.6013 27.3986C87.6866 27.7353 87.6698 28.0897 87.553 28.4167C87.4362 28.7438 87.2246 29.0287 86.9454 29.2352C86.6661 29.4416 86.3318 29.5603 85.9849 29.5761C85.6379 29.5919 85.2941 29.5041 84.9972 29.3239C84.7004 29.1437 84.4639 28.8792 84.3178 28.5642C84.1248 28.1477 84.1031 27.6721 84.2575 27.2398C84.4119 26.8075 84.7299 26.4532 85.1431 26.2533ZM81.5778 35.3482C81.8456 35.2222 82.1407 35.1654 82.4361 35.1832C82.0185 35.3633 81.5882 35.5123 81.1486 35.6288C81.2714 35.5075 81.4174 35.412 81.5778 35.3482Z" fill="white"/>
<path opacity="0.1" d="M85.3082 25.527C85.018 27.0296 85.1728 28.5843 85.7538 30.0002C86.2197 30.8326 86.8552 31.558 87.619 32.1295C89.2697 30.8585 90.4746 29.604 90.2765 28.9933C89.8071 27.8102 89.1737 26.6989 88.3949 25.6921C88.3949 25.6921 87.1899 25.626 85.3082 25.527Z" fill="#050400"/>
<path d="M87.1239 28.8943C87.5631 29.658 88.2188 30.2743 89.0082 30.6654C89.7976 31.0566 90.6852 31.205 91.5589 31.092C92.4326 30.979 93.2532 30.6095 93.9171 30.0303C94.5809 29.4511 95.0581 28.6882 95.2885 27.8379C95.519 26.9876 95.4923 26.088 95.2118 25.2529C94.9312 24.4178 94.4094 23.6846 93.7124 23.1458C93.0153 22.6071 92.1742 22.2871 91.2954 22.2261C90.4165 22.1652 89.5392 22.3661 88.7745 22.8035C88.2624 23.0913 87.8127 23.4782 87.4518 23.9416C87.0908 24.4051 86.8258 24.9358 86.6721 25.5028C86.5185 26.0698 86.4793 26.6617 86.5569 27.244C86.6344 27.8263 86.8271 28.3873 87.1239 28.8943Z" fill="#5BA4A4"/>
<path d="M103.746 104.988C103.746 104.988 102.854 115.767 92.8185 116.889C82.7827 118.012 66.2433 101.571 66.2433 101.571C66.2433 101.571 74.4964 93.5493 86.0508 93.962C95.4099 94.3086 103.746 104.988 103.746 104.988Z" fill="#AD6359"/>
</svg>
