<svg width="196" height="36" viewBox="0 0 196 36" fill="none" xmlns="http://www.w3.org/2000/svg">
<path d="M9.7 35L0.3 2H8.88L14.4 24.36L20.48 2H26.24L32.32 24.36L37.84 2H46.42L37 35H28.44L23.36 16.86L18.26 35H9.7ZM57.2063 35.64C54.9663 35.64 52.9529 35.16 51.1663 34.2C49.3796 33.24 47.9663 31.94 46.9263 30.3C45.8996 28.66 45.3863 26.8067 45.3863 24.74C45.3863 23.2067 45.6796 21.7867 46.2663 20.48C46.8529 19.16 47.6729 18.0067 48.7263 17.02C49.7796 16.02 51.0063 15.2467 52.4063 14.7C53.8196 14.1533 55.3463 13.88 56.9863 13.88C59.1196 13.88 60.9863 14.3267 62.5863 15.22C64.1996 16.1 65.4596 17.3333 66.3663 18.92C67.2729 20.4933 67.7263 22.32 67.7263 24.4C67.7263 24.5733 67.7196 24.7333 67.7063 24.88C67.7063 25.0267 67.6863 25.32 67.6463 25.76H52.9063C52.9063 26.5867 53.0996 27.3067 53.4863 27.92C53.8729 28.5333 54.4196 29.0133 55.1263 29.36C55.8329 29.6933 56.6663 29.86 57.6263 29.86C58.5196 29.86 59.2996 29.6933 59.9663 29.36C60.6329 29.0133 61.3396 28.4467 62.0863 27.66L67.3263 30.28C66.3663 31.96 64.9863 33.2733 63.1863 34.22C61.3996 35.1667 59.4063 35.64 57.2063 35.64ZM53.1263 22.08H60.5663C60.4729 21.4133 60.2596 20.8533 59.9263 20.4C59.5929 19.9467 59.1663 19.6067 58.6463 19.38C58.1263 19.14 57.5196 19.02 56.8263 19.02C56.1063 19.02 55.4729 19.14 54.9262 19.38C54.3929 19.62 53.9729 19.9667 53.6663 20.42C53.3596 20.8733 53.1796 21.4267 53.1263 22.08ZM86.8531 35.64C85.5865 35.64 84.3731 35.4 83.2131 34.92C82.0665 34.44 81.0331 33.76 80.1131 32.88V35H72.8131V0.599999H80.1131V16.4C80.9131 15.6 81.8798 14.98 83.0131 14.54C84.1598 14.1 85.3798 13.88 86.6731 13.88C88.6465 13.88 90.4065 14.36 91.9531 15.32C93.4998 16.2667 94.7131 17.56 95.5931 19.2C96.4731 20.84 96.9131 22.6933 96.9131 24.76C96.9131 26.8933 96.4531 28.78 95.5331 30.42C94.6265 32.06 93.4131 33.34 91.8931 34.26C90.3731 35.18 88.6931 35.64 86.8531 35.64ZM84.6131 29.46C85.5198 29.46 86.3131 29.26 86.9931 28.86C87.6865 28.4467 88.2265 27.8933 88.6131 27.2C89.0131 26.4933 89.2131 25.7 89.2131 24.82C89.2131 23.9 89.0065 23.0867 88.5931 22.38C88.1931 21.66 87.6465 21.0933 86.9531 20.68C86.2731 20.2667 85.4865 20.06 84.5931 20.06C83.7131 20.06 82.9198 20.2667 82.2131 20.68C81.5198 21.0933 80.9665 21.6533 80.5531 22.36C80.1531 23.0667 79.9531 23.88 79.9531 24.8C79.9531 25.68 80.1531 26.4733 80.5531 27.18C80.9531 27.8867 81.4998 28.4467 82.1931 28.86C82.8998 29.26 83.7065 29.46 84.6131 29.46Z" fill="#5BA4A4"/>
<path d="M106.712 35.64C103.605 35.64 100.925 34.5933 98.6719 32.5L101.172 26.12C102.759 27.5333 104.172 28.24 105.412 28.24C106.479 28.24 107.319 27.84 107.932 27.04C108.559 26.24 108.872 25.1467 108.872 23.76V2H116.572V25.72C116.572 28.88 115.699 31.3267 113.952 33.06C112.205 34.78 109.792 35.64 106.712 35.64ZM134.131 35.64C131.824 35.64 129.744 35.18 127.891 34.26C126.037 33.3267 124.571 32.0467 123.491 30.42C122.411 28.78 121.871 26.8933 121.871 24.76C121.871 22.6267 122.411 20.7467 123.491 19.12C124.571 17.48 126.037 16.2 127.891 15.28C129.744 14.3467 131.824 13.88 134.131 13.88C136.437 13.88 138.517 14.3467 140.371 15.28C142.224 16.2 143.691 17.48 144.771 19.12C145.851 20.7467 146.391 22.6267 146.391 24.76C146.391 26.8933 145.851 28.78 144.771 30.42C143.691 32.0467 142.224 33.3267 140.371 34.26C138.517 35.18 136.437 35.64 134.131 35.64ZM134.131 29.44C134.984 29.44 135.757 29.24 136.451 28.84C137.157 28.44 137.717 27.8933 138.131 27.2C138.544 26.4933 138.751 25.68 138.751 24.76C138.751 23.84 138.544 23.0267 138.131 22.32C137.717 21.6133 137.157 21.0667 136.451 20.68C135.757 20.28 134.984 20.08 134.131 20.08C133.277 20.08 132.497 20.28 131.791 20.68C131.097 21.0667 130.544 21.6133 130.131 22.32C129.717 23.0267 129.511 23.84 129.511 24.76C129.511 25.68 129.717 26.4933 130.131 27.2C130.544 27.8933 131.097 28.44 131.791 28.84C132.497 29.24 133.277 29.44 134.131 29.44ZM165.252 35.64C163.985 35.64 162.772 35.4 161.612 34.92C160.465 34.44 159.432 33.76 158.512 32.88V35H151.212V0.599999H158.512V16.4C159.312 15.6 160.278 14.98 161.412 14.54C162.558 14.1 163.778 13.88 165.072 13.88C167.045 13.88 168.805 14.36 170.352 15.32C171.898 16.2667 173.112 17.56 173.992 19.2C174.872 20.84 175.312 22.6933 175.312 24.76C175.312 26.8933 174.852 28.78 173.932 30.42C173.025 32.06 171.812 33.34 170.292 34.26C168.772 35.18 167.092 35.64 165.252 35.64ZM163.012 29.46C163.918 29.46 164.712 29.26 165.392 28.86C166.085 28.4467 166.625 27.8933 167.012 27.2C167.412 26.4933 167.612 25.7 167.612 24.82C167.612 23.9 167.405 23.0867 166.992 22.38C166.592 21.66 166.045 21.0933 165.352 20.68C164.672 20.2667 163.885 20.06 162.992 20.06C162.112 20.06 161.318 20.2667 160.612 20.68C159.918 21.0933 159.365 21.6533 158.952 22.36C158.552 23.0667 158.352 23.88 158.352 24.8C158.352 25.68 158.552 26.4733 158.952 27.18C159.352 27.8867 159.898 28.4467 160.592 28.86C161.298 29.26 162.105 29.46 163.012 29.46ZM186.215 35.64C184.468 35.64 182.895 35.4133 181.495 34.96C180.108 34.5067 178.928 33.84 177.955 32.96L180.915 27.98C181.835 28.7267 182.742 29.3 183.635 29.7C184.542 30.0867 185.408 30.28 186.235 30.28C186.635 30.28 186.968 30.2267 187.235 30.12C187.502 30.0133 187.702 29.8533 187.835 29.64C187.982 29.4267 188.055 29.16 188.055 28.84C188.055 28.4133 187.922 28.08 187.655 27.84C187.402 27.5867 186.988 27.34 186.415 27.1C185.855 26.86 185.122 26.5533 184.215 26.18C183.388 25.82 182.608 25.42 181.875 24.98C181.142 24.54 180.542 23.98 180.075 23.3C179.622 22.62 179.395 21.7533 179.395 20.7C179.395 19.3667 179.775 18.1933 180.535 17.18C181.295 16.1533 182.342 15.3533 183.675 14.78C185.022 14.2067 186.575 13.92 188.335 13.92C189.308 13.92 190.368 14.0467 191.515 14.3C192.675 14.54 193.968 14.9133 195.395 15.42L193.035 20.2C191.142 19.2667 189.595 18.8 188.395 18.8C187.755 18.8 187.255 18.92 186.895 19.16C186.535 19.4 186.355 19.7 186.355 20.06C186.355 20.4467 186.595 20.8067 187.075 21.14C187.568 21.46 188.155 21.7467 188.835 22C189.515 22.2533 190.128 22.48 190.675 22.68C191.635 23.0133 192.495 23.4067 193.255 23.86C194.015 24.3133 194.615 24.9133 195.055 25.66C195.495 26.3933 195.715 27.3667 195.715 28.58C195.715 30.1 195.342 31.3867 194.595 32.44C193.862 33.48 192.788 34.2733 191.375 34.82C189.962 35.3667 188.242 35.64 186.215 35.64Z" fill="#2C3A3A"/>
</svg>
