<svg width="459" height="459" viewBox="0 0 459 459" fill="none" xmlns="http://www.w3.org/2000/svg">
<path d="M378.583 304.207H402.892V293.934H378.583V304.207Z" fill="#EBEBEB"/>
<path d="M392.151 317.16L404.407 316.903L410.447 316.802C412.457 316.756 414.459 316.802 416.46 316.747L416.047 317.16V306.887L416.506 307.346L404.352 307.291C400.303 307.291 396.246 307.181 392.197 307.135L392.445 306.887C392.445 308.567 392.372 310.256 392.326 311.964L392.151 317.16ZM392.151 317.16L391.986 312.12C391.94 310.413 391.876 308.678 391.867 306.933V306.612H392.124C396.172 306.557 400.23 306.465 404.278 306.456L416.432 306.401H416.891V306.86L416.836 317.132V317.545H416.432C414.385 317.545 412.329 317.545 410.282 317.499L404.168 317.399L392.151 317.16Z" fill="#EBEBEB"/>
<path d="M213.105 216.262L225.369 216.005L231.4 215.904C233.411 215.858 235.412 215.904 237.413 215.858L237 216.262L236.954 205.99L237.413 206.449L225.259 206.394C221.21 206.394 217.153 206.293 213.105 206.238L213.352 205.99C213.352 207.67 213.279 209.359 213.233 211.076L213.105 216.262ZM213.105 216.262L212.976 211.14C212.93 209.432 212.875 207.697 212.857 205.953V205.705H213.114C217.162 205.659 221.22 205.559 225.268 205.549L237.422 205.494H237.881V205.953L237.835 216.226V216.648H237.432C235.384 216.648 233.328 216.648 231.29 216.593L225.167 216.492L213.105 216.262Z" fill="#EBEBEB"/>
<path d="M199.335 229.215L211.599 228.958L217.639 228.857C219.65 228.812 221.642 228.857 223.643 228.812L223.239 229.215L223.184 218.943L223.643 219.402L211.489 219.347C207.44 219.347 203.392 219.246 199.335 219.191L199.592 218.943C199.592 220.623 199.509 222.312 199.472 224.029L199.335 229.215ZM199.335 229.215L199.206 224.13C199.206 222.422 199.105 220.687 199.087 218.943V218.695H199.335C203.392 218.695 207.44 218.548 211.489 218.539L223.643 218.484H224.111V218.943L224.065 229.215V229.629H223.652C221.605 229.629 219.549 229.629 217.511 229.573L211.397 229.472L199.335 229.215Z" fill="#EBEBEB"/>
<path d="M42.5401 317.16L54.8046 316.903L60.845 316.802C62.8463 316.756 64.8475 316.802 66.8487 316.747L66.4448 317.16L66.3897 306.887L66.8487 307.346L54.6944 307.291C50.646 307.291 46.5885 307.181 42.5401 307.135L42.788 306.887C42.788 308.567 42.7145 310.256 42.6686 311.964L42.5401 317.16ZM42.5401 317.16L42.4116 312.12C42.3657 310.413 42.3106 308.678 42.2922 306.933V306.612H42.5401C46.5885 306.557 50.646 306.465 54.6944 306.456L66.8487 306.401H67.3077V306.86V317.132V317.545H66.8946C64.8475 317.545 62.7912 317.545 60.7532 317.499L54.6393 317.399L42.5401 317.16Z" fill="#EBEBEB"/>
<path d="M392.151 57.0996L404.407 56.8425L410.447 56.7416C412.457 56.6957 414.459 56.7416 416.46 56.6865L416.047 57.0996V46.8272L416.506 47.2862L404.352 47.2311C400.303 47.2311 396.246 47.1209 392.197 47.075L392.445 46.8272C392.445 48.5071 392.372 50.1962 392.326 51.9129L392.151 57.0996ZM392.151 57.0996L391.986 52.0139C391.94 50.3064 391.876 48.5714 391.867 46.8272V46.5793H392.124C396.172 46.5334 400.23 46.4324 404.278 46.4232L416.432 46.3682H416.891V46.818L416.864 57.0996V57.5127H416.46C414.413 57.5127 412.356 57.5127 410.309 57.4576L404.195 57.3566L392.151 57.0996Z" fill="#EBEBEB"/>
<path d="M155.39 350.465H89.3397V423.602H155.39V350.465Z" fill="#EBEBEB"/>
<path d="M55.2452 423.611H89.3489L89.3489 350.465H55.2452L55.2452 423.611Z" fill="#DBDBDB"/>
<path d="M57.5861 418.608C60.1197 413.406 62.6228 408.204 65.0953 403.002L72.5219 387.185L79.8659 371.386C82.3139 366.111 84.713 360.817 87.063 355.505C84.5294 360.707 82.0263 365.924 79.5538 371.157L72.1547 386.891L64.8107 402.69C62.3688 407.971 59.9606 413.277 57.5861 418.608Z" fill="#EBEBEB"/>
<path d="M57.5861 355.505C59.9606 360.823 62.3597 366.117 64.7832 371.386L72.1272 387.185L79.5263 402.919C82.0049 408.152 84.5079 413.354 87.0355 418.525C84.6609 413.213 82.2619 407.919 79.8384 402.644L72.4944 386.845L65.0953 371.111C62.6167 365.909 60.1136 360.707 57.5861 355.505Z" fill="#EBEBEB"/>
<path d="M155.39 240.002H89.3397V308.099H155.39V240.002Z" fill="#EBEBEB"/>
<path d="M55.2452 308.108H89.3489L89.3489 240.002H55.2452L55.2452 308.108Z" fill="#DBDBDB"/>
<path d="M116.76 255.81H118.165H119.211L119.808 254.589L120.653 255.81L121.791 253.304L122.874 255.81H125.968H127.372L127.887 254.139L128.364 255.81H129.282V240.002H116.76V255.81Z" fill="#DBDBDB"/>
<path d="M57.5861 303.766C60.1197 298.931 62.6228 294.066 65.0953 289.17L72.4944 274.482L79.8384 259.794C82.2864 254.898 84.6854 249.968 87.0355 245.005C84.5018 249.852 81.9987 254.711 79.5263 259.583L72.1272 274.225L64.7832 288.913C62.3597 293.864 59.9606 298.815 57.5861 303.766Z" fill="#EBEBEB"/>
<path d="M57.5861 245.042C59.9606 249.981 62.3597 254.898 64.7832 259.794L72.1272 274.482L79.5263 289.17C82.0049 294.066 84.5079 298.925 87.0355 303.748C84.6609 298.803 82.2619 293.873 79.8384 288.959L72.4944 274.271L65.0953 259.629C62.6167 254.751 60.1136 249.889 57.5861 245.042Z" fill="#EBEBEB"/>
<path d="M93.6911 303.876H101.026V296.542H93.6911V303.876Z" fill="white"/>
<path d="M150.993 308.108H84.9425V350.465H150.993V308.108Z" fill="#DBDBDB"/>
<path d="M50.8388 350.465H84.9425V308.108H50.8388L50.8388 350.465Z" fill="#C7C7C7"/>
<path d="M112.363 323.916H113.759H114.814L115.411 322.695L116.255 323.916L117.394 321.41L118.477 323.916H121.562H122.975L123.48 322.245L123.967 323.916H124.885V308.108H112.363V323.916Z" fill="white"/>
<path d="M53.1888 347.922C55.7164 344.862 58.2195 341.774 60.6981 338.659L68.0972 329.351L75.4412 319.996C77.8524 316.875 80.2484 313.742 82.6291 310.596C80.1077 313.656 77.6046 316.744 75.1199 319.859L67.7208 329.176L60.3768 338.522C57.9594 341.661 55.5634 344.795 53.1888 347.922Z" fill="#DBDBDB"/>
<path d="M53.1888 310.624C55.5695 313.769 57.9686 316.903 60.386 320.024L67.73 329.378L75.129 338.687C77.577 341.784 80.074 344.862 82.6199 347.922C80.2515 344.776 77.8555 341.643 75.432 338.522L68.088 329.176L60.6889 319.859C58.2164 316.786 55.7164 313.708 53.1888 310.624Z" fill="#DBDBDB"/>
<path d="M408.161 359.626H342.111V423.611H408.161V359.626Z" fill="#DBDBDB"/>
<path d="M308.017 423.611H342.12V359.626H308.017V423.611Z" fill="#C7C7C7"/>
<path d="M369.532 375.434H370.927H371.983L372.579 374.213L373.424 375.434L374.562 372.928L375.646 375.434H378.73H380.144L380.658 373.754L381.135 375.434H382.053V359.626H369.532V375.434Z" fill="white"/>
<path d="M310.357 419.801C312.885 415.156 315.388 410.493 317.867 405.811L325.266 391.747L332.61 377.628C335.058 372.91 337.454 368.179 339.798 363.436C337.276 368.081 334.773 372.745 332.288 377.426L324.889 391.481L317.591 405.609C315.168 410.328 312.756 415.058 310.357 419.801Z" fill="#DBDBDB"/>
<path d="M310.357 363.436C312.738 368.179 315.137 372.91 317.555 377.628L324.853 391.747L332.252 405.811C334.73 410.493 337.233 415.156 339.761 419.801C337.393 415.052 334.997 410.321 332.573 405.609L325.229 391.481L317.83 377.426C315.376 372.745 312.885 368.081 310.357 363.436Z" fill="#DBDBDB"/>
<path d="M310.936 347.968H219.43V423.574H310.936V347.968Z" fill="#5BA4A4"/>
<path opacity="0.1" d="M310.936 347.968H219.43V423.574H310.936V347.968Z" fill="black"/>
<path d="M347.197 347.977H310.936V423.584H347.197V347.977Z" fill="#5BA4A4"/>
<path opacity="0.2" d="M347.197 347.977H310.936V423.584H347.197V347.977Z" fill="black"/>
<path d="M344.691 418.369C342.01 412.996 339.351 407.604 336.713 402.194L328.846 385.927L321.08 369.596C318.509 364.143 315.96 358.672 313.433 353.182C316.126 358.562 318.788 363.953 321.419 369.357L329.277 385.624L337.044 401.955C339.626 407.408 342.175 412.88 344.691 418.369Z" fill="#5BA4A4"/>
<path d="M344.691 353.182C342.169 358.69 339.62 364.161 337.044 369.596L329.277 385.927L321.419 402.194C318.782 407.598 316.119 412.99 313.433 418.369C315.96 412.861 318.509 407.39 321.08 401.955L328.846 385.624L336.713 369.366C339.351 363.95 342.01 358.555 344.691 353.182Z" fill="#5BA4A4"/>
<path d="M271.655 364.308H270.213H269.121L268.506 363.051L267.634 364.308L266.45 361.72L265.339 364.308H262.144H260.685L260.152 362.582L259.656 364.308H258.711V347.977H271.655V364.308Z" fill="white"/>
<path d="M316.453 272.371H248.181V347.968H316.453V272.371Z" fill="#5BA4A4"/>
<path d="M351.704 272.371H316.453V347.977H351.704V272.371Z" fill="#5BA4A4"/>
<path opacity="0.1" d="M351.704 272.371H316.453V347.977H351.704V272.371Z" fill="black"/>
<g opacity="0.1">
<path opacity="0.1" d="M311.45 342.763C306.438 337.383 301.468 331.992 296.542 326.588L281.826 310.284L267.331 293.953C262.521 288.5 257.759 283.029 253.047 277.539C258.065 282.918 263.035 288.313 267.955 293.723L282.643 309.981L297.138 326.312C301.967 331.79 306.738 337.273 311.45 342.763Z" fill="black"/>
<path opacity="0.1" d="M311.45 277.576C306.731 283.084 301.97 288.555 297.166 293.99L282.671 310.284L267.983 326.551C263.087 331.955 258.117 337.347 253.074 342.726C257.793 337.218 262.554 331.747 267.358 326.312L281.826 310.018L296.514 293.76C301.453 288.344 306.432 282.949 311.45 277.576Z" fill="black"/>
</g>
<path d="M346.747 335.18H340.569V343.901H346.747V335.18Z" fill="white"/>
<path d="M38.0511 423.611L85.9157 423.382L133.78 423.308L229.5 423.152L325.22 423.308L373.084 423.382L420.949 423.611L373.084 423.831L325.22 423.914L229.5 424.07L133.78 423.914L85.9157 423.831L38.0511 423.611Z" fill="#263238"/>
<path d="M265.963 163.22C265.449 162.89 264.935 162.569 264.421 162.256L264.779 161.66L266.339 162.642L265.963 163.22Z" fill="#263238"/>
<path d="M243.545 255.204H242.884V254.516C244.11 254.543 245.336 254.497 246.556 254.378L246.63 255.066C245.629 255.14 244.583 255.204 243.545 255.204ZM250.357 254.451L250.21 253.781C251.404 253.511 252.576 253.152 253.717 252.707L253.965 253.35C252.791 253.8 251.585 254.162 250.357 254.433V254.451ZM257.361 251.697L257.022 251.101C258.077 250.484 259.081 249.785 260.023 249.008L260.464 249.531C259.492 250.341 258.455 251.069 257.361 251.706V251.697ZM263.172 246.924L262.667 246.455C263.491 245.55 264.249 244.587 264.935 243.573L265.504 243.959C264.8 245.008 264.021 246.005 263.172 246.942V246.924ZM267.377 240.69L266.752 240.397C267.276 239.291 267.703 238.142 268.028 236.963L268.689 237.147C268.356 238.367 267.917 239.556 267.377 240.7V240.69ZM269.36 233.42L268.671 233.365C268.671 232.869 268.735 232.364 268.735 231.878C268.733 231.197 268.693 230.516 268.616 229.84C267.902 229.792 267.19 229.703 266.486 229.573L266.606 228.894C267.727 229.096 268.863 229.201 270.002 229.206H270.241V229.895H269.993H269.304C269.378 230.559 269.415 231.227 269.415 231.896C269.424 232.392 269.396 232.915 269.36 233.429V233.42ZM274.014 229.436L273.858 228.766C275.039 228.486 276.182 228.067 277.264 227.517L277.576 228.132C276.444 228.709 275.249 229.15 274.014 229.445V229.436ZM262.833 228.582C261.645 228.154 260.494 227.632 259.39 227.021L259.73 226.425C260.798 227.015 261.913 227.518 263.062 227.93L262.833 228.582ZM267.771 226.158C267.369 225.011 266.839 223.911 266.192 222.881L266.771 222.514C267.451 223.585 268.005 224.731 268.423 225.929L267.771 226.158ZM280.734 226.012L280.293 225.488C281.224 224.702 282.076 223.825 282.836 222.872L283.368 223.304C282.584 224.301 281.701 225.218 280.734 226.039V226.012ZM256.278 224.91L256.085 224.726C255.177 223.928 254.453 222.941 253.965 221.835L254.607 221.578C255.055 222.591 255.719 223.493 256.553 224.222L256.737 224.387L256.278 224.91ZM285.498 220.219L284.91 219.861C285.553 218.796 286.15 217.704 286.673 216.63L287.297 216.933C286.765 218.025 286.159 219.136 285.498 220.219ZM263.907 220.081C263.068 219.269 262.145 218.549 261.153 217.933L261.015 217.841L261.373 217.254L261.52 217.346C262.543 217.992 263.494 218.746 264.356 219.595L263.907 220.081ZM254.791 218.31L254.222 217.924C254.615 217.372 255.136 216.923 255.74 216.616C256.344 216.309 257.014 216.153 257.692 216.161V216.85C257.127 216.847 256.57 216.977 256.066 217.231C255.562 217.485 255.125 217.854 254.791 218.31ZM288.757 213.472L288.114 213.233C288.539 212.081 288.904 210.907 289.207 209.717L289.868 209.882C289.572 211.1 289.204 212.298 288.766 213.472H288.757ZM290.593 206.192L289.904 206.1C290.068 204.883 290.163 203.657 290.189 202.428H290.877C290.852 203.687 290.757 204.944 290.593 206.192ZM290.06 198.756C289.95 197.524 289.775 196.298 289.537 195.084L290.217 194.946C290.456 196.176 290.634 197.417 290.749 198.664L290.06 198.756ZM288.638 191.541C288.289 190.384 287.876 189.218 287.398 188.061L288.041 187.804C288.518 188.97 288.959 190.164 289.299 191.339L288.638 191.541ZM285.884 184.702C285.333 183.628 284.718 182.544 284.048 181.479L284.635 181.121C285.296 182.195 285.92 183.297 286.471 184.389L285.884 184.702ZM282.019 178.404C281.312 177.413 280.55 176.43 279.76 175.476L280.293 175.035C281.092 175.999 281.863 177 282.579 178L282.019 178.404ZM277.319 172.694C276.483 171.776 275.602 170.922 274.702 170.078L275.17 169.573C276.088 170.436 277.006 171.326 277.814 172.226L277.319 172.694ZM271.93 167.618C271.012 166.837 270.011 166.066 269.029 165.332L269.433 164.781C270.434 165.515 271.425 166.296 272.371 167.094L271.93 167.618Z" fill="#263238"/>
<path d="M239.038 254.874C238.42 254.797 237.808 254.687 237.202 254.543L237.367 253.873C237.367 253.873 238.028 254.038 239.13 254.194L239.038 254.874Z" fill="#263238"/>
<path d="M229.775 253.506C229.344 257.178 236.844 259.234 237.413 254.424C237.982 249.613 230.207 249.806 229.775 253.506Z" fill="#263238"/>
<path d="M239.598 259.583C238.9 260.969 236.431 261.162 233.879 259.381C232.146 258.058 230.681 256.416 229.564 254.543C231.722 254.318 233.904 254.508 235.99 255.103C239.011 256.122 240.332 258.178 239.598 259.583Z" fill="#EBEBEB"/>
<path d="M229.592 254.543C231.042 255.195 232.465 255.902 233.888 256.599C235.311 257.297 236.715 258.041 238.102 258.812C236.651 258.16 235.228 257.453 233.805 256.755C232.383 256.058 230.978 255.314 229.592 254.543Z" fill="#263238"/>
<path d="M236.256 259.555C235.927 259.173 235.62 258.771 235.338 258.353C235.061 257.937 234.81 257.505 234.586 257.058C234.915 257.441 235.222 257.842 235.504 258.261C235.783 258.675 236.034 259.108 236.256 259.555Z" fill="#263238"/>
<path d="M233.172 256.333C233.677 256.202 234.189 256.098 234.705 256.021C235.226 255.947 235.75 255.901 236.275 255.883C235.258 256.136 234.219 256.287 233.172 256.333Z" fill="#263238"/>
<path d="M232.373 256.939C232.058 256.546 231.832 256.089 231.712 255.599C232.028 255.992 232.254 256.449 232.373 256.939Z" fill="#263238"/>
<path d="M240.81 249.971C240.452 248.457 238.102 247.704 235.21 248.842C233.214 249.731 231.407 250.993 229.886 252.56C231.949 253.275 234.131 253.586 236.312 253.478C239.405 253.221 241.177 251.532 240.81 249.971Z" fill="#EBEBEB"/>
<path d="M229.886 252.56C231.446 252.266 232.998 251.899 234.54 251.541C236.082 251.183 237.624 250.798 239.13 250.366C237.578 250.66 236.027 251.027 234.485 251.385C232.943 251.743 231.419 252.129 229.886 252.56Z" fill="#263238"/>
<path d="M237.533 249.219C237.133 249.503 236.75 249.809 236.385 250.137C236.021 250.48 235.674 250.841 235.348 251.22C235.751 250.941 236.135 250.634 236.495 250.302C236.862 249.961 237.208 249.6 237.533 249.219Z" fill="#263238"/>
<path d="M233.769 251.642C234.699 252.126 235.677 252.511 236.688 252.79C235.76 252.301 234.781 251.917 233.769 251.642Z" fill="#263238"/>
<path d="M233.172 250.871C232.972 251.021 232.79 251.193 232.63 251.385C232.472 251.582 232.333 251.794 232.217 252.018C232.417 251.866 232.599 251.69 232.759 251.495C232.926 251.308 233.065 251.098 233.172 250.871Z" fill="#263238"/>
<path d="M229.775 253.506C230.038 253.536 230.286 253.644 230.488 253.816C230.69 253.987 230.836 254.214 230.909 254.469C230.982 254.723 230.978 254.994 230.897 255.246C230.816 255.498 230.662 255.721 230.455 255.885C230.248 256.05 229.997 256.15 229.733 256.173C229.469 256.195 229.205 256.138 228.973 256.011C228.741 255.883 228.552 255.689 228.431 255.454C228.309 255.219 228.259 254.953 228.288 254.69C228.33 254.336 228.509 254.013 228.788 253.791C229.066 253.57 229.421 253.467 229.775 253.506Z" fill="#455A64"/>
<path d="M230.088 250.834C230.263 250.855 230.433 250.91 230.587 250.996C230.741 251.082 230.877 251.197 230.986 251.336C231.096 251.474 231.177 251.633 231.225 251.803C231.273 251.973 231.288 252.151 231.267 252.326C231.247 252.501 231.192 252.671 231.106 252.825C231.02 252.98 230.904 253.115 230.766 253.225C230.627 253.334 230.468 253.416 230.298 253.464C230.129 253.512 229.951 253.526 229.775 253.506C229.421 253.464 229.098 253.284 228.877 253.004C228.655 252.724 228.554 252.368 228.596 252.014C228.637 251.66 228.818 251.336 229.097 251.115C229.377 250.894 229.733 250.793 230.088 250.834Z" fill="#455A64"/>
<path d="M146.88 339.945C146.88 339.945 127.308 379.134 127.299 379.134C125.683 387.222 124.417 394.354 124.095 398.1C124.091 398.121 124.091 398.143 124.095 398.164C123.926 399.032 123.96 399.928 124.196 400.78C124.191 400.802 124.191 400.824 124.196 400.845C126.28 402.956 190.595 417.763 193.046 417.525C195.497 417.286 194.974 410.374 192.936 407.812C190.898 405.251 168.802 388.534 168.802 388.534L187.933 349.281L146.88 339.945Z" fill="#D3766A"/>
<path d="M192.073 417.561C189.659 417.8 126.308 402.984 124.233 400.881C124.23 400.86 124.23 400.838 124.233 400.817C123.993 399.966 123.955 399.07 124.123 398.201C124.115 398.18 124.115 398.157 124.123 398.137C124.435 394.391 125.711 387.258 127.317 379.162L131.999 369.78L172.584 380.906L168.839 388.599C168.839 388.599 189.953 405.279 192 407.877C194.047 410.474 194.497 417.332 192.073 417.561Z" fill="#EBEBEB"/>
<path d="M192.954 416.533C190.503 416.717 126.032 400.285 123.976 398.1C123.186 397.283 125.032 387.745 127.593 376.288L127.675 375.93L169.389 386.074L169.197 386.772C169.197 386.772 191.054 404.104 193.065 406.747C195.075 409.391 195.396 416.359 192.954 416.533Z" fill="#263238"/>
<path d="M192.853 413.844C182.058 410.814 138.214 399.578 127.308 397.393C127.216 397.393 127.198 397.439 127.308 397.466C137.948 400.707 181.883 411.585 192.835 413.99C193.046 414.073 193.083 413.908 192.853 413.844Z" fill="white"/>
<path d="M172.657 387.791C168.582 385.9 163.184 385.22 159.144 387.442C158.988 387.525 159.144 387.745 159.255 387.736C163.679 387.458 168.119 387.655 172.501 388.323C172.566 388.327 172.629 388.309 172.682 388.272C172.735 388.235 172.773 388.181 172.792 388.119C172.81 388.057 172.806 387.991 172.782 387.932C172.758 387.872 172.714 387.822 172.657 387.791Z" fill="white"/>
<path d="M175.265 390.435C171.198 388.553 165.8 387.873 161.752 390.086C161.596 390.168 161.752 390.389 161.871 390.389C166.295 390.107 170.736 390.304 175.118 390.976C175.185 390.983 175.252 390.965 175.307 390.927C175.362 390.889 175.402 390.832 175.42 390.767C175.438 390.702 175.432 390.633 175.403 390.573C175.375 390.512 175.326 390.463 175.265 390.435Z" fill="white"/>
<path d="M177.881 393.088C173.805 391.197 168.407 390.517 164.368 392.73C164.212 392.821 164.368 393.042 164.487 393.033C168.908 392.755 173.346 392.952 177.725 393.62C177.789 393.624 177.853 393.606 177.906 393.569C177.958 393.532 177.997 393.478 178.015 393.416C178.033 393.354 178.03 393.288 178.005 393.228C177.981 393.169 177.937 393.119 177.881 393.088Z" fill="white"/>
<path d="M194.524 414.477C195.562 415.211 194.322 419.021 193.413 419.122C192.505 419.223 122.287 400.992 121.176 400.413C120.065 399.835 121.589 395.667 123.012 395.823C124.435 395.979 194.524 414.477 194.524 414.477Z" fill="#5BA4A4"/>
<path d="M136.479 385.863C132.403 382.338 126.914 388.672 130.971 392.206C135.029 395.741 140.564 389.397 136.479 385.863Z" fill="white"/>
<path d="M132.119 366.649L179.157 378.51C179.157 378.51 223.001 299.387 222.018 279.274C220.669 251.532 188.098 166.231 188.098 166.231H149.102C149.102 166.231 174.98 258.445 175.338 273.959C175.494 282.074 132.119 366.649 132.119 366.649Z" fill="#455A64"/>
<path d="M181.167 368.963C178.661 367.962 156.271 361.499 139.563 357.947C139.545 357.953 139.529 357.964 139.518 357.98C139.506 357.996 139.5 358.014 139.5 358.034C139.5 358.053 139.506 358.072 139.518 358.088C139.529 358.103 139.545 358.115 139.563 358.121C144.824 359.957 178.019 368.705 181.131 369.137C181.204 369.164 181.277 369.036 181.167 368.963Z" fill="#263238"/>
<path d="M178.569 254.148C175.467 241.131 172.143 228.151 168.655 215.253C165.167 202.355 161.43 189.337 157.327 176.541C156.831 174.971 156.308 173.419 155.803 171.859C155.788 171.809 155.755 171.767 155.709 171.742C155.663 171.717 155.61 171.711 155.56 171.726C155.51 171.74 155.468 171.774 155.443 171.82C155.418 171.865 155.412 171.919 155.427 171.969C159.099 184.72 162.771 197.443 166.25 210.24C169.729 223.037 173.043 235.871 176.164 248.796C176.945 251.991 177.706 255.176 178.45 258.38C179.314 261.664 179.983 264.996 180.451 268.359C180.837 271.572 180.616 274.83 179.8 277.961C178.914 281.039 177.756 284.031 176.339 286.903C170.714 299.112 165.093 311.324 159.475 323.54C153.857 335.786 152.948 338.577 147.541 350.924C146.871 352.457 146.201 353.99 145.558 355.514C145.558 355.615 145.659 355.707 145.714 355.596C151.865 343.497 152.81 340.587 158.566 328.268C164.322 315.948 170.041 303.482 175.751 291.079C178.322 285.48 181.342 279.77 181.727 273.509C182.113 266.973 180.057 260.418 178.569 254.148Z" fill="#263238"/>
<path d="M180.699 355.44L182.205 398.586C182.452 406.848 182.81 414.073 183.352 417.791C183.348 417.812 183.348 417.834 183.352 417.855C183.383 418.737 183.615 419.601 184.031 420.38L184.087 420.435C186.593 422.023 252.588 421.986 254.892 421.206C257.196 420.426 255.158 413.816 252.597 411.769C250.036 409.722 224.754 398.439 224.754 398.439L222.835 355.339L180.699 355.44Z" fill="#D3766A"/>
<path d="M181.893 389.755C181.893 389.755 182.205 398.586 182.205 398.614C182.453 406.876 182.811 414.101 183.352 417.819C183.348 417.84 183.348 417.862 183.352 417.883C183.478 418.748 183.706 419.596 184.032 420.407L184.087 420.462C186.593 422.05 252.588 422.014 254.892 421.233C257.196 420.453 255.158 413.844 252.597 411.796C250.036 409.749 224.754 398.467 224.754 398.467L224.561 389.48L181.893 389.755Z" fill="#EBEBEB"/>
<path d="M254.929 421.16C252.597 421.904 186.079 420.875 183.563 419.223C182.645 418.608 182.186 408.914 182.021 397.191V396.824L224.947 397.007V397.742C224.947 397.742 250.238 409.52 252.799 411.622C255.36 413.724 257.269 420.444 254.929 421.16Z" fill="#263238"/>
<path d="M254.222 418.608C243.013 418.158 197.756 417.405 186.639 417.818C186.547 417.818 186.547 417.883 186.639 417.883C197.737 418.571 243.004 418.966 254.222 418.801C254.451 418.746 254.46 418.608 254.222 418.608Z" fill="white"/>
<path d="M228.527 397.907C224.13 396.989 218.713 397.604 215.298 400.661C215.161 400.78 215.298 400.964 215.482 400.927C219.72 399.634 224.084 398.794 228.499 398.421C228.553 398.404 228.599 398.371 228.633 398.327C228.667 398.283 228.687 398.229 228.69 398.174C228.693 398.118 228.679 398.063 228.65 398.015C228.621 397.967 228.578 397.93 228.527 397.907Z" fill="white"/>
<path d="M231.685 399.872C227.278 398.954 221.871 399.578 218.456 402.671C218.319 402.791 218.456 402.974 218.631 402.929C222.871 401.634 227.238 400.796 231.657 400.432C231.724 400.423 231.785 400.392 231.831 400.343C231.876 400.294 231.903 400.23 231.906 400.163C231.91 400.096 231.889 400.03 231.849 399.977C231.808 399.924 231.75 399.886 231.685 399.872Z" fill="white"/>
<path d="M234.834 401.845C230.436 400.927 225.029 401.542 221.605 404.599C221.477 404.719 221.605 404.902 221.789 404.866C226.027 403.573 230.391 402.733 234.806 402.359C234.859 402.342 234.906 402.31 234.94 402.265C234.974 402.221 234.994 402.168 234.997 402.112C235 402.056 234.986 402.001 234.957 401.953C234.928 401.906 234.885 401.868 234.834 401.845Z" fill="white"/>
<path d="M255.984 418.792C257.168 419.269 256.847 423.262 255.984 423.565C255.121 423.868 182.544 422.427 181.36 422.133C180.176 421.839 180.653 417.424 182.094 417.213C183.536 417.001 255.984 418.792 255.984 418.792Z" fill="#5BA4A4"/>
<path d="M192.89 404.425C188.107 401.937 184.233 409.373 189.025 411.861C193.817 414.348 197.682 406.913 192.89 404.425Z" fill="white"/>
<path d="M187.612 166.158C187.437 166.957 177.716 205.393 176.504 206.109C175.127 206.926 211.829 256.306 216.18 280.55C218.934 296.055 225.36 386.432 225.36 386.432H178.56C178.56 386.432 173.97 309.678 172.446 284.387C171.85 274.574 135.038 229.206 131.54 198.958C130.439 189.429 137.287 166.121 137.287 166.121L187.612 166.158Z" fill="#455A64"/>
<path d="M177.376 349.914C176.825 337.2 176.32 324.458 175.393 311.762C174.87 304.565 173.842 297.597 173.126 290.428C173.126 290.051 172.786 289.959 172.795 290.345C173.126 303.114 174.181 315.746 174.861 328.506C175.54 341.267 176.192 344.241 176.917 356.964C177.321 364.161 177.679 371.359 178.239 378.546C178.245 378.565 178.257 378.581 178.272 378.592C178.288 378.604 178.307 378.61 178.326 378.61C178.345 378.61 178.364 378.604 178.38 378.592C178.396 378.581 178.407 378.565 178.413 378.546C178.441 365.768 177.936 362.674 177.376 349.914Z" fill="#263238"/>
<path d="M216.226 281.156C215.825 277.798 215.175 274.475 214.28 271.214C213.316 268.053 212.046 264.994 210.488 262.08C207.303 255.966 203.677 250.054 200.179 244.115C196.682 238.175 193.037 232.107 189.347 226.177C187.272 222.848 185.188 219.521 183.095 216.198C180.965 212.847 178.716 209.561 176.522 206.256C176.505 206.228 176.478 206.208 176.446 206.2C176.414 206.193 176.38 206.198 176.352 206.215C176.324 206.232 176.304 206.259 176.297 206.291C176.289 206.323 176.294 206.357 176.311 206.385C179.891 212.388 183.435 218.401 187.015 224.405C190.595 230.409 194.12 236.431 197.645 242.453C201.171 248.475 204.595 254.314 207.918 260.336C209.554 263.195 210.963 266.178 212.131 269.259C213.218 272.45 214.008 275.735 214.491 279.072C215.739 286.847 216.758 294.678 218.319 302.38C218.325 302.398 218.336 302.414 218.352 302.426C218.368 302.437 218.387 302.443 218.406 302.443C218.425 302.443 218.444 302.437 218.46 302.426C218.475 302.414 218.487 302.398 218.493 302.38C218.007 295.293 217.162 288.197 216.226 281.156Z" fill="#263238"/>
<path d="M221.238 378.409C218.567 378.06 198.178 377.353 181.121 378.087C181.011 378.087 181.02 378.253 181.121 378.262C186.675 378.748 218.08 378.969 221.211 378.602C221.293 378.592 221.33 378.427 221.238 378.409Z" fill="#263238"/>
<path d="M182.609 203.484C177.84 205.221 173.233 207.371 168.839 209.91C168.801 209.927 168.771 209.958 168.757 209.997C168.742 210.036 168.744 210.079 168.761 210.116C168.778 210.154 168.809 210.184 168.848 210.198C168.886 210.213 168.929 210.211 168.967 210.194C173.612 208.193 178.358 206.284 182.893 204.035C182.966 203.997 183.021 203.932 183.046 203.853C183.071 203.775 183.064 203.69 183.026 203.617C182.989 203.544 182.923 203.489 182.845 203.464C182.767 203.439 182.682 203.446 182.609 203.484Z" fill="#263238"/>
<path d="M184.013 171.666C184.013 171.51 183.719 171.473 183.719 171.666C183.72 176.853 183.46 182.037 182.939 187.199C182.719 189.595 180.791 202.805 176.642 201.887C175.944 201.721 175.595 201.042 175.485 199.986C175.496 198.616 175.681 197.253 176.036 195.929C176.495 193.175 176.862 190.421 177.101 187.584C177.587 182.372 177.532 177.124 176.935 171.923C176.928 171.894 176.91 171.868 176.886 171.849C176.862 171.831 176.833 171.821 176.802 171.821C176.772 171.821 176.742 171.831 176.718 171.849C176.694 171.868 176.677 171.894 176.669 171.923C176.789 179.148 176.366 186.371 175.402 193.533C174.879 196.975 173.144 202.162 176.752 202.713C180.359 203.264 182.792 194.57 183.233 192.192C184.381 185.413 184.643 178.513 184.013 171.666Z" fill="#263238"/>
<path d="M176.752 202.171C176.384 203.067 176.077 203.987 175.834 204.925C175.57 205.645 175.439 206.407 175.448 207.174C175.453 207.206 175.467 207.235 175.488 207.258C175.509 207.281 175.537 207.297 175.568 207.304C175.599 207.311 175.631 207.309 175.661 207.297C175.69 207.285 175.715 207.265 175.733 207.238C176.166 206.562 176.492 205.822 176.697 205.044C177.018 204.191 177.348 203.355 177.615 202.492C177.657 202.378 177.653 202.251 177.602 202.14C177.551 202.029 177.458 201.943 177.344 201.9C177.229 201.858 177.103 201.862 176.992 201.913C176.881 201.964 176.794 202.057 176.752 202.171Z" fill="#263238"/>
<path d="M178.707 296.725C178.266 290.189 178.294 283.295 175.512 277.236C174.035 274.284 172.335 271.448 170.427 268.754C168.529 265.853 166.657 262.937 164.809 260.005C157.465 248.282 150.378 236.321 143.924 224.065C140.812 218.163 137.948 212.067 136.387 205.549C134.865 198.691 134.576 191.616 135.533 184.656C135.754 182.921 135.992 181.195 136.277 179.469C136.278 179.446 136.271 179.423 136.257 179.404C136.243 179.385 136.222 179.372 136.2 179.367C136.177 179.361 136.153 179.364 136.132 179.374C136.111 179.385 136.094 179.402 136.084 179.423C134.574 186.042 134.057 192.848 134.551 199.619C135.258 206.093 137.081 212.395 139.94 218.245C142.786 224.405 146.173 230.335 149.515 236.238C152.96 242.358 156.507 248.389 160.154 254.332C163.826 260.262 167.608 266.073 171.4 271.912C173.334 274.665 174.841 277.695 175.87 280.899C176.705 284.242 177.185 287.663 177.302 291.107C178.22 305.556 181.892 353.595 183.196 367.971C183.352 369.807 183.517 371.643 183.692 373.479C183.687 373.498 183.686 373.518 183.69 373.538C183.693 373.557 183.701 373.575 183.713 373.591C183.725 373.607 183.741 373.62 183.759 373.628C183.776 373.637 183.796 373.642 183.816 373.642C183.835 373.642 183.855 373.637 183.873 373.628C183.89 373.62 183.906 373.607 183.918 373.591C183.93 373.575 183.938 373.557 183.942 373.538C183.946 373.518 183.945 373.498 183.94 373.479C183.389 359.048 179.653 311.129 178.707 296.725Z" fill="#263238"/>
<path d="M156.244 178.826C156.244 178.725 156.078 178.762 156.078 178.826C155.941 182.838 156.078 186.987 154.509 190.76C153.095 194.24 150.249 196.681 147.064 198.508C145.211 199.548 143.302 200.483 141.344 201.308C141.207 201.372 141.262 201.593 141.418 201.547C145.09 200.372 148.881 199.096 151.957 196.636C155.243 193.992 156.684 190.164 156.84 186.033C156.897 183.616 156.697 181.201 156.244 178.826Z" fill="#263238"/>
<path d="M176.614 113.437C181.865 129.557 196.048 157.015 201.115 160.329C205.604 163.257 226.728 159.989 235.999 157.758C239.451 156.923 231.685 130.613 228.004 131.577C223.588 132.734 210.433 135.699 209.478 134.964C208.524 134.23 195.259 117.89 185.858 108.269C177.302 99.5571 174.631 107.342 176.614 113.437Z" fill="#D3766A"/>
<path d="M233.971 157.96C235.742 157.74 250.733 157.042 257.609 153.306C261.281 151.314 270.654 144.723 269.718 142.354C268.864 140.197 265.853 141.372 265.853 141.372C265.853 141.372 269.993 138.37 268.781 135.377C267.569 132.385 262.566 134.634 262.566 134.634C262.566 134.634 266.596 131.237 265.173 128.346C263.751 125.454 259.105 128.548 259.105 128.548C259.105 128.548 262.934 125.619 260.758 123.728C258.132 121.451 251.679 127.657 247.318 129.108C246.327 129.438 226.792 134.377 226.792 134.377L233.971 157.96Z" fill="#D3766A"/>
<path d="M258.94 128.465C254.185 133.009 251.312 134.175 244.959 135.46C244.84 135.46 244.849 135.68 244.959 135.662C251.293 134.974 255.103 134.028 259.151 128.685C259.372 128.419 259.161 128.245 258.94 128.465Z" fill="#263238"/>
<path d="M262.41 134.524C257.058 138.82 253.955 140.105 247.401 141.941C247.309 141.941 247.346 142.134 247.447 142.116C254.02 140.849 257.802 139.821 262.585 134.827C262.805 134.606 262.658 134.331 262.41 134.524Z" fill="#263238"/>
<path d="M265.531 141.445C260.023 145.228 256.709 146.797 250.118 147.761C250.087 147.761 250.056 147.774 250.034 147.796C250.011 147.819 249.999 147.849 249.999 147.881C249.999 147.912 250.011 147.943 250.034 147.965C250.056 147.987 250.087 148 250.118 148C256.939 147.669 261.134 145.751 265.605 141.629C265.935 141.372 265.871 141.216 265.531 141.445Z" fill="#263238"/>
<path d="M221.669 135.221C221.669 135.221 227.132 129.043 230.124 126.858C233.117 124.674 247.291 120.634 248.337 123.645C249.687 127.538 241.966 131.476 237.936 132.908C237.936 132.908 241.067 141.904 236.1 145.925C231.134 149.946 221.669 135.221 221.669 135.221Z" fill="#D3766A"/>
<path d="M248.365 124.848C247.034 129.282 241.618 130.824 237.808 132.504C237.752 132.528 237.702 132.566 237.662 132.613C237.623 132.66 237.595 132.715 237.58 132.775C237.566 132.835 237.566 132.897 237.58 132.957C237.594 133.016 237.622 133.072 237.661 133.119C238.726 136.975 239.093 142.721 236.394 145.971C236.321 146.063 236.44 146.192 236.532 146.109C239.901 143.024 239.993 137.342 238.561 133.193C242.499 131.531 247.86 129.741 248.402 124.866C248.411 124.848 248.374 124.848 248.365 124.848Z" fill="#263238"/>
<path d="M233.961 162.486L227.04 130.962L209.91 134.074C203.153 126.335 189.65 110.867 184.206 106.222C177.78 100.769 173.575 104.863 175.944 113.125C181.296 132.008 196.948 159.732 201.042 162.348C206.981 166.158 233.961 162.486 233.961 162.486Z" fill="#5BA4A4"/>
<path opacity="0.1" d="M209.506 143.667C210.354 143.851 211.218 143.953 212.086 143.97C213.922 144.218 214.729 146.926 213.059 147.954C212.181 148.495 211.189 148.822 210.163 148.909C209.136 148.997 208.103 148.843 207.147 148.459C205.311 147.743 203.759 145.962 204.154 143.869C204.222 143.479 204.391 143.113 204.642 142.807C204.894 142.501 205.22 142.266 205.59 142.123C205.96 141.981 206.36 141.937 206.752 141.995C207.144 142.053 207.514 142.212 207.826 142.455C208.335 142.926 208.899 143.333 209.506 143.667ZM204.769 136.167C204.108 139.288 208.937 141.969 211.406 140.307C211.605 140.156 211.768 139.963 211.882 139.741C211.996 139.518 212.058 139.273 212.064 139.024C212.07 138.774 212.02 138.526 211.917 138.299C211.815 138.071 211.662 137.87 211.471 137.709C210.745 137.122 210.139 137.03 209.497 136.497C209.272 136.322 209.074 136.115 208.909 135.882C208.545 135.381 208.079 134.961 207.541 134.652C207.262 134.533 206.959 134.478 206.655 134.493C206.351 134.508 206.055 134.591 205.788 134.737C205.521 134.883 205.29 135.087 205.114 135.335C204.938 135.583 204.82 135.867 204.769 136.167ZM197.067 136.332C196.076 137.627 196.819 139.573 197.691 140.748C198.084 141.333 198.625 141.804 199.258 142.112C199.892 142.42 200.596 142.554 201.299 142.501C201.555 142.465 201.795 142.356 201.991 142.186C202.186 142.017 202.328 141.795 202.4 141.546C202.472 141.298 202.47 141.034 202.395 140.786C202.321 140.539 202.176 140.318 201.978 140.151C201.426 139.731 200.985 139.183 200.693 138.554C200.262 137.581 199.977 136.323 198.857 135.901C198.551 135.775 198.214 135.749 197.892 135.826C197.571 135.904 197.282 136.081 197.067 136.332ZM217.401 156.749C216.106 159.365 220.045 162.339 222.431 161.825C223.23 161.651 224.001 160.604 223.294 159.851C222.725 159.246 222.046 158.768 221.513 158.126C220.862 157.345 220.504 156.345 219.485 155.95C219.101 155.789 218.671 155.783 218.283 155.932C217.895 156.08 217.579 156.373 217.401 156.749ZM180.424 124.664C180.198 124.235 179.885 123.856 179.506 123.554C180.02 124.869 180.561 126.188 181.131 127.51C181.161 126.515 180.917 125.53 180.424 124.664ZM185.537 121.91C185.357 119.643 184.471 117.489 183.003 115.751C181.902 114.328 179.992 112.079 177.973 112.565C177.758 112.632 177.571 112.767 177.438 112.949C177.306 113.13 177.236 113.35 177.238 113.575C177.11 115.126 178.891 116.788 179.662 118.027C180.58 119.588 181.305 121.314 182.296 122.865C182.504 123.184 182.809 123.427 183.166 123.559C183.522 123.69 183.912 123.703 184.277 123.594C184.642 123.486 184.961 123.262 185.188 122.957C185.415 122.652 185.538 122.282 185.537 121.901V121.91ZM184.94 131.779C185.299 131.76 185.642 131.627 185.92 131.399C186.198 131.171 186.395 130.86 186.483 130.512C186.625 129.799 186.578 129.062 186.345 128.373C186.208 127.717 185.89 127.113 185.427 126.629C185.261 126.476 185.058 126.368 184.839 126.317C184.619 126.265 184.389 126.272 184.173 126.335C183.956 126.399 183.76 126.518 183.603 126.681C183.447 126.843 183.335 127.044 183.279 127.262C183.205 127.798 183.205 128.342 183.279 128.878C183.279 129.108 183.279 129.337 183.279 129.576C183.274 129.922 183.311 130.267 183.389 130.604C183.488 130.939 183.692 131.234 183.971 131.444C184.251 131.654 184.591 131.768 184.94 131.77V131.779Z" fill="#030402"/>
<path d="M227.967 159.732C227.177 157.896 225.213 149.744 224.782 147.715C224.35 145.687 222.753 137.48 222.285 135.396C222.285 135.276 222.413 135.212 222.441 135.322C222.936 137.379 225.149 145.475 225.635 147.495C226.122 149.515 227.949 157.657 228.077 159.704C228.079 159.712 228.079 159.719 228.078 159.727C228.077 159.734 228.075 159.741 228.071 159.747C228.063 159.76 228.05 159.77 228.036 159.773C228.021 159.777 228.006 159.775 227.993 159.767C227.98 159.759 227.971 159.747 227.967 159.732Z" fill="#263238"/>
<path opacity="0.1" d="M212.058 164.065C207.239 164.065 203.007 163.606 201.042 162.348C196.92 159.686 181.268 132.054 175.88 113.134C174.521 108.397 175.338 105.019 177.486 104.037L212.058 164.065Z" fill="black"/>
<path d="M134.377 170.482C134.496 170.656 191.779 178 192.394 177.468C192.718 175.873 192.948 174.261 193.083 172.639C193.083 172.639 187.832 110.27 185.115 106.607C182.737 103.413 175.522 101.099 170.61 103.183C160.301 107.553 135.616 163.275 135.882 165.607C135.864 165.58 134.23 170.261 134.377 170.482Z" fill="#5BA4A4"/>
<path opacity="0.1" d="M155.032 162.89C155.915 163.319 156.837 163.663 157.786 163.918C159.695 164.68 159.87 167.865 157.786 168.508C156.678 168.86 155.503 168.947 154.356 168.764C153.208 168.58 152.119 168.131 151.176 167.452C149.34 166.167 148.156 163.78 149.147 161.651C149.329 161.245 149.613 160.894 149.97 160.63C150.327 160.365 150.746 160.198 151.187 160.142C151.627 160.087 152.075 160.146 152.486 160.314C152.898 160.481 153.259 160.752 153.535 161.1C154.05 161.696 154.362 162.486 155.032 162.89ZM151.892 153.407C150.322 156.647 154.867 160.879 158.015 159.732C158.279 159.627 158.515 159.461 158.704 159.249C158.893 159.037 159.03 158.784 159.105 158.51C159.18 158.236 159.19 157.949 159.135 157.67C159.079 157.391 158.96 157.129 158.786 156.905C158.162 156.069 157.52 155.803 156.95 155.069C156.754 154.815 156.596 154.533 156.482 154.233C156.211 153.592 155.815 153.012 155.316 152.526C154.224 151.47 152.471 152.214 151.892 153.407ZM146.586 149.955C144.87 150.598 144.429 152.911 144.557 154.545C144.584 155.339 144.82 156.112 145.243 156.784C145.665 157.457 146.259 158.005 146.963 158.373C147.228 158.492 147.522 158.531 147.81 158.486C148.097 158.441 148.365 158.314 148.582 158.12C148.798 157.925 148.954 157.673 149.03 157.392C149.106 157.111 149.099 156.814 149.01 156.537C148.718 155.803 148.617 155.008 148.716 154.224C148.872 153.049 149.34 151.672 148.56 150.616C148.343 150.312 148.035 150.084 147.68 149.965C147.326 149.847 146.943 149.843 146.586 149.955ZM165.405 160.879C164.971 160.842 164.538 160.973 164.197 161.244C163.856 161.516 163.631 161.907 163.569 162.339C163.522 162.803 163.639 163.269 163.898 163.656C164.158 164.043 164.545 164.327 164.992 164.46C165.618 164.666 166.294 164.666 166.92 164.46C167.24 164.333 167.504 164.095 167.663 163.79C167.848 163.494 167.923 163.143 167.875 162.798C167.824 162.476 167.676 162.177 167.452 161.941C167.227 161.705 166.936 161.543 166.617 161.476C166.559 161.4 166.491 161.332 166.415 161.274C166.124 161.048 165.773 160.911 165.405 160.879ZM151.332 138.728C149.79 140.307 150.414 143.896 152.177 145.108C152.404 145.281 152.672 145.391 152.955 145.428C153.237 145.465 153.525 145.427 153.788 145.318C154.052 145.21 154.282 145.034 154.457 144.809C154.632 144.584 154.744 144.316 154.784 144.034C154.811 143.671 154.811 143.305 154.784 142.942C154.784 142.547 154.729 142.299 154.784 142.024C154.921 141.239 154.949 140.439 154.867 139.646C154.795 139.27 154.619 138.922 154.357 138.643C154.096 138.364 153.76 138.164 153.39 138.068C153.02 137.972 152.63 137.983 152.265 138.1C151.901 138.217 151.578 138.434 151.332 138.728ZM141.372 161.568C139.251 164.083 142.749 168.398 145.494 168.481C146.412 168.481 147.541 167.562 146.972 166.553C146.513 165.745 145.898 165.029 145.494 164.193C144.998 163.165 144.879 161.963 143.869 161.265C143.492 160.988 143.024 160.865 142.56 160.922C142.096 160.978 141.671 161.209 141.372 161.568ZM192.018 160.769C191.672 160.821 191.35 160.974 191.092 161.21C190.834 161.445 190.651 161.752 190.568 162.091C190.274 163.11 190.237 164.019 189.475 164.845C188.651 165.494 187.91 166.243 187.272 167.076C187.165 167.284 187.115 167.516 187.125 167.749C187.135 167.983 187.205 168.21 187.329 168.408C187.453 168.606 187.626 168.768 187.832 168.879C188.038 168.99 188.269 169.046 188.502 169.04C190.105 168.843 191.573 168.042 192.606 166.801C192.422 165.056 192.238 163.009 192.027 160.733L192.018 160.769ZM187.428 153.196C186.914 154.444 187.006 155.858 186.574 157.162C186.196 158.357 185.745 159.528 185.225 160.668C184.839 161.495 185.61 162.798 186.611 162.357C188.238 161.733 189.57 160.516 190.338 158.952C191.036 157.51 191.807 155.087 191.137 153.554C190.467 152.021 188.19 151.351 187.41 153.159L187.428 153.196ZM182.195 165.708C181.433 166.694 180.456 167.494 179.34 168.049C179.075 168.132 178.829 168.27 178.621 168.454C178.412 168.639 178.245 168.866 178.131 169.12C178.017 169.374 177.958 169.649 177.958 169.927C177.959 170.206 178.018 170.481 178.133 170.735C178.247 170.988 178.415 171.215 178.624 171.399C178.833 171.583 179.078 171.721 179.344 171.803C179.61 171.885 179.891 171.909 180.167 171.875C180.444 171.84 180.709 171.747 180.947 171.602C181.897 171.195 182.746 170.584 183.434 169.813C184.123 169.042 184.633 168.13 184.931 167.14C185.363 165.552 183.214 164.515 182.177 165.671L182.195 165.708ZM173.805 120.726C174.318 120.835 174.853 120.74 175.298 120.463C175.743 120.186 176.063 119.747 176.192 119.239C176.706 117.265 174.943 115.237 173.548 114.006C172.153 112.776 170.188 111.656 168.233 112.29C167.972 112.374 167.738 112.524 167.552 112.724C167.365 112.924 167.233 113.169 167.168 113.435C167.103 113.7 167.106 113.978 167.178 114.242C167.251 114.506 167.389 114.747 167.581 114.943C168.435 116.008 169.619 116.779 170.528 117.825C171.436 118.872 172.189 120.423 173.787 120.689L173.805 120.726ZM180.846 128.52C181.617 127.409 181.02 125.766 180.47 124.71C180.176 124.128 179.72 123.643 179.157 123.315C178.778 123.072 178.318 122.989 177.878 123.084C177.438 123.178 177.053 123.443 176.807 123.82C176.556 124.342 176.517 124.94 176.697 125.491C176.773 125.778 176.878 126.058 177.009 126.326V126.409V126.482C177.173 127.359 177.544 128.183 178.092 128.887C178.282 129.078 178.513 129.223 178.767 129.309C179.022 129.396 179.293 129.423 179.56 129.387C179.827 129.351 180.082 129.255 180.305 129.104C180.528 128.954 180.713 128.754 180.846 128.52ZM185.583 121.947C185.403 119.679 184.517 117.525 183.049 115.787C181.948 114.364 180.038 112.115 178.019 112.602C177.804 112.669 177.617 112.803 177.484 112.985C177.352 113.167 177.282 113.387 177.284 113.612C177.156 115.163 178.937 116.825 179.708 118.064C180.626 119.625 181.351 121.35 182.342 122.902C182.558 123.203 182.864 123.429 183.216 123.546C183.568 123.664 183.947 123.667 184.301 123.557C184.655 123.446 184.965 123.226 185.187 122.929C185.409 122.632 185.531 122.272 185.537 121.901L185.583 121.947ZM178.652 137.663C178.988 137.737 179.335 137.737 179.671 137.663C180.18 137.507 180.61 137.162 180.874 136.699C181.12 136.207 181.243 135.662 181.232 135.111C181.215 134.59 181.073 134.08 180.818 133.624L180.515 133.248L180.112 132.954C179.859 132.824 179.58 132.752 179.296 132.744C179.012 132.736 178.729 132.793 178.47 132.909C178.211 133.026 177.981 133.199 177.798 133.417C177.615 133.634 177.483 133.89 177.413 134.166C177.26 134.7 177.152 135.247 177.091 135.8L177.174 136.305C177.238 136.558 177.364 136.791 177.541 136.984C177.818 137.304 178.192 137.527 178.606 137.617L178.652 137.663ZM184.986 131.816C185.345 131.797 185.688 131.664 185.966 131.436C186.243 131.208 186.441 130.897 186.528 130.549C186.671 129.836 186.624 129.098 186.391 128.41C186.253 127.754 185.935 127.15 185.473 126.666C185.307 126.512 185.104 126.405 184.884 126.353C184.665 126.302 184.435 126.308 184.219 126.372C184.002 126.436 183.806 126.555 183.649 126.717C183.492 126.88 183.381 127.08 183.325 127.299C183.251 127.835 183.251 128.379 183.325 128.915C183.325 129.144 183.325 129.374 183.325 129.612C183.32 129.958 183.357 130.303 183.435 130.641C183.537 130.962 183.738 131.243 184.007 131.445C184.277 131.648 184.603 131.761 184.94 131.77L184.986 131.816Z" fill="#030402"/>
<path d="M181.764 116.384C178.266 116.063 173.787 108.59 172.933 103.844C172.878 103.514 174.273 100.751 175.806 97.3172C176.724 95.2333 177.716 92.8833 178.45 90.6801L191.155 98.6758C189.441 101.17 188.038 103.864 186.978 106.699C186.883 106.998 186.816 107.306 186.776 107.617C186.78 107.669 186.78 107.721 186.776 107.773C186.455 109.609 185.151 116.696 181.764 116.384Z" fill="#D3766A"/>
<path d="M186.776 107.636C186.779 107.687 186.779 107.74 186.776 107.792C186.287 107.696 185.805 107.564 185.335 107.397C177.385 104.533 178.79 94.1042 179.35 91.2217L182.517 93.2229L191.192 98.7309C189.478 101.224 188.079 103.919 187.024 106.754C186.915 107.04 186.832 107.335 186.776 107.636Z" fill="#263238"/>
<path d="M179.781 75.9645C177.156 80.6922 176.697 95.8759 179.607 99.9059C183.811 105.744 192.257 108.021 197.609 102.66C202.795 97.409 203.034 77.6077 199.656 73.7888C194.662 68.1156 183.655 68.9785 179.781 75.9645Z" fill="#D3766A"/>
<path d="M191.972 88.2382C191.972 88.2382 191.89 88.2382 191.89 88.33C191.89 89.3765 191.706 90.5699 190.751 90.882V90.9463C191.917 90.8177 192.137 89.2296 191.972 88.2382Z" fill="#263238"/>
<path d="M191.082 87.1182C189.402 86.9346 189.154 90.2945 190.705 90.4689C192.257 90.6433 192.486 87.2743 191.082 87.1182Z" fill="#263238"/>
<path d="M197.994 88.5962C197.994 88.5962 198.068 88.6513 198.068 88.6972C197.948 89.7345 197.994 90.9463 198.903 91.3594C198.903 91.3594 198.903 91.4328 198.903 91.4236C197.756 91.1666 197.719 89.5601 197.994 88.5962Z" fill="#263238"/>
<path d="M199.013 87.5863C200.693 87.5863 200.555 90.9554 199.013 90.9554C197.471 90.9554 197.599 87.5771 199.013 87.5863Z" fill="#263238"/>
<path d="M192.44 86.4389C191.972 86.5399 191.522 86.5491 191.063 86.6041C190.588 86.7285 190.085 86.693 189.631 86.5032C189.499 86.4162 189.4 86.288 189.348 86.1385C189.297 85.9891 189.296 85.8268 189.347 85.677C189.497 85.4032 189.717 85.174 189.985 85.0128C190.253 84.8516 190.558 84.764 190.871 84.759C191.505 84.637 192.161 84.7618 192.707 85.1078C192.82 85.1931 192.907 85.3087 192.958 85.4412C193.008 85.5738 193.02 85.718 192.992 85.8571C192.965 85.9963 192.898 86.1247 192.8 86.2277C192.703 86.3306 192.578 86.4038 192.44 86.4389Z" fill="#263238"/>
<path d="M200.519 84.4559C200.073 84.3309 199.635 84.1807 199.206 84.0061C198.723 83.9151 198.284 83.6665 197.958 83.2993C197.876 83.1647 197.841 83.0068 197.86 82.8505C197.878 82.6941 197.948 82.5484 198.058 82.4363C198.309 82.2447 198.607 82.1247 198.921 82.0891C199.235 82.0535 199.552 82.1038 199.839 82.2344C200.46 82.4041 200.995 82.7963 201.345 83.336C201.418 83.4641 201.451 83.6104 201.443 83.7574C201.434 83.9043 201.383 84.0456 201.295 84.164C201.208 84.2825 201.088 84.3731 200.95 84.4249C200.812 84.4767 200.663 84.4875 200.519 84.4559Z" fill="#263238"/>
<path d="M191.21 96.5185C192.562 96.1949 193.971 96.1949 195.323 96.5185C195.442 96.5185 195.562 96.2799 195.589 96.1697L195.663 93.9665C195.947 94.1317 197.379 94.8845 197.379 94.4806C197.529 90.8997 197.31 87.313 196.727 83.7767C196.721 83.7562 196.708 83.7382 196.691 83.7254C196.674 83.7127 196.653 83.7058 196.631 83.7058C196.61 83.7058 196.589 83.7127 196.571 83.7254C196.554 83.7382 196.541 83.7562 196.535 83.7767C196.388 87.0907 196.81 90.3955 196.709 93.7278C196.202 93.4471 195.658 93.24 195.093 93.1128C194.974 93.1128 195.093 95.4537 195.093 95.8025C193.83 95.3672 192.446 95.443 191.238 96.0136C190.76 96.3166 190.568 96.7205 191.21 96.5185Z" fill="#263238"/>
<path d="M188.493 98.7034C188.722 98.9604 188.952 99.3092 189.319 99.3643C189.705 99.3828 190.09 99.317 190.448 99.1715C190.448 99.1715 190.513 99.1715 190.448 99.2266C190.29 99.4215 190.081 99.5691 189.845 99.6533C189.609 99.7375 189.354 99.755 189.108 99.704C188.907 99.6398 188.73 99.519 188.596 99.3562C188.462 99.1933 188.379 98.9953 188.355 98.786C188.374 98.685 188.456 98.6666 188.493 98.7034Z" fill="#263238"/>
<path opacity="0.2" d="M184.215 71.145C184.077 73.5043 183.517 80.8207 182.379 82.3079C181.241 83.7951 178.836 87.2559 177.615 87.8159C177.78 82.9413 178.533 78.3054 179.79 75.8819C180.821 73.9402 182.348 72.3059 184.215 71.145Z" fill="#263238"/>
<path d="M197.297 78.2963C196.655 78.9496 195.856 79.4277 194.977 79.6848C194.098 79.9419 193.168 79.9695 192.275 79.7651C191.361 79.5618 190.516 79.1263 189.819 78.5008C189.123 77.8753 188.6 77.0808 188.3 76.194C188.3 76.139 188.199 76.194 188.218 76.194C188.451 77.1514 188.942 78.0265 189.638 78.7241C190.334 79.4217 191.208 79.9151 192.165 80.1506C193.12 80.3329 194.107 80.2591 195.024 79.9366C195.942 79.6142 196.757 79.0545 197.388 78.3146C197.443 78.3238 197.37 78.2412 197.297 78.2963Z" fill="#263238"/>
<path d="M192.688 64.6915C191.277 64.596 189.865 64.8571 188.582 65.4507C187.298 66.0443 186.185 66.9512 185.344 68.0881C184.628 69.245 184.324 70.6103 184.481 71.962H184.601C184.618 70.7759 184.956 69.6166 185.578 68.6067C186.2 67.5967 187.083 66.7736 188.135 66.2245C189.284 65.5811 190.567 65.2124 191.882 65.1471C193.198 65.0818 194.51 65.3217 195.718 65.8481C196.905 66.3377 197.881 67.2321 198.472 68.3726C198.527 68.492 198.765 68.4369 198.719 68.3176C197.967 66.3163 195.534 64.8292 192.688 64.6915Z" fill="#263238"/>
<path d="M210.222 72.6964C209.823 71.1423 208.886 69.7796 207.578 68.85C205.742 67.5373 203.594 67.5556 201.446 67.6291C201.382 67.6291 201.391 67.7209 201.446 67.7117C203.272 67.521 205.115 67.8621 206.752 68.6939C208.084 69.4936 209.099 70.7292 209.625 72.1915C210.126 73.6914 210.068 75.3214 209.462 76.7819C208.857 78.2425 207.744 79.4354 206.33 80.1414C205.506 80.5284 204.612 80.7427 203.703 80.7711C202.794 80.7996 201.888 80.6415 201.042 80.3066C200.978 80.3066 200.923 80.3709 200.987 80.4076C202.132 80.9132 203.395 81.0887 204.634 80.9142C205.873 80.7397 207.039 80.2223 207.999 79.4202C208.96 78.6182 209.677 77.5635 210.07 76.3754C210.463 75.1872 210.515 73.9129 210.222 72.6964Z" fill="#263238"/>
<path d="M178.863 78.948C178.863 78.948 176.329 73.1738 179.038 70.1444C180.571 68.4369 185.179 69.0244 185.179 69.0244C186.556 67.2769 188.57 66.1477 190.779 65.8848C194.717 65.2698 199.206 67.932 199.206 67.932C199.206 67.932 203.043 66.096 206.339 68.3267C210.929 71.4387 209.781 78.7185 204.769 80.7014C201.244 82.1059 196.856 78.746 196.856 78.746C196.415 78.746 191.66 81.1695 188.53 76.8549C188.53 76.8549 185.555 79.1224 183.178 77.1946C182.726 77.8945 182.069 78.4383 181.297 78.752C180.525 79.0657 179.675 79.1341 178.863 78.948Z" fill="#263238"/>
<path d="M180.359 88.5411C180.359 88.5411 177.954 83.1525 175.577 83.9511C173.199 84.7498 174.356 92.0754 176.706 93.5075C176.992 93.7067 177.316 93.8463 177.657 93.9182C177.998 93.9901 178.351 93.9927 178.693 93.9259C179.036 93.8592 179.361 93.7243 179.651 93.5295C179.94 93.3346 180.187 93.0836 180.378 92.7915L180.359 88.5411Z" fill="#D3766A"/>
<path d="M175.962 86.0258V86.09C177.596 87.1457 178.211 88.9725 178.533 90.7994C178.464 90.6025 178.353 90.423 178.207 90.2733C178.062 90.1235 177.886 90.0071 177.691 89.932C177.497 89.8569 177.288 89.825 177.08 89.8385C176.872 89.8519 176.669 89.9104 176.486 90.0099C176.43 90.0099 176.486 90.1109 176.486 90.1109C176.82 90.0722 177.158 90.1402 177.451 90.305C177.745 90.4699 177.979 90.7232 178.12 91.0289C178.369 91.5254 178.56 92.0491 178.689 92.5895C178.689 92.7639 179.038 92.7363 179.019 92.5895C179.487 90.221 178.34 86.7234 175.962 86.0258Z" fill="#263238"/>
<path d="M307.602 99.2364L208.767 129.51L226.587 187.687L325.421 157.413L307.602 99.2364Z" fill="#5BA4A4"/>
<path opacity="0.2" d="M307.602 99.2364L208.767 129.51L226.587 187.687L325.421 157.413L307.602 99.2364Z" fill="black"/>
<path opacity="0.2" d="M307.597 99.2367L274.383 109.41L292.203 167.587L325.417 157.414L307.597 99.2367Z" fill="black"/>
<path d="M306.006 102.201C304.886 107.354 303.797 112.507 302.738 117.66L299.608 133.156L296.578 148.716C295.587 153.894 294.62 159.08 293.677 164.276C294.797 159.129 295.887 153.976 296.945 148.817L300.076 133.321L303.105 117.798C304.097 112.596 305.064 107.397 306.006 102.201Z" fill="#5BA4A4"/>
<path d="M322.319 155.463C318.647 151.693 314.941 147.939 311.202 144.199L300.002 133.037L288.729 121.956C284.959 118.284 281.171 114.612 277.365 110.94C281.037 114.716 284.742 118.471 288.481 122.204L299.681 133.367L310.954 144.447C314.73 148.156 318.518 151.828 322.319 155.463Z" fill="#5BA4A4"/>
<path d="M227.75 137.007L228.294 136.84L225.952 129.195L225.408 129.361L227.75 137.007Z" fill="#263238"/>
<path d="M226.457 137.395L227.001 137.228L224.659 129.583L224.115 129.75L226.457 137.395Z" fill="#263238"/>
<path d="M225.152 137.811L225.696 137.645L223.355 129.999L222.81 130.166L225.152 137.811Z" fill="#263238"/>
<path d="M223.861 138.186L224.405 138.019L222.065 130.374L221.521 130.54L223.861 138.186Z" fill="#263238"/>
<path d="M222.558 138.591L223.102 138.424L220.761 130.779L220.216 130.945L222.558 138.591Z" fill="#263238"/>
<path d="M221.263 138.979L221.807 138.812L219.465 131.167L218.921 131.334L221.263 138.979Z" fill="#263238"/>
<path d="M219.952 139.407L220.496 139.24L218.154 131.595L217.61 131.762L219.952 139.407Z" fill="#263238"/>
<path d="M218.655 139.793L219.199 139.626L216.856 131.981L216.312 132.148L218.655 139.793Z" fill="#263238"/>
<path d="M217.346 140.205L217.89 140.038L215.548 132.393L215.004 132.56L217.346 140.205Z" fill="#263238"/>
<path d="M231.455 128.144L229.197 128.199L234.09 126.684L232.181 127.914L233.043 130.723C234.595 130.457 235.641 131.751 236.431 134.322L231.538 135.864C230.748 133.303 230.886 131.641 232.318 130.989L231.455 128.144Z" fill="#263238"/>
<path d="M236.376 130.099L237.652 129.704L236.504 125.959L239.772 124.958L240.92 128.704L242.205 128.309L240.479 133.101L236.376 130.099Z" fill="#263238"/>
<path opacity="0.1" d="M208.772 129.511L210.231 134.285L278.549 123.012L274.381 109.416L208.772 129.511Z" fill="black"/>
<path d="M338.228 164.01L305.006 174.181L292.199 167.59L325.422 157.409L338.228 164.01Z" fill="#5BA4A4"/>
<path opacity="0.2" d="M338.228 164.01L305.006 174.181L292.199 167.59L325.422 157.409L338.228 164.01Z" fill="black"/>
<path d="M219.668 200.326L252.891 190.145L259.803 177.514L226.581 187.685L219.668 200.326Z" fill="#5BA4A4"/>
<path opacity="0.1" d="M219.668 200.326L252.891 190.145L259.803 177.514L226.581 187.685L219.668 200.326Z" fill="black"/>
<path d="M164.992 120.533C169.848 136.773 183.352 164.597 188.364 167.994C192.78 171.033 213.977 168.269 223.248 166.259C226.718 165.515 219.576 139.022 215.904 139.894C211.461 140.95 198.233 143.566 197.297 142.841C196.36 142.116 183.527 125.399 174.347 115.595C166.011 106.672 163.156 114.392 164.992 120.533Z" fill="#D3766A"/>
<path d="M213.995 142.051C213.995 142.051 221.018 134.138 225.993 131.118C231.245 128.112 237.149 126.426 243.197 126.207C249.724 125.95 265.688 129.824 265.366 134.616C265.082 138.958 248.971 134.166 248.971 134.166C248.971 134.166 266.202 136.341 264.898 141.51C263.595 146.678 245.207 140.041 245.207 140.041C245.207 140.041 262.86 142.666 260.712 147.798C259.06 151.663 242.067 146.595 242.067 146.595C242.067 146.595 257.233 148.964 255.7 153.021C254.011 157.492 238.028 153.802 238.028 153.802C232.419 163.422 225.8 165.736 220.908 166.773C219.687 166.984 213.995 142.051 213.995 142.051Z" fill="#D3766A"/>
<path d="M243.059 133.027C245.088 133.211 247.153 133.385 249.164 133.743C251.174 134.101 253.166 134.542 255.14 135.093C257.725 135.757 260.226 136.715 262.594 137.948C258.233 136.066 251.055 134.652 249.044 134.276C247.034 133.899 245.042 133.45 243.04 133.092C242.985 133.11 243.004 133.027 243.059 133.027Z" fill="#263238"/>
<path d="M241.618 140.27C244.197 140.61 246.786 140.858 249.356 141.317C251.927 141.776 254.304 142.437 256.829 143.07C257.022 143.116 256.93 143.208 256.737 143.162C254.185 142.63 251.798 142.336 249.246 141.84C246.694 141.344 244.16 140.739 241.599 140.326C241.562 140.326 241.572 140.261 241.618 140.27Z" fill="#263238"/>
<path d="M239.258 146.256C243.239 146.688 247.165 147.531 250.972 148.771C251.165 148.826 251.036 148.927 250.834 148.881C246.96 147.963 243.922 147.229 239.249 146.394C239.176 146.384 239.176 146.247 239.258 146.256Z" fill="#263238"/>
<path d="M221.146 170.959L214.977 139.27L197.783 141.969C191.21 134.074 178.083 118.284 172.722 113.511C166.433 107.902 162.128 111.904 164.285 120.212C169.224 139.206 184.206 167.26 188.263 170.014C194.084 173.961 221.146 170.959 221.146 170.959Z" fill="#5BA4A4"/>
<path opacity="0.1" d="M209.506 143.667C210.354 143.851 211.218 143.953 212.086 143.97C213.922 144.218 214.729 146.926 213.059 147.954C212.181 148.494 211.189 148.822 210.163 148.909C209.136 148.997 208.103 148.843 207.147 148.459C205.311 147.743 203.759 145.962 204.154 143.869C204.222 143.479 204.391 143.113 204.642 142.807C204.894 142.501 205.22 142.265 205.59 142.123C205.96 141.981 206.36 141.937 206.752 141.995C207.144 142.053 207.514 142.212 207.826 142.455C208.335 142.926 208.899 143.333 209.506 143.667ZM207.67 140.417C208.246 140.695 208.88 140.83 209.519 140.811C210.159 140.791 210.784 140.619 211.342 140.307C211.548 140.17 211.713 139.979 211.819 139.756L207.67 140.417ZM198.738 141.813C199.469 142.346 200.371 142.592 201.272 142.501C201.582 142.458 201.868 142.308 202.079 142.077C202.29 141.846 202.414 141.547 202.428 141.234L198.738 141.813ZM218.199 155.959C217.836 156.111 217.542 156.392 217.373 156.748C216.602 158.3 217.676 159.971 219.209 160.971L218.199 155.959ZM190.549 162.054C190.256 163.073 190.219 163.982 189.457 164.808C188.636 165.47 187.902 166.232 187.272 167.076C187.165 167.284 187.115 167.516 187.125 167.749C187.135 167.983 187.205 168.209 187.329 168.407C187.453 168.605 187.627 168.768 187.832 168.879C188.038 168.99 188.269 169.046 188.502 169.04C190.102 168.844 191.569 168.053 192.613 166.826C193.657 165.598 194.201 164.023 194.139 162.413C194.087 162 193.897 161.617 193.599 161.326C193.302 161.036 192.914 160.855 192.5 160.814C192.087 160.772 191.671 160.872 191.322 161.098C190.972 161.323 190.71 161.66 190.577 162.054H190.549ZM187.382 153.159C186.868 154.408 186.96 155.821 186.528 157.125C186.15 158.32 185.699 159.491 185.179 160.632C184.793 161.458 185.565 162.761 186.565 162.321C188.192 161.696 189.524 160.48 190.292 158.915C190.99 157.474 191.761 155.05 191.091 153.517C190.421 151.984 188.19 151.351 187.41 153.159H187.382ZM173.759 120.689C174.272 120.798 174.807 120.704 175.252 120.426C175.697 120.149 176.017 119.71 176.146 119.202C176.66 117.229 174.897 115.2 173.502 113.97C172.107 112.74 170.142 111.62 168.187 112.253C167.926 112.337 167.692 112.487 167.506 112.687C167.319 112.888 167.187 113.132 167.122 113.398C167.057 113.664 167.06 113.942 167.133 114.206C167.205 114.47 167.343 114.711 167.535 114.906C168.389 115.971 169.573 116.742 170.482 117.789C171.391 118.835 172.189 120.423 173.787 120.689H173.759ZM180.846 128.52C181.617 127.409 181.02 125.766 180.47 124.71C180.176 124.128 179.72 123.643 179.157 123.315C178.778 123.072 178.318 122.989 177.878 123.084C177.438 123.178 177.053 123.443 176.807 123.82C176.556 124.342 176.517 124.94 176.697 125.491C176.773 125.778 176.878 126.058 177.009 126.326V126.409V126.482C177.173 127.359 177.544 128.183 178.092 128.887C178.282 129.078 178.513 129.223 178.767 129.309C179.022 129.396 179.293 129.423 179.56 129.387C179.827 129.351 180.082 129.255 180.305 129.104C180.528 128.954 180.713 128.754 180.846 128.52ZM178.652 137.7C178.988 137.773 179.335 137.773 179.671 137.7C180.18 137.543 180.61 137.199 180.874 136.736C181.12 136.244 181.243 135.699 181.232 135.148C181.215 134.626 181.073 134.116 180.818 133.661L180.516 133.284L180.112 132.991C179.859 132.86 179.58 132.789 179.296 132.781C179.012 132.773 178.729 132.83 178.47 132.946C178.211 133.063 177.981 133.236 177.798 133.453C177.615 133.671 177.483 133.927 177.413 134.202C177.26 134.737 177.152 135.284 177.091 135.836L177.174 136.341C177.238 136.595 177.364 136.828 177.541 137.021C177.824 137.328 178.197 137.537 178.606 137.617L178.652 137.7ZM186.354 128.382L184.518 126.317C184.225 126.282 183.929 126.356 183.687 126.525C183.444 126.695 183.273 126.947 183.205 127.235C183.132 127.771 183.132 128.314 183.205 128.85C183.205 129.08 183.205 129.309 183.205 129.548C183.201 129.894 183.238 130.239 183.315 130.576C183.416 130.926 183.63 131.231 183.925 131.444C184.22 131.657 184.577 131.765 184.94 131.751C185.299 131.733 185.642 131.6 185.92 131.372C186.197 131.144 186.395 130.833 186.483 130.484C186.62 129.784 186.576 129.06 186.354 128.382Z" fill="#030402"/>
<path d="M215.216 168.049C214.472 166.167 212.728 157.997 212.315 155.95C211.902 153.903 210.534 145.677 210.121 143.575C210.121 143.465 210.249 143.392 210.277 143.511C210.718 145.576 212.746 153.719 213.178 155.757C213.609 157.795 215.253 165.965 215.326 168.022C215.33 168.036 215.327 168.052 215.32 168.064C215.312 168.077 215.299 168.087 215.285 168.09C215.27 168.094 215.255 168.092 215.242 168.084C215.229 168.076 215.22 168.064 215.216 168.049Z" fill="#263238"/>
<path d="M209.543 171.85C206.724 172.015 203.906 172.079 201.088 172.061C198.259 172.073 195.433 171.911 192.624 171.574C191.185 171.432 189.778 171.06 188.456 170.473C187.268 169.634 186.237 168.593 185.409 167.397C183.744 165.1 182.239 162.692 180.901 160.191C178.147 155.243 175.779 150.093 173.465 144.97C171.152 139.848 169.05 134.579 167.122 129.273C169.463 134.404 171.776 139.545 174.181 144.64C176.587 149.735 179.019 154.811 181.645 159.778C182.955 162.255 184.402 164.658 185.978 166.975C186.713 168.129 187.646 169.145 188.732 169.977C189.983 170.554 191.319 170.929 192.688 171.088C198.279 171.765 203.913 172.02 209.543 171.85Z" fill="#263238"/>
<path d="M168.912 133.753C168.535 133.372 168.194 132.957 167.893 132.513C167.582 132.074 167.343 131.587 167.186 131.072C167.324 131.3 167.475 131.521 167.636 131.733L168.086 132.385C168.388 132.824 168.664 133.281 168.912 133.753Z" fill="#263238"/>
<path d="M183.407 125.243C185.73 127.574 187.814 130.136 189.971 132.587C192.128 135.038 194.194 137.627 196.397 140.068L197.214 140.986C197.361 141.124 197.499 141.28 197.636 141.409C197.774 141.537 197.774 141.528 197.838 141.583C197.902 141.638 197.838 141.583 197.838 141.583C197.838 141.583 197.902 141.583 197.939 141.583C198.637 141.583 199.518 141.427 200.308 141.326L205.191 140.601C208.441 140.123 211.7 139.628 214.959 139.187L215.087 139.995L214.895 139.196H214.941C211.718 139.885 208.515 140.5 205.246 141.097C203.622 141.39 201.997 141.647 200.363 141.895C199.527 142.04 198.685 142.138 197.838 142.189C197.771 142.198 197.703 142.198 197.636 142.189C197.546 142.162 197.462 142.118 197.388 142.06C197.296 141.989 197.207 141.912 197.122 141.831L196.672 141.39C196.379 141.087 196.103 140.784 195.828 140.472C193.67 137.966 191.577 135.432 189.521 132.862L186.446 128.997C185.436 127.795 184.518 126.473 183.407 125.243Z" fill="#263238"/>
<path d="M184.61 125.518C184.956 125.943 185.263 126.398 185.528 126.877C185.787 127.35 185.969 127.861 186.069 128.392C185.959 128.144 185.822 127.923 185.693 127.685L185.317 126.978C185.055 126.504 184.819 126.017 184.61 125.518Z" fill="#263238"/>
<path d="M74.505 365.566C74.1652 356.976 74.2847 348.375 74.863 339.798C76.129 322.12 78.8276 304.575 82.9322 287.334C85.1813 277.622 87.9537 268.056 90.8454 258.527C90.928 258.243 91.387 258.325 91.3135 258.619C82.3814 292.254 75.0466 326.973 75.5515 361.931C75.6984 371.717 76.8275 381.328 77.7547 391.05C77.7547 391.316 77.3508 391.417 77.2957 391.151C75.4505 382.806 74.8538 374.067 74.505 365.566Z" fill="#5BA4A4"/>
<path d="M91.3136 258.573C91.3136 258.573 104.845 292.925 101.815 300.994C98.7861 309.063 92.5345 310.789 92.5345 310.789C92.5345 310.789 100.796 322.613 95.0315 333.739C89.2664 344.865 76.3961 344.296 75.5331 356.873C75.5331 356.836 74.8171 304.271 91.3136 258.573Z" fill="#5BA4A4"/>
<path d="M77.011 335.134C76.9884 335.075 76.9884 335.01 77.011 334.951C78.7956 311.5 83.2019 288.322 90.1476 265.853C90.1476 265.788 90.2761 265.807 90.2578 265.853C87.5772 275.896 85.2088 285.994 83.1525 296.147C84.9607 294.43 87.1698 293.193 89.5785 292.548C89.5785 292.548 89.6427 292.548 89.5785 292.612C87.0361 293.553 84.7524 295.082 82.9138 297.074C82.5221 299.057 82.1396 301.049 81.7663 303.05C84.7865 299.672 88.9817 297.992 93.177 296.395C93.2321 296.395 93.2688 296.468 93.177 296.486C88.8073 298.267 84.4468 300.562 81.4909 304.326C80.4505 310.024 79.5325 315.743 78.7369 321.484C80.9246 319.204 83.7282 317.609 86.8061 316.894C86.8979 316.894 86.953 317.013 86.8061 317.04C83.6294 317.958 80.7878 319.779 78.6267 322.282H78.5716C78.3023 324.302 78.0484 326.324 77.8097 328.35C79.5535 326.911 81.5231 325.769 83.639 324.972C83.6941 324.972 83.7216 325.036 83.639 325.055C81.5668 325.973 79.6692 327.244 78.03 328.809C78.03 328.809 78.03 328.809 77.9566 328.809C77.7362 330.728 77.5067 332.656 77.314 334.583C80.3626 330.901 84.3173 328.076 88.789 326.386C88.798 326.382 88.8077 326.38 88.8174 326.38C88.8271 326.38 88.8368 326.383 88.8457 326.386C88.8547 326.39 88.8628 326.396 88.8696 326.403C88.8764 326.41 88.8817 326.418 88.8854 326.427C88.889 326.436 88.8908 326.446 88.8907 326.455C88.8905 326.465 88.8885 326.475 88.8847 326.484C88.8808 326.493 88.8753 326.501 88.8683 326.508C88.8613 326.514 88.8531 326.52 88.844 326.523C84.4272 328.469 80.5468 331.455 77.5343 335.226C77.5033 335.27 77.4588 335.303 77.4074 335.32C77.356 335.336 77.3007 335.336 77.2497 335.318C76.9559 338.274 76.6897 341.239 76.4786 344.204H76.4052C76.552 341.202 76.7632 338.164 77.011 335.134Z" fill="#263238"/>
<path d="M87.8802 289.17C90.33 287.644 93.1304 286.771 96.0137 286.636C96.0779 286.636 96.0871 286.728 96.0137 286.737C93.2287 287.253 90.5245 288.136 87.972 289.363C87.948 289.368 87.923 289.364 87.9012 289.353C87.8793 289.342 87.8617 289.324 87.8512 289.302C87.8406 289.28 87.8378 289.255 87.843 289.231C87.8483 289.207 87.8614 289.186 87.8802 289.17Z" fill="#263238"/>
<path d="M86.237 325.532C88.1212 324.456 90.193 323.749 92.3417 323.448C92.4151 323.448 92.4243 323.549 92.3417 323.558C90.2367 323.982 88.2007 324.695 86.2921 325.679C86.2278 325.716 86.1544 325.578 86.237 325.532Z" fill="#263238"/>
<path d="M38.9324 301.554C44.6539 305.512 49.9079 310.107 54.5935 315.25C59.4384 320.686 63.1798 327.012 65.6095 333.877C70.7441 348.182 73.507 363.231 73.7889 378.427C73.9648 386.843 73.1545 395.251 71.3745 403.479C71.3589 403.537 71.3224 403.586 71.2721 403.618C71.2218 403.65 71.1614 403.662 71.1027 403.652C71.044 403.642 70.9913 403.61 70.955 403.562C70.9187 403.515 70.9013 403.456 70.9063 403.397C73.1236 388.876 73.0493 374.097 70.686 359.599C68.3543 345.388 64.7098 329.929 55.6767 318.381C50.7103 312.12 44.5781 307.154 38.556 302.022C38.198 301.765 38.6019 301.324 38.9324 301.554Z" fill="#5BA4A4"/>
<path d="M71.7693 368.201C68.5148 362.93 64.688 358.035 60.3585 353.604C53.5837 346.839 47.8829 342.028 47.0016 337.549C46.1204 333.069 53.7857 329.782 53.7857 329.782C53.7857 329.782 44.4129 331.462 41.8517 327.524C39.2904 323.586 38.0511 300.829 38.0511 300.829C38.0511 300.829 55.08 313.038 63.0391 330.049C70.9982 347.059 71.7693 368.201 71.7693 368.201Z" fill="#5BA4A4"/>
<path d="M44.1375 322.218C45.2592 322.058 46.3951 322.021 47.5249 322.108C47.6626 322.108 47.6534 322.347 47.5249 322.347C46.4049 322.347 45.2849 322.291 44.1558 322.347C44.064 322.328 44.064 322.218 44.1375 322.218Z" fill="#263238"/>
<path d="M56.402 344.25C58.204 344.288 59.9851 344.645 61.6621 345.306C61.6621 345.306 61.6621 345.388 61.6621 345.379C59.9271 344.966 58.1737 344.792 56.4203 344.507C56.2459 344.507 56.2551 344.25 56.402 344.25Z" fill="#263238"/>
<path d="M60.0831 336.64C60.8316 336.634 61.5787 336.701 62.3139 336.842C62.3873 336.842 62.3781 336.979 62.3139 336.979C61.5685 337.017 60.8213 336.98 60.0831 336.869C60.0582 336.862 60.0363 336.847 60.0207 336.826C60.005 336.806 59.9966 336.78 59.9966 336.755C59.9966 336.729 60.005 336.703 60.0207 336.683C60.0363 336.662 60.0582 336.647 60.0831 336.64Z" fill="#263238"/>
<path d="M121.727 325.725C116.184 327.603 110.871 330.104 105.891 333.179C100.735 336.473 96.2619 340.731 92.718 345.719C85.2559 356.111 79.5411 367.652 75.7993 379.887C73.7171 386.658 72.4293 393.648 71.962 400.716C71.962 400.77 71.9833 400.821 72.0212 400.859C72.0591 400.897 72.1104 400.918 72.164 400.918C72.2176 400.918 72.2689 400.897 72.3068 400.859C72.3447 400.821 72.366 400.77 72.366 400.716C73.9172 388.469 77.3772 376.54 82.62 365.364C87.7884 354.403 94.3153 342.735 104.294 335.483C109.729 331.527 115.833 328.947 121.92 326.211C122.278 326.064 122.094 325.615 121.727 325.725Z" fill="#5BA4A4"/>
<path d="M79.7559 372.065C83.6056 368.55 87.8327 365.471 92.36 362.885C99.4102 358.975 105.129 356.395 106.883 352.98C108.636 349.565 103.211 345.122 103.211 345.122C103.211 345.122 110.399 348.647 113.382 346.04C116.366 343.433 122.626 325.302 122.626 325.302C122.626 325.302 106.029 331.214 95.6556 343.185C85.2822 355.156 79.7559 372.065 79.7559 372.065Z" fill="#5BA4A4"/>
<path d="M93.535 355.395C95.1643 355.281 96.8003 355.48 98.3545 355.982C98.3545 355.982 98.3545 356.065 98.3545 356.055C96.7662 355.789 95.1626 355.624 93.5534 355.56C93.5315 355.562 93.5095 355.556 93.4923 355.542C93.475 355.528 93.464 355.508 93.4616 355.486C93.4591 355.464 93.4655 355.442 93.4793 355.425C93.4931 355.408 93.5131 355.397 93.535 355.395Z" fill="#263238"/>
<path d="M108.021 336.392C108.764 336.338 109.511 336.381 110.243 336.52C110.257 336.526 110.269 336.535 110.277 336.547C110.286 336.56 110.291 336.574 110.291 336.589C110.291 336.604 110.286 336.619 110.277 336.631C110.269 336.644 110.257 336.653 110.243 336.658C109.517 336.576 108.792 336.603 108.058 336.585C108.035 336.584 108.014 336.575 107.997 336.56C107.98 336.545 107.968 336.525 107.964 336.503C107.959 336.481 107.963 336.458 107.973 336.437C107.984 336.417 108 336.401 108.021 336.392Z" fill="#263238"/>
<path d="M58.339 423.611H95.8118L90.469 384.458L89.1012 374.425H65.0496L63.6818 384.458L58.339 423.611Z" fill="#455A64"/>
<path d="M63.6818 384.458H90.469L89.1012 374.425H65.0496L63.6818 384.458Z" fill="#263238"/>
<path d="M61.5978 379.437H92.5436V370.936H61.5978V379.437Z" fill="#455A64"/>
</svg>
