<svg width="162" height="517" viewBox="0 0 162 517" fill="none" xmlns="http://www.w3.org/2000/svg">
<path d="M144.292 66.9277L144.839 67.0666C144.824 67.0027 144.79 66.9447 144.743 66.9L144.292 66.9277Z" fill="#263238"/>
<path d="M128.811 110.706H128.825V120.521H128.811V110.706Z" fill="#D3766A"/>
<path d="M128.566 469.715H128.812V469.535L128.566 469.715Z" fill="#D3766A"/>
<path d="M72.136 481.609C75.142 480.214 141.273 419.204 142.352 415.244C142.776 413.752 134.619 403.407 124.412 391.18C122.212 388.545 96.4978 346.565 96.4978 346.565L50.1653 384.056L81.6731 430.469C81.6731 430.469 66.6433 465.408 65.8782 469.883C65.113 474.359 69.1301 482.961 72.136 481.609Z" fill="#D3766A"/>
<path d="M71.289 455.174C69.1805 459.942 67.3554 464.836 65.8237 469.828C65.1132 474.303 69.0755 482.961 72.0815 481.609C75.0874 480.256 141.232 419.204 142.298 415.258C142.639 414.031 137.351 406.99 129.878 397.858C116.515 413.697 74.3769 462.996 71.289 458.409C71.0047 457.35 71.0047 456.233 71.289 455.174Z" fill="#263238"/>
<path d="M119.999 383.303L73.1336 422.759C73.1336 422.759 7.94559 330.141 6.07372 296.29C4.70737 270.26 42.5003 221.755 68.2148 180.236C70.7015 176.206 69.1849 160.926 69.0892 158.374L120.04 158.472C120.655 164.328 124.645 193.787 116.064 208.134C98.4108 237.635 69.909 280.452 68.816 289.723C67.7229 298.995 119.999 383.303 119.999 383.303Z" fill="#37474F"/>
<path d="M70.1137 408.259C77.6012 401.79 75.3604 403.547 82.9163 397.105C86.6191 393.982 105.16 378.228 109.082 375.885C109.177 375.885 109.273 375.969 109.205 376.039C106.171 379.483 87.3432 394.833 83.5448 397.9C75.8797 404.146 78.0111 402.264 70.2777 408.426C70.2721 408.451 70.2604 408.473 70.2436 408.491C70.2268 408.509 70.2056 408.522 70.1822 408.529C70.1587 408.536 70.1339 408.536 70.1103 408.53C70.0867 408.524 70.0652 408.511 70.0479 408.494C70.0307 408.476 70.0184 408.454 70.0123 408.43C70.0062 408.406 70.0065 408.38 70.0132 408.357C70.0199 408.333 70.0328 408.311 70.0504 408.294C70.0681 408.277 70.09 408.265 70.1137 408.259Z" fill="#263238"/>
<path d="M64.3067 281.037C66.0147 277.635 67.8456 274.289 69.7721 270.985C73.5978 264.307 77.7652 257.851 81.8642 251.34C86.1363 244.537 90.4175 237.742 94.7078 230.957C98.5608 224.85 102.469 218.758 105.816 212.344C109.236 206.065 111.727 199.304 113.208 192.282C114.711 184.558 114.397 176.611 113.741 168.803C113.577 166.851 113.399 164.913 113.222 162.961C113.222 162.627 113.755 162.557 113.796 162.892C114.851 170.533 115.212 178.257 114.875 185.966C114.301 193.048 112.535 199.976 109.656 206.447C106.77 212.874 103.417 219.072 99.6266 224.99C95.5276 231.584 91.4286 238.137 87.3295 244.69C83.2305 251.243 78.9539 257.949 74.8685 264.641C72.8737 267.89 70.9198 271.166 69.0616 274.498C67.143 277.764 65.4094 281.139 63.8695 284.606C63.0827 286.334 62.5973 288.188 62.4349 290.086C62.3682 292.046 62.7226 293.997 63.4733 295.802C64.8396 299.385 66.6705 302.773 68.3374 306.258C71.6713 313.132 75.0598 319.978 78.5576 326.767C85.5806 340.389 104.518 372.456 105.515 374.101C105.584 374.226 105.406 374.324 105.324 374.212C97.2765 361.093 87.4935 345.812 80.2519 332.205C76.6084 325.41 73.0877 318.56 69.6901 311.654C67.9776 308.215 66.3016 304.748 64.662 301.253C63.159 298.074 61.4238 294.798 61.3281 291.187C61.2325 287.576 62.7354 284.202 64.3067 281.037Z" fill="#263238"/>
<path d="M70.8655 158.346C74.1447 175.523 83.6271 224.934 88.8191 252.261C97.7277 237.733 108.03 221.588 116.064 208.106C124.645 193.759 120.655 164.3 120.04 158.444L70.8655 158.346Z" fill="#263238"/>
<path d="M60.9458 516.004C64.0747 517.022 153.256 515.739 156.589 513.494C157.874 512.644 158.448 499.385 158.694 483.338C158.694 479.88 157.942 427.053 157.942 427.053L98.2878 427.736L101.198 483.993C101.198 483.993 67.2582 500.068 63.8287 502.94C60.3992 505.812 57.8168 514.986 60.9458 516.004Z" fill="#D3766A"/>
<path d="M77.4237 495.579C72.7674 497.758 68.2414 500.216 63.8696 502.94C60.4401 505.812 57.8167 514.986 60.9457 515.99C64.0746 516.994 153.255 515.739 156.589 513.494C157.641 512.811 158.215 503.958 158.516 492.065C138.239 494.951 74.691 503.568 75.3469 498.046C75.4289 497.531 76.2076 496.652 77.4237 495.579Z" fill="#263238"/>
<path d="M69.089 158.472C69.089 158.472 79.1862 208.664 79.7191 210.267C84.6452 212.38 89.4367 214.806 94.0657 217.531L97.6728 472.672L162 473.104C162 473.104 154.021 337.865 154.253 329.165C154.608 315.223 148.692 220.919 149.512 218.549C157.915 194.345 144.73 158.597 144.73 158.597L69.089 158.472Z" fill="#37474F"/>
<path d="M100.091 460.5C118.236 459.706 153.378 460.04 157.819 460.821C157.915 460.821 157.915 461.016 157.819 461.03C153.324 461.769 110.68 461.853 100.091 460.793C100.061 460.783 100.034 460.764 100.015 460.738C99.9959 460.711 99.9856 460.679 99.9856 460.647C99.9856 460.614 99.9959 460.582 100.015 460.556C100.034 460.53 100.061 460.51 100.091 460.5Z" fill="#263238"/>
<path d="M147.448 395.558C146.424 376.373 145.317 357.189 144.237 338.005C143.158 318.82 142.092 299.622 141.013 280.438C140.48 270.845 139.974 261.253 139.401 251.661L138.54 237.273C138.074 232.539 137.873 227.781 137.939 223.024C138.198 217.837 140.425 213.264 141.696 208.315C142.839 203.604 143.394 198.765 143.349 193.913C143.349 183.902 141.368 174.003 139.496 164.23C139.387 163.686 138.567 163.923 138.676 164.467C140.853 173.429 142.176 182.585 142.625 191.808C142.766 196.407 142.376 201.006 141.464 205.513C140.548 209.835 138.731 213.878 137.638 218.061C136.545 222.243 137.023 227.039 137.296 231.529C137.583 236.325 137.816 241.121 138.062 245.917C138.567 255.314 139.114 264.711 139.633 274.122C141.778 312.295 143.855 350.483 146.137 388.656C147.448 410.141 148.446 431.612 150.181 453.125C150.181 453.278 150.441 453.278 150.427 453.125C149.716 433.927 148.487 414.742 147.448 395.558Z" fill="#263238"/>
<path d="M137.775 188.531C136.696 188.085 135.493 187.946 134.386 187.597C133.212 187.242 132.062 186.809 130.943 186.3C128.818 185.317 126.833 184.046 125.041 182.522C123.325 180.938 122.028 178.939 121.27 176.708C120.805 175.523 120.368 174.324 119.903 173.125C119.685 172.54 119.452 171.94 119.22 171.354C119.138 171.117 118.537 169.863 118.441 169.472C118.462 169.492 118.489 169.503 118.516 169.503C118.544 169.503 118.571 169.492 118.592 169.472H118.66C118.677 169.45 118.686 169.423 118.686 169.396C118.686 169.368 118.677 169.341 118.66 169.319C118.592 169.179 118.578 169.166 118.428 169.124C118.397 169.116 118.364 169.119 118.335 169.131C118.305 169.144 118.28 169.166 118.264 169.193C118.031 169.584 118.264 169.96 118.346 170.378C118.523 171.173 118.701 171.954 118.892 172.735C119.234 174.129 119.548 175.523 119.931 176.834C120.541 179.38 121.849 181.696 123.702 183.512C125.638 185.25 127.87 186.611 130.287 187.527C131.524 188.018 132.799 188.4 134.1 188.671C135.294 188.985 136.534 189.079 137.761 188.949C137.994 188.866 137.884 188.601 137.775 188.531Z" fill="#263238"/>
<path d="M85.8129 202.292C85.7036 199.992 85.5669 197.705 85.4029 195.405C85.0477 190.162 84.5968 184.906 83.7907 179.734C83.7224 179.315 83.1622 179.469 83.1895 179.845C83.4628 183.916 83.859 187.987 84.1596 192.045C84.4602 196.102 84.8701 200.159 84.8701 204.202C84.8701 205.415 84.7608 207.478 83.2851 207.799C81.3176 208.217 80.4295 205.554 79.9786 204.104C78.9081 200.46 78.1448 196.728 77.6968 192.951C77.123 188.671 76.8497 184.348 76.5217 180.054C76.5217 179.901 76.2622 179.915 76.2485 180.054C76.0845 188.573 76.0572 197.482 78.9812 205.582C79.1916 206.414 79.619 207.173 80.2181 207.777C80.8172 208.381 81.5654 208.808 82.3833 209.012H82.4653C82.4653 209.012 82.4653 209.11 82.4653 209.152C82.4653 209.193 82.561 209.639 82.5883 209.877C82.6156 210.114 82.6566 210.267 82.6976 210.476C82.7386 210.685 82.8206 211.299 82.9162 211.717C82.9311 211.789 82.9699 211.853 83.0258 211.9C83.0818 211.946 83.1516 211.971 83.2236 211.971C83.2957 211.971 83.3655 211.946 83.4215 211.9C83.4775 211.853 83.5161 211.789 83.5311 211.717C83.5817 211.698 83.6255 211.664 83.6572 211.619C83.6888 211.574 83.7067 211.521 83.7087 211.466C83.6836 210.633 83.5124 209.811 83.2032 209.04C83.6872 208.949 84.141 208.735 84.523 208.419C84.905 208.102 85.2028 207.692 85.3893 207.227C85.9102 205.639 86.0554 203.948 85.8129 202.292Z" fill="#263238"/>
<path d="M79.6646 209.779C86.014 212.614 92.1083 216.01 97.8778 219.929C98.1101 220.082 97.8778 220.445 97.6865 220.305C91.538 217.126 85.2528 214.059 79.2819 210.546C79.1823 210.494 79.1069 210.404 79.0723 210.295C79.0377 210.187 79.0468 210.069 79.0975 209.967C79.1483 209.865 79.2365 209.789 79.3428 209.753C79.4492 209.718 79.5649 209.727 79.6646 209.779Z" fill="#263238"/>
<path d="M95.883 343.637C95.883 343.024 95.6917 342.787 95.6644 343.54C95.5141 347.722 95.5687 353.843 95.5277 358.081C95.5277 363.073 95.5277 368.05 95.5277 373.027C95.5277 378.005 95.7053 382.996 95.8966 387.987L96.1972 395.446C96.2929 397.175 96.1972 400.577 96.3612 402.292C96.3612 403.059 96.5935 403.198 96.6618 402.431C96.7847 399.936 96.7848 397.942 96.8668 395.46L96.9487 387.973C96.9487 382.996 96.9487 378.005 96.9487 373.027C96.9487 368.05 96.7711 363.059 96.5798 358.081C96.3885 353.104 96.2382 348.615 95.883 343.637Z" fill="#263238"/>
<path d="M63.7876 87.6737C63.7616 87.8537 63.8016 88.0372 63.8999 88.189C63.9983 88.3408 64.148 88.4502 64.3205 88.4963L67.2035 88.7752C70.0864 81.4695 73.1197 75.6835 72.2999 77.9561C71.043 81.5198 70.284 85.2464 70.0455 89.0261L75.7431 89.4723C78.4758 76.5479 81.7823 67.0115 81.4817 69.9533C80.2793 81.9017 80.7712 85.7637 81.3587 89.8905C95.1178 90.9222 113.167 92.0376 126.229 92.5535C128.033 85.4291 129.659 77.6912 129.877 78.2489C131.49 82.3339 131.736 88.2175 131.599 92.7487C135.766 92.8742 139.087 92.902 141.163 92.7487C141.163 92.7487 142.379 86.7396 142.598 84.7598C143.179 79.7055 142.892 74.5865 141.751 69.6326C140.395 64.7419 138.564 60.0014 136.286 55.4814V55.3838C134.897 52.3695 133.851 49.2025 133.17 45.9449C133.167 45.9218 133.167 45.8984 133.17 45.8752C132.708 43.4996 132.443 41.0883 132.378 38.6671C132.132 29.8 127.869 22.0481 120.34 19.5246C106.554 4.38344 91.8795 10.267 87.07 21.5044C86.6055 22.6058 86.1409 23.8606 85.7037 25.2409C84.0231 30.3158 82.4382 36.9244 81.0172 41.9714C80.4825 43.9693 79.8347 45.9338 79.0769 47.855C74.8686 57.2241 66.3427 62.2712 63.7876 87.6737Z" fill="#263238"/>
<path d="M123.428 22.076C125.851 23.4273 127.89 25.3961 129.346 27.7906C130.802 30.1851 131.625 32.9236 131.735 35.7393C131.811 39.4711 132.334 43.1794 133.293 46.7814C134.607 50.2844 136.416 53.5724 138.663 56.5409C142.166 61.1537 144.227 66.7357 144.579 72.5604C144.866 79.0157 144.278 86.6141 142.051 92.5674C143.86 85.7589 144.37 78.6592 143.554 71.6542C142.748 64.6831 139.291 60.1241 135.793 54.7145C132.962 50.4148 131.276 45.4368 130.902 40.2705C130.656 37.0777 130.834 33.7455 129.768 30.7201C128.511 27.0951 125.805 24.7389 123.1 22.6476C122.69 22.4245 123.059 21.839 123.428 22.076Z" fill="#263238"/>
<path d="M70.0865 57.7818C73.8166 52.8463 77.6697 48.6497 79.9924 42.4455C82.0966 36.8686 83.4219 30.8596 85.5671 25.2409C85.5671 25.1433 85.7174 25.2409 85.69 25.2409C82.3288 35.2235 81.3451 45.3733 75.0463 53.6828C71.6305 58.2001 68.2146 62.3827 65.8645 67.848C63.455 73.5936 62.067 79.7309 61.7655 85.9728C61.7725 85.9958 61.7741 86.0201 61.7702 86.0438C61.7664 86.0676 61.7571 86.09 61.7431 86.1094C61.7291 86.1288 61.7109 86.1445 61.6898 86.1554C61.6688 86.1663 61.6456 86.1719 61.622 86.1719C61.5984 86.1719 61.5752 86.1663 61.5542 86.1554C61.5331 86.1445 61.5149 86.1288 61.5009 86.1094C61.487 86.09 61.4777 86.0676 61.4738 86.0438C61.4699 86.0201 61.4715 85.9958 61.4785 85.9728C61.0156 75.8361 64.0628 65.8563 70.0865 57.7818Z" fill="#263238"/>
<path d="M36.8708 30.3994L45.711 71.7239C46.1072 72.9508 45.4923 73.8989 44.3446 73.871L23.6173 73.2018C22.9845 73.1303 22.3845 72.8777 21.8864 72.4731C21.3884 72.0685 21.0127 71.5285 20.8026 70.9152L11.9487 29.6047C11.5661 28.3778 12.181 27.4297 13.3151 27.4576L34.0424 28.1268C34.676 28.1946 35.2778 28.444 35.7783 28.8462C36.2788 29.2484 36.6576 29.7869 36.8708 30.3994Z" fill="#37474F"/>
<path d="M34.4113 30.3019L43.2515 71.6264C43.6477 72.8393 43.0329 73.8013 41.8852 73.7595L21.1441 73.0903C20.5149 73.0191 19.9182 72.768 19.4226 72.366C18.9271 71.9639 18.5529 71.4272 18.3432 70.8177L9.4483 29.4932C9.06572 28.2803 9.68058 27.3183 10.8146 27.3601L31.542 28.0293C32.1828 28.0895 32.7934 28.3355 33.3018 28.7381C33.8102 29.1408 34.1951 29.6833 34.4113 30.3019Z" fill="#455A64"/>
<path d="M28.6728 31.9889C28.6692 32.2251 28.7112 32.4597 28.7965 32.6793C28.8817 32.8989 29.0086 33.0992 29.1697 33.2688C29.3308 33.4384 29.5231 33.574 29.7356 33.6677C29.9481 33.7615 30.1766 33.8116 30.4081 33.8153C30.8755 33.8153 31.3239 33.6258 31.6544 33.2885C31.9849 32.9512 32.1707 32.4937 32.1707 32.0167C32.1707 31.5397 31.9849 31.0823 31.6544 30.745C31.3239 30.4077 30.8755 30.2182 30.4081 30.2182C29.949 30.2218 29.5097 30.4096 29.185 30.7408C28.8603 31.0721 28.6764 31.5204 28.6728 31.9889Z" fill="#263238"/>
<path d="M101.758 94.6448C89.4611 119.866 62.3666 152.365 51.4632 152.268C46.2711 152.268 36.9937 153.258 30.3123 147.025C15.7608 133.404 3.91465 107.736 1.71485 93.153C0.936035 87.9526 25.8171 77.3426 29.3559 81.6368C37.6632 91.6891 47.1183 111.25 48.6349 111.166C54.2232 110.943 76.3989 92.8184 91.9888 80.145C110.831 64.725 106.663 84.5925 101.758 94.6448Z" fill="#D3766A"/>
<path d="M1.7012 66.4259C4.54319 55.9972 6.83865 53.7664 4.66617 43.6584C3.23152 37.0359 6.77032 33.2575 11.2246 38.6532C18.5208 47.4785 17.619 61.7274 15.9248 66.5374L1.7012 66.4259Z" fill="#D3766A"/>
<path d="M2.82153 97.6702C2.82153 97.6702 -1.44145 82.9473 0.512417 71.5287C1.87875 63.6375 6.67461 46.7814 28.618 38.3464C33.8237 36.3388 42.623 37.2589 35.2857 43.6723C30.08 48.2314 25.4208 49.5141 22.8657 52.7347C22.8657 52.7347 33.933 55.2582 35.6956 60.6538C37.2334 65.3758 38.4433 70.2024 39.3164 75.0979C38.4713 75.465 37.6042 75.777 36.7204 76.032C36.7204 76.032 37.8954 81.2324 34.056 88.3429L2.82153 97.6702Z" fill="#D3766A"/>
<path d="M2.97209 64.1952C6.16932 61.5601 13.0556 56.0669 20.2016 53.5713C28.1537 50.7828 44.1945 47.6598 46.162 53.6688C47.5284 58.0746 41.5575 59.8173 41.5575 59.8173C41.5575 59.8173 48.3891 59.9428 48.8947 64.2091C49.2909 68.099 44.5497 69.1725 44.5497 69.1725C44.5497 69.1725 48.7308 69.9811 48.4028 73.8013C48.0066 78.3883 39.3303 75.9484 34.9991 80.2426C34.0426 81.2185 2.97209 64.1952 2.97209 64.1952Z" fill="#D3766A"/>
<path d="M21.6771 62.6337C27.8084 59.6313 34.6916 58.6098 41.407 59.7058C41.571 59.7058 41.6393 59.8871 41.4753 59.8871C34.7946 60.0016 28.1518 60.9378 21.6907 62.6755C21.6907 62.6755 21.6361 62.6616 21.6771 62.6337Z" fill="#263238"/>
<path d="M24.6421 70.734C27.7573 69.3398 37.0211 67.1927 44.5223 69.0192C44.6863 69.0192 44.7409 69.2143 44.5223 69.2004C37.8478 68.9676 31.1691 69.5102 24.6148 70.8177C24.6148 70.8177 24.6011 70.748 24.6421 70.734Z" fill="#263238"/>
<path d="M90.4448 117.524L69.9497 95.6208C69.9497 95.6208 85.2527 81.358 96.484 75.795C107.715 70.2321 109.56 77.6772 104.901 89.1516C100.241 100.626 90.4448 117.524 90.4448 117.524Z" fill="#5BA4A4"/>
<path opacity="0.1" d="M90.4448 117.524L69.9497 95.6208C69.9497 95.6208 85.2527 81.358 96.484 75.795C107.715 70.2321 109.56 77.6772 104.901 89.1516C100.241 100.626 90.4448 117.524 90.4448 117.524Z" fill="black"/>
<path d="M71.5073 139.357L61.8746 185.464C61.8746 185.464 136.149 191.57 154.69 191.487C154.69 191.487 145.249 103.442 126.817 80.131C117.594 68.4614 105.884 68.5033 97.9733 75.6974C95.9648 77.5238 71.5893 106.259 68.4877 117.649C65.7687 127.674 71.5073 139.357 71.5073 139.357Z" fill="#EBEBEB"/>
<path d="M106.171 71.222H114.055C111.465 70.5804 108.762 70.5804 106.171 71.222Z" fill="#5BA4A4"/>
<path d="M98.0555 75.6278H122.486C122.144 75.335 121.789 75.0561 121.433 74.8052H99.0256C98.6976 75.0701 98.3697 75.335 98.0555 75.6278Z" fill="#5BA4A4"/>
<path d="M94.1611 80.0334H126.735L126.065 79.2108H94.8306L94.1611 80.0334Z" fill="#5BA4A4"/>
<path d="M90.4724 84.4531H129.686C129.536 84.1742 129.372 83.8954 129.194 83.6305H91.1282L90.4724 84.4531Z" fill="#5BA4A4"/>
<path d="M86.9335 88.8449H132.023C131.9 88.566 131.763 88.2872 131.626 88.0223H87.5757L86.9335 88.8449Z" fill="#5BA4A4"/>
<path d="M83.5178 93.2506H134.072C133.949 92.9717 133.84 92.6929 133.731 92.428H84.2146L83.5178 93.2506Z" fill="#5BA4A4"/>
<path d="M80.2247 97.6563H135.712L135.411 96.8198H80.8395L80.2247 97.6563Z" fill="#5BA4A4"/>
<path d="M77.096 102.062H137.215C137.119 101.769 137.037 101.504 136.942 101.225H77.6425L77.096 102.062Z" fill="#5BA4A4"/>
<path d="M74.158 106.468H138.677L138.403 105.631H74.7046L74.158 106.468Z" fill="#5BA4A4"/>
<path d="M71.5213 110.943H139.961C139.961 110.65 139.811 110.385 139.729 110.107H71.9995C71.8219 110.316 71.6716 110.595 71.5213 110.943Z" fill="#5BA4A4"/>
<path d="M69.3213 115.279H141.177C141.109 115 141.027 114.721 140.958 114.443H69.6902C69.5536 114.721 69.4306 115 69.3213 115.279Z" fill="#5BA4A4"/>
<path d="M68.0508 119.671H142.311L142.106 118.848H68.2011C68.2011 119.127 68.0918 119.392 68.0508 119.671Z" fill="#5BA4A4"/>
<path d="M67.7501 123.254C67.7501 123.533 67.7501 123.812 67.7501 124.077H143.35C143.35 123.798 143.213 123.519 143.158 123.254H67.7501Z" fill="#5BA4A4"/>
<path d="M68.037 127.674C68.037 127.953 68.1189 128.231 68.1736 128.496H144.374C144.374 128.231 144.265 127.953 144.197 127.674H68.037Z" fill="#5BA4A4"/>
<path d="M68.925 132.065C68.9933 132.344 69.0616 132.623 69.1436 132.888H145.344C145.344 132.609 145.221 132.344 145.167 132.065H68.925Z" fill="#5BA4A4"/>
<path d="M70.305 136.471L70.6193 137.294H146.246C146.246 137.015 146.15 136.75 146.082 136.471H70.305Z" fill="#5BA4A4"/>
<path d="M71.0158 141.699H147.121C147.121 141.421 147.025 141.156 146.957 140.877H71.1934L71.0158 141.699Z" fill="#5BA4A4"/>
<path d="M70.1002 146.105H147.981C147.981 145.826 147.886 145.561 147.831 145.283H70.2914L70.1002 146.105Z" fill="#5BA4A4"/>
<path d="M69.171 150.511H148.747C148.747 150.232 148.651 149.953 148.61 149.674H69.3623L69.171 150.511Z" fill="#5BA4A4"/>
<path d="M68.2009 154.917H149.512C149.512 154.638 149.416 154.359 149.375 154.08H68.4332L68.2009 154.917Z" fill="#5BA4A4"/>
<path d="M67.3403 159.322H150.181C150.181 159.044 150.099 158.765 150.045 158.486H67.5179L67.3403 159.322Z" fill="#5BA4A4"/>
<path d="M66.4107 163.728H150.932L150.809 162.892H66.5884L66.4107 163.728Z" fill="#5BA4A4"/>
<path d="M65.4683 168.106H151.548C151.548 167.827 151.452 167.548 151.411 167.269H65.6049L65.4683 168.106Z" fill="#5BA4A4"/>
<path d="M64.5804 172.526H152.258L152.135 171.703H64.6897L64.5804 172.526Z" fill="#5BA4A4"/>
<path d="M63.651 176.931H152.914L152.791 176.109H63.8286L63.651 176.931Z" fill="#5BA4A4"/>
<path d="M62.7356 181.337H153.46C153.46 181.072 153.378 180.793 153.351 180.514H62.9132L62.7356 181.337Z" fill="#5BA4A4"/>
<path d="M61.8747 185.464L65.2632 185.743H154.007C154.007 185.478 154.007 185.213 153.911 184.92H61.984L61.8747 185.464Z" fill="#5BA4A4"/>
<path d="M112.894 189.326C117.102 189.619 121.283 189.897 125.314 190.148H154.54C154.54 189.911 154.54 189.633 154.444 189.326H112.894Z" fill="#5BA4A4"/>
<path d="M68.8979 131.494C68.2992 128.75 68.1057 125.931 68.324 123.129C69.0217 117.485 70.9197 112.065 73.885 107.248C75.4836 104.46 77.3965 101.895 78.9815 99.1202C78.9868 99.1129 78.9907 99.1045 78.993 99.0957C78.9952 99.0868 78.9957 99.0776 78.9944 99.0685C78.9932 99.0595 78.9902 99.0507 78.9856 99.0429C78.981 99.035 78.975 99.0281 78.9678 99.0226C78.9606 99.0171 78.9524 99.0131 78.9437 99.0108C78.935 99.0086 78.926 99.0081 78.9171 99.0094C78.9082 99.0107 78.8997 99.0137 78.892 99.0184C78.8843 99.0231 78.8775 99.0292 78.8721 99.0366C77.3944 100.846 76.0256 102.746 74.7731 104.725C74.7967 104.656 74.8288 104.59 74.8688 104.53C75.306 103.442 75.7569 102.369 76.2351 101.309C76.2351 101.198 76.0985 101.1 76.0438 101.212C75.4973 102.243 74.9781 103.275 74.4862 104.321C74.1856 105.004 73.926 105.715 73.6937 106.384C72.1226 108.801 70.7516 111.347 69.5947 113.996C67.1768 119.208 66.5 125.085 67.6681 130.727C68.4594 133.777 69.7184 136.68 71.3983 139.329C71.4139 139.349 71.4358 139.363 71.4602 139.369C71.4847 139.374 71.5102 139.371 71.5327 139.36C71.5551 139.348 71.573 139.329 71.5833 139.306C71.5937 139.283 71.5959 139.256 71.5896 139.232C70.4275 136.733 69.5121 134.122 68.8569 131.438" fill="#263238"/>
<path d="M115.271 76.6037C114.711 77.9979 106.349 86.5305 99.7771 85.1641C97.6456 84.718 99.5175 72.6999 99.5175 72.6999V71.7797L98.6703 58.9111L114.424 51.8006L116.679 50.8804C116.679 50.8804 116.679 54.4217 116.679 58.8275V60.2217C116.679 60.8769 116.679 61.6159 116.679 62.2293C116.679 62.8428 116.679 63.2332 116.679 63.763C116.679 64.2928 116.679 64.8226 116.679 65.3524C116.466 69.1316 115.996 72.8911 115.271 76.6037Z" fill="#D3766A"/>
<path d="M116.583 58.8275C114.82 62.1236 112.376 64.9891 109.419 67.2256C106.463 69.462 103.066 71.016 99.4628 71.7797L98.6157 58.9111L114.37 51.8006L116.624 50.8804C116.624 50.8804 116.624 54.4217 116.583 58.8275Z" fill="#263238"/>
<path d="M83.0802 39.5873C80.7711 62.1038 93.724 66.0774 98.4789 66.5514C102.796 67.0115 117.608 67.9456 122.144 45.8613C126.68 23.7769 117.198 15.4953 107.36 13.9198C97.5224 12.3444 85.3894 17.0708 83.0802 39.5873Z" fill="#D3766A"/>
<path d="M87.9854 34.7354C88.4932 34.7119 88.9995 34.6608 89.502 34.5821C90.0497 34.6035 90.5886 34.4366 91.0323 34.108C91.1508 33.9785 91.2244 33.8129 91.2417 33.6365C91.259 33.4602 91.219 33.283 91.1279 33.1321C90.9038 32.859 90.6116 32.6527 90.2821 32.5349C89.9527 32.4172 89.5982 32.3923 89.256 32.4629C88.5439 32.495 87.8681 32.7926 87.3568 33.2994C87.2431 33.4215 87.1674 33.5754 87.1395 33.7414C87.1116 33.9075 87.1326 34.0783 87.1999 34.2321C87.2672 34.386 87.3778 34.5159 87.5177 34.6056C87.6575 34.6952 87.8203 34.7404 87.9854 34.7354Z" fill="#263238"/>
<path d="M102.51 36.4503C102.014 36.3218 101.526 36.1635 101.048 35.9763C100.521 35.8769 100.04 35.6024 99.6816 35.1955C99.5882 35.0454 99.5469 34.8676 99.5642 34.6907C99.5816 34.5138 99.6565 34.3479 99.7772 34.2196C100.054 34.0041 100.381 33.8662 100.726 33.8197C101.072 33.7733 101.423 33.8198 101.745 33.9547C102.438 34.1382 103.04 34.5748 103.439 35.1816C103.527 35.3269 103.571 35.496 103.564 35.6668C103.556 35.8377 103.499 36.0024 103.399 36.1394C103.298 36.2764 103.16 36.3793 103.001 36.4348C102.843 36.4903 102.671 36.4957 102.51 36.4503Z" fill="#263238"/>
<path d="M98.6155 41.8181C98.6155 41.8181 98.7247 41.9017 98.7111 41.9714C98.4788 43.4911 98.4515 45.2757 99.7358 45.9589C99.7358 45.9589 99.7358 46.0565 99.7358 46.0425C98.0962 45.5964 98.1509 43.2262 98.6155 41.8181Z" fill="#263238"/>
<path d="M100.16 40.3959C102.592 40.5353 102.155 45.4848 99.9002 45.3593C97.6457 45.2338 98.1103 40.2844 100.16 40.3959Z" fill="#263238"/>
<path d="M101.089 40.7445C101.485 41.0652 101.854 41.595 102.359 41.7065C102.865 41.8181 103.439 41.3301 103.876 40.87C103.876 40.87 103.958 40.87 103.958 40.9397C103.89 41.8878 103.439 42.8358 102.428 42.8777C101.417 42.9195 100.925 42.0272 100.774 41.0512C100.747 40.87 100.925 40.619 101.089 40.7445Z" fill="#263238"/>
<path d="M90.3083 40.6608C90.3083 40.6608 90.1853 40.6608 90.1853 40.7863C90.1033 42.3339 89.7618 44.0767 88.3681 44.481V44.5646C90.0624 44.467 90.4859 42.1387 90.3083 40.6608Z" fill="#263238"/>
<path d="M89.0921 38.946C86.6873 38.5556 86.0998 43.5051 88.3269 43.8536C90.554 44.2022 91.1142 39.2806 89.0921 38.946Z" fill="#263238"/>
<path d="M88.04 39.1551C87.6301 39.3642 87.1929 39.7964 86.742 39.7685C86.2911 39.7407 85.8675 39.1551 85.5942 38.5974C85.5942 38.5974 85.5259 38.5974 85.5123 38.5974C85.3756 39.5455 85.5122 40.5633 86.4277 40.856C87.3431 41.1488 87.917 40.382 88.2449 39.4618C88.3133 39.3503 88.2176 39.0575 88.04 39.1551Z" fill="#263238"/>
<path d="M97.3995 54.0871C97.017 54.4217 96.6344 54.9097 96.0332 54.9236C95.4731 54.8958 94.9265 54.7384 94.4346 54.4635C94.4346 54.4635 94.3389 54.4635 94.3663 54.5472C94.5675 54.859 94.8479 55.1093 95.1775 55.2714C95.5072 55.4334 95.8737 55.5012 96.2381 55.4674C96.549 55.3984 96.8329 55.2372 97.0542 55.004C97.2754 54.7708 97.4241 54.476 97.4815 54.1568C97.5635 54.0732 97.4542 54.0313 97.3995 54.0871Z" fill="#263238"/>
<path d="M91.6607 47.8829C91.6607 47.8829 91.1278 50.1415 91.0185 51.229C91.0185 51.3266 91.2644 51.3963 91.6197 51.466C92.5109 51.7291 93.4557 51.7383 94.3517 51.4925C95.2477 51.2467 96.0606 50.7554 96.7024 50.0718C96.7844 49.9742 96.7025 49.8487 96.5522 49.9045C95.1074 50.701 93.4505 51.004 91.8246 50.7689C91.8246 50.4622 92.8767 46.9348 92.7127 46.9069C91.883 46.8923 91.0553 46.9955 90.2534 47.2136C91.2371 42.4733 92.986 37.9421 93.8741 33.2715C93.8763 33.2381 93.8676 33.2049 93.8495 33.177C93.8313 33.1491 93.8048 33.1279 93.7738 33.1169C93.7428 33.1058 93.7091 33.1054 93.6779 33.1157C93.6467 33.126 93.6196 33.1465 93.6009 33.1739C91.6109 37.982 90.0915 42.979 89.0646 48.092C88.969 48.6079 91.2235 48.0223 91.6607 47.8829Z" fill="#263238"/>
<path d="M91.8795 51.2011C92.389 52.1083 93.1182 52.8668 93.9974 53.4039C94.4883 53.6818 95.0513 53.7987 95.6096 53.7385C96.8257 53.5852 96.976 52.4977 96.9077 51.5217C96.8573 51.0083 96.7472 50.5028 96.5797 50.016C95.1773 50.9133 93.5301 51.3286 91.8795 51.2011Z" fill="#263238"/>
<path d="M93.9974 53.404C94.4883 53.6819 95.0513 53.7987 95.6096 53.7386C96.8257 53.5852 96.976 52.4977 96.9077 51.5218C96.2864 51.4597 95.6626 51.6112 95.1353 51.9522C94.6081 52.2932 94.2076 52.8042 93.9974 53.404Z" fill="#FF9ABB"/>
<path d="M120.464 44.8993C116.365 45.5824 114.998 36.1436 114.998 36.1436C114.998 36.1436 97.5911 33.871 95.5689 19.5803C93.6153 25.5114 89.501 30.4485 84.078 33.3691C84.078 33.3691 84.078 17.6006 96.1701 14.0453C96.1701 14.0453 111.118 7.77135 120.136 19.7198C129.153 31.6682 123.169 44.4392 120.464 44.8993Z" fill="#263238"/>
<path d="M95.5276 18.5208C95.4151 20.7463 95.7692 22.9708 96.566 25.0457C97.3342 27.1566 98.5202 29.0835 100.05 30.7062C100.436 31.1087 100.842 31.4903 101.266 31.8494L101.881 32.4071L102.564 32.8812C103.029 33.1879 103.48 33.5086 103.931 33.7874C104.381 34.0662 104.914 34.2893 105.406 34.5263C105.652 34.6379 105.898 34.7773 106.144 34.8749L106.923 35.1537L108.467 35.6835C109.519 35.9345 110.585 36.1297 111.65 36.3109C110.639 35.9066 109.601 35.6278 108.617 35.2234L107.155 34.5681L106.431 34.2475L105.748 33.8432C105.283 33.5643 104.832 33.2994 104.382 33.0485C103.931 32.7975 103.534 32.4211 103.111 32.1143L102.469 31.6403L101.895 31.1105C101.494 30.7686 101.115 30.4007 100.761 30.0091C98.5688 27.6563 96.9904 24.7801 96.1698 21.6438C95.8694 20.6232 95.6545 19.5785 95.5276 18.5208Z" fill="#263238"/>
<path d="M117.963 46.8093C117.963 46.8093 122.923 39.8383 126.038 41.6508C129.153 43.4632 125.327 53.641 121.611 54.9794C121.146 55.1826 120.647 55.288 120.141 55.2895C119.636 55.291 119.136 55.1884 118.67 54.988C118.204 54.7875 117.783 54.4933 117.432 54.1229C117.08 53.7525 116.805 53.3136 116.624 52.8323L117.963 46.8093Z" fill="#D3766A"/>
<path d="M124.877 44.5925V44.6901C122.267 45.7218 120.86 48.1338 119.862 50.6574C120.018 50.396 120.228 50.1722 120.477 50.0013C120.725 49.8304 121.007 49.7166 121.303 49.6676C121.599 49.6186 121.902 49.6355 122.191 49.7174C122.48 49.7992 122.749 49.9439 122.977 50.1415C122.977 50.1415 122.977 50.2949 122.909 50.2809C122.458 50.1218 121.969 50.1101 121.512 50.2476C121.054 50.385 120.649 50.6647 120.354 51.0477C119.868 51.6958 119.447 52.3917 119.097 53.1251C118.974 53.3621 118.551 53.2227 118.646 52.9578C118.674 49.5978 121.324 44.8714 124.877 44.5925Z" fill="#263238"/>
<path d="M118.4 19.4688C116.419 18.7159 114.533 7.40886 121.816 2.01325C129.099 -3.38235 138.431 2.78007 134.523 12.0516C132.05 17.9073 122.595 21.0582 118.4 19.4688Z" fill="#263238"/>
<path d="M132.009 1.35797C134.162 3.1934 135.64 5.71987 136.203 8.52423C136.494 9.82881 136.442 11.1884 136.053 12.4661C135.665 13.7437 134.953 14.8944 133.99 15.802C131.95 17.6573 129.45 18.9062 126.762 19.413C125.392 19.7222 123.997 19.8996 122.595 19.9428C121.18 20.0432 119.759 19.8826 118.4 19.4688C119.683 20.1928 121.105 20.6211 122.567 20.7236C124.031 20.8816 125.509 20.8582 126.967 20.6539C129.983 20.3236 132.822 19.0363 135.083 16.9732C136.23 15.8677 137.061 14.4655 137.488 12.916C137.858 11.3735 137.829 9.75949 137.406 8.23144C137.011 6.77192 136.328 5.40981 135.4 4.2281C134.473 3.0464 133.319 2.06985 132.009 1.35797Z" fill="#263238"/>
<path d="M128.183 81.9156C146.465 109.981 156.794 147.346 155.51 155.572C154.034 164.62 141.518 195.209 128.62 208.691C125.218 212.247 99.449 183.08 102.933 179.134C109.642 171.522 122.964 149.089 123.551 143.972C124.098 139.246 117.348 108.838 115.572 91.5496C113.796 74.9446 119.684 68.8518 128.183 81.9156Z" fill="#D3766A"/>
<path d="M103.726 178.2C103.726 178.2 89.7345 184.474 80.7713 189.019C75.7705 191.557 67.5724 196.687 64.7305 200.27C60.4948 205.61 46.08 230.762 51.9825 234.457C57.3249 237.803 67.0123 214.603 67.0123 214.603C67.0123 214.603 55.2071 237.133 62.3667 239.964C69.5263 242.794 77.0549 215.063 77.0549 215.063C77.0549 215.063 65.4273 238.5 73.2564 240.159C79.1317 241.525 87.3297 216.82 87.3297 216.82C87.3297 216.82 77.4784 237.036 83.504 238.639C90.1717 240.41 99.1485 218.088 99.1485 218.088C115.148 219.483 123.346 213.529 128.675 208.566C129.987 207.367 103.726 178.2 103.726 178.2Z" fill="#D3766A"/>
<path d="M70.5648 206.53C69.0892 209.124 67.5725 211.745 66.3155 214.463C65.0585 217.182 63.9108 219.957 62.9133 222.829C61.5424 226.498 60.5888 230.315 60.0713 234.206C61.4377 227.374 65.81 217.559 67.067 214.84C68.324 212.121 69.4308 209.263 70.6741 206.614C70.7014 206.516 70.6058 206.475 70.5648 206.53Z" fill="#263238"/>
<path d="M80.2794 210.964C78.5305 214.352 76.6722 217.67 75.0599 221.142C73.4477 224.613 72.3273 228.029 70.9609 231.598C70.8653 231.877 71.0429 231.835 71.1522 231.598C72.6552 228.085 74.2948 224.962 75.8388 221.476C77.3827 217.991 78.7764 214.505 80.4297 211.02C80.3887 210.936 80.3067 210.908 80.2794 210.964Z" fill="#263238"/>
<path d="M89.2837 213.223C86.472 218.372 84.1829 223.8 82.452 229.423C82.3564 229.702 82.5886 229.633 82.6979 229.423C84.8568 224 86.5237 219.664 89.434 213.404C89.5023 213.237 89.352 213.125 89.2837 213.223Z" fill="#263238"/>
<path d="M145.754 110.706L116.624 116.436C116.624 116.436 113.14 95.5929 114.629 82.9753C116.119 70.3576 123.251 72.7836 130.178 82.9753C137.105 93.167 145.754 110.706 145.754 110.706Z" fill="#5BA4A4"/>
<path opacity="0.1" d="M145.754 110.706L116.624 116.436C116.624 116.436 113.14 95.5929 114.629 82.9753C116.119 70.3576 123.251 72.7836 130.178 82.9753C137.105 93.167 145.754 110.706 145.754 110.706Z" fill="black"/>
</svg>
